<?xml version="1.0" standalone="no"?>
<!DOCTYPE svg PUBLIC "-//W3C//DTD SVG 1.1//EN" "http://www.w3.org/Graphics/SVG/1.1/DTD/svg11.dtd" >
<svg xmlns="http://www.w3.org/2000/svg">
<metadata></metadata>
<defs>
<font id="freight_sansbook_italic_sc" horiz-adv-x="1024" >
<font-face units-per-em="2048" ascent="1638" descent="-410" />
<missing-glyph horiz-adv-x="284" />
<glyph horiz-adv-x="0" />
<glyph unicode="&#xd;" horiz-adv-x="284" />
<glyph unicode=" "  horiz-adv-x="284" />
<glyph unicode="&#x09;" horiz-adv-x="284" />
<glyph unicode="&#xa0;" horiz-adv-x="284" />
<glyph unicode="!" horiz-adv-x="530" d="M90 80q0 41 28.5 71.5t74.5 30.5q47 0 74.5 -30.5t27.5 -71.5t-27.5 -74t-74.5 -33q-45 0 -74 33t-29 74zM215 385l143 944l154 -16l-223 -934z" />
<glyph unicode="&#x22;" horiz-adv-x="620" d="M55 815l359 508l116 -59l-401 -449h-74zM358 815l361 508l117 -59l-402 -449h-76z" />
<glyph unicode="#" horiz-adv-x="1153" d="M-41 -152l231 492h-167v94h213l153 324h-244v94h287q16 35 35 72q16 33 34.5 73.5t41.5 85.5q49 100 108 232h105q-61 -131 -111 -232q-23 -45 -41 -86t-35 -73q-18 -37 -34 -72h360l219 463h103l-220 -463h166l-2 -94h-209l-153 -324h241l-2 -94h-284l-232 -492h-102 l231 492h-358l-232 -492h-102zM338 434h358q12 23 25 49q10 23 23.5 52.5t29.5 60.5q35 70 76 162h-358z" />
<glyph unicode="$" d="M31 125l32 127q53 -47 120 -83t139 -56l165 497q-59 27 -112 57.5t-93 70.5t-63.5 89.5t-23.5 114.5q0 88 34.5 155.5t93 113.5t135.5 70t160 24q29 0 54.5 -2.5t52.5 -6.5l10 31q4 14 11.5 31.5t13.5 36.5q14 43 33 100h81l-71 -217q123 -35 211 -100l-33 -125 q-43 37 -99.5 65.5t-117.5 44.5l-156 -465q63 -29 118.5 -60.5t95.5 -72.5t62.5 -94t22.5 -123q0 -86 -33.5 -155.5t-94 -118.5t-140.5 -75t-172 -26q-29 0 -54.5 2t-54.5 7l-77 -234h-82l84 250q-72 20 -135.5 52t-116.5 75zM322 956q0 -78 58.5 -128t156.5 -97 q43 127 75 225l74 226q-41 6 -80 6q-57 0 -109.5 -15.5t-91 -45t-61 -72.5t-22.5 -99zM397 96q37 -6 74 -6q61 0 117.5 16.5t99.5 48t68.5 76.5t25.5 101q0 88 -60.5 143.5t-162.5 102.5q-14 -35 -27 -74q-12 -35 -25 -78t-30 -88q-37 -106 -80 -242z" />
<glyph unicode="%" horiz-adv-x="1521" d="M90 -31l1294 1340h117l-1292 -1340h-119zM119 948q0 78 28.5 146.5t80 121t118 82t143.5 29.5q68 0 127.5 -20.5t103.5 -60.5t68.5 -96t24.5 -126q0 -78 -28.5 -147.5t-80 -120.5t-119 -81t-147.5 -30q-68 0 -126 21.5t-101 60.5t-67.5 95.5t-24.5 125.5zM211 954 q0 -104 66.5 -163.5t164.5 -59.5q59 0 110.5 21.5t88.5 59.5t58.5 88.5t21.5 109.5q0 104 -65.5 165.5t-170.5 61.5q-59 0 -109 -22.5t-87 -60.5t-57.5 -90t-20.5 -110zM784 254q0 78 29 146.5t79 119.5t117.5 81t145.5 30q68 0 127 -20.5t102 -60.5t68 -96t25 -126 q0 -78 -30 -146.5t-80 -120t-118.5 -81t-146.5 -29.5q-68 0 -126 21.5t-101.5 60.5t-67 95t-23.5 126zM874 260q0 -104 67 -163.5t167 -59.5q57 0 108.5 21.5t88 60.5t58 90t21.5 110q0 104 -67.5 164t-165.5 60q-59 0 -109.5 -22.5t-87 -60.5t-58.5 -90.5t-22 -109.5z" />
<glyph unicode="&#x26;" horiz-adv-x="1277" d="M29 307q0 82 33.5 147.5t88 113.5t124 81t141.5 53q-72 47 -116 114t-44 149q0 68 29.5 130t81 110t121 76t149.5 28q70 0 129 -21.5t103 -59.5t70 -90.5t26 -113.5q0 -70 -29 -125t-75 -97t-104.5 -72t-119.5 -48q74 -47 136.5 -116.5t107.5 -147.5l282 354h156 l-383 -432l207 -344l-139 -23l-156 273q-47 -53 -98.5 -101.5t-108.5 -87.5t-120.5 -61.5t-133.5 -22.5q-76 0 -141.5 26t-113.5 70t-75.5 105.5t-27.5 132.5zM160 326q0 -51 18.5 -95.5t52 -76t77.5 -50t98 -18.5q57 0 112 21.5t104.5 56.5t94.5 78t84 86q-61 102 -140 186 t-174 137q-63 -20 -121.5 -50t-104.5 -69.5t-73.5 -91t-27.5 -114.5zM385 975q0 -74 49 -131.5t129 -110.5q51 18 100.5 42t88.5 56.5t62.5 76.5t23.5 100q0 86 -60.5 140t-152.5 54q-51 0 -95.5 -18.5t-76 -49t-50 -72.5t-18.5 -87z" />
<glyph unicode="'" horiz-adv-x="333" d="M57 815l361 508l112 -59l-401 -449h-72z" />
<glyph unicode="(" horiz-adv-x="716" d="M139 463q0 186 54.5 343t137.5 278.5t180 207.5t183 129l56 -90q-80 -43 -167 -123t-161 -192.5t-121 -251.5t-47 -301t47 -301t121 -251t161 -191.5t167 -122.5l-56 -91q-86 43 -183 128t-180 207t-137.5 278.5t-54.5 343.5z" />
<glyph unicode=")" horiz-adv-x="716" d="M-33 -403q80 43 168 122.5t160 191.5t119 251t47 301t-47 301t-119 251.5t-160 192.5t-168 123l58 90q86 -43 183 -129t179 -207.5t136.5 -278.5t54.5 -343t-54.5 -343t-136.5 -279t-180 -207t-184 -128z" />
<glyph unicode="*" horiz-adv-x="694" d="M102 889l297 90l2 10l-235 197l96 92l176 -260h6l117 287l115 -64l-191 -246l4 -6l299 -14l-24 -131l-283 100l-8 -6l84 -301l-131 -12l2 309l-6 4l-258 -170z" />
<glyph unicode="+" horiz-adv-x="995" d="M84 582l6 110h354v365h113v-365h350l6 -110h-356v-369h-113v369h-360z" />
<glyph unicode="," horiz-adv-x="382" d="M-119 -256q41 23 82 52.5t74 62t53.5 67.5t20.5 70t-34 63.5t-73 46.5q10 37 42 63t75 26q57 0 94 -43t37 -103q0 -59 -31 -113.5t-79 -100.5t-105 -84t-111 -64z" />
<glyph unicode="-" horiz-adv-x="598" d="M74 438v119h463v-119h-463z" />
<glyph unicode="." horiz-adv-x="382" d="M16 80q0 41 29 71.5t76 30.5q45 0 72.5 -30.5t27.5 -71.5t-27.5 -74t-72.5 -33q-47 0 -76 33t-29 74z" />
<glyph unicode="/" horiz-adv-x="423" d="M-233 -408l854 1846h98l-854 -1846h-98z" />
<glyph unicode="0" d="M82 469q0 76 12 167t38 183t67 178t100 153t137 106.5t178 39.5q117 0 192 -46t118 -117.5t59 -157.5t16 -166q0 -76 -11 -166t-37.5 -182t-67.5 -178t-99.5 -153t-137.5 -106.5t-177 -39.5q-117 0 -191.5 46t-117.5 117.5t-60.5 157.5t-17.5 164zM213 461 q0 -47 9 -110.5t37 -120t80 -95.5t138 -39q82 0 143.5 41t105.5 106.5t71.5 147.5t44 162t22.5 150.5t6 115.5q0 49 -9 111.5t-36.5 120t-80 96.5t-138.5 39q-84 0 -144.5 -41t-104.5 -106.5t-71.5 -147.5t-44 -162t-22.5 -151.5t-6 -116.5z" />
<glyph unicode="1" d="M350 1073l17 115l430 104l-250 -1292h-123l221 1141z" />
<glyph unicode="2" d="M23 0l12 131q180 150 325.5 262.5t248 206.5t156.5 181t54 186q0 55 -20.5 97t-55 69.5t-80 42t-94.5 14.5q-84 0 -165.5 -33t-145.5 -84l-33 107q78 59 170 92t185 33q74 0 140 -21.5t117.5 -63.5t82 -102.5t30.5 -140.5q0 -113 -53 -205t-152.5 -187.5t-245 -207 t-329.5 -260.5h672l-11 -117h-808z" />
<glyph unicode="3" d="M61 88l45 113q70 -49 157 -80t173 -31q63 0 121.5 17.5t104 51.5t71 84t25.5 115q0 63 -25.5 108.5t-70 74t-102.5 42t-126 13.5q-35 0 -64.5 -2t-58.5 -6l17 104q70 10 155.5 29.5t160.5 54.5t126 88.5t51 130.5q0 51 -19.5 88t-52 61.5t-76.5 36t-91 11.5 q-82 0 -163 -29.5t-145 -70.5l-34 104q72 47 163 78t189 31q68 0 131 -16.5t114.5 -52.5t82 -90t30.5 -128q0 -78 -32.5 -136.5t-86 -100.5t-122 -70.5t-140.5 -42.5q68 -8 126.5 -30t101.5 -57.5t67.5 -88t24.5 -121.5q0 -88 -37 -161t-100.5 -125t-145.5 -81t-174 -29 q-45 0 -96 8.5t-100.5 22.5t-94.5 35.5t-80 46.5z" />
<glyph unicode="4" d="M43 422l778 868h133l-166 -854h193l-16 -110h-199l-64 -330h-118l65 330h-602zM184 436h488l137 701z" />
<glyph unicode="5" d="M55 82l39 119q72 -49 155 -82t173 -33q70 0 129 21.5t104 61.5t71 97.5t26 130.5q0 72 -29 122t-75 82t-104.5 46.5t-115.5 14.5q-66 0 -114 -6.5t-93 -18.5l-28 37l182 606h616l-12 -121h-522l-121 -401q23 4 47.5 5t56.5 1q80 0 159 -19.5t140.5 -62.5t100.5 -110.5 t39 -161.5q0 -100 -36 -181.5t-98.5 -138.5t-146.5 -88t-182 -31q-43 0 -92.5 8.5t-97.5 22.5t-92 34.5t-79 45.5z" />
<glyph unicode="6" d="M90 420q0 184 73 336.5t192.5 266.5t273 184.5t313.5 90.5l19 -112q-111 -14 -218.5 -52t-202 -101.5t-170 -154t-120.5 -208.5l4 -2q70 47 157 76.5t173 29.5q80 0 145.5 -26.5t110.5 -72.5t69.5 -109.5t24.5 -137.5q0 -94 -33 -177t-90 -144.5t-138 -96.5t-175 -35 q-96 0 -172 35t-128.5 94.5t-80 141.5t-27.5 174zM213 414q0 -66 18.5 -124.5t55.5 -103.5t91 -71.5t126 -26.5q70 0 126 25.5t96 70.5t61.5 103.5t21.5 126.5q0 123 -72.5 187.5t-189.5 64.5q-92 0 -171 -29t-143 -76q-12 -35 -16 -71.5t-4 -75.5z" />
<glyph unicode="7" d="M141 0l754 1157h-696l24 123h807l4 -100l-755 -1180h-138z" />
<glyph unicode="8" d="M72 295q0 76 26.5 135t72.5 105.5t106.5 78t128.5 50.5q-39 23 -76 50t-65.5 62t-46 77t-17.5 95q0 78 32.5 143.5t89 112.5t131 74t158.5 27q78 0 146.5 -20.5t120 -61.5t81 -100.5t29.5 -137.5q0 -68 -23.5 -124t-64.5 -99t-96 -76t-119 -55q41 -25 80 -53.5 t69.5 -64.5t49 -80t18.5 -99q0 -82 -33.5 -148.5t-92 -112.5t-135.5 -71t-161 -25q-80 0 -154.5 19.5t-131 59.5t-90 99.5t-33.5 139.5zM199 313q0 -57 23.5 -100t63.5 -70.5t94 -42t114 -14.5q57 0 109 16.5t91 46t61.5 74t22.5 99.5q0 59 -28.5 104t-71.5 80t-93 60.5 t-91 43.5q-55 -14 -108.5 -38.5t-94.5 -61.5t-66.5 -85t-25.5 -112zM326 961q0 -55 28.5 -98.5t70.5 -77t90 -58.5t87 -43q51 16 98.5 41t83 59.5t57 80t21.5 102.5q0 53 -19.5 95t-54 71.5t-82 46t-100.5 16.5q-55 0 -105 -17.5t-89 -48t-62.5 -73.5t-23.5 -96z" />
<glyph unicode="9" d="M123 92q111 14 218.5 52t201.5 102.5t168.5 155t122.5 208.5l-5 2q-70 -47 -157.5 -76.5t-173.5 -29.5q-84 0 -148.5 25.5t-109.5 71.5t-69 108.5t-24 136.5q0 94 33 177t91.5 144.5t138 96t176.5 34.5q96 0 170.5 -33.5t127 -93t80 -139.5t27.5 -172 q0 -186 -72.5 -339.5t-192.5 -267.5t-272.5 -183.5t-314.5 -89.5zM272 862q0 -123 73 -185.5t190 -62.5q92 0 171.5 30t141.5 75q12 35 16 71.5t4 75.5q0 63 -18.5 122t-55 104t-91 70.5t-125.5 25.5q-70 0 -126.5 -25.5t-96.5 -70.5t-61.5 -103.5t-21.5 -126.5z" />
<glyph unicode=":" horiz-adv-x="382" d="M16 80q0 41 29 71.5t76 30.5q45 0 72.5 -30.5t27.5 -71.5t-27.5 -74t-72.5 -33q-47 0 -76 33t-29 74zM141 733q0 41 29 71t74 30t73.5 -30t28.5 -71q0 -43 -28.5 -74.5t-73.5 -31.5t-74 31.5t-29 74.5z" />
<glyph unicode=";" horiz-adv-x="382" d="M-119 -256q41 23 82 52.5t74 62t53.5 67.5t20.5 70t-34 63.5t-73 46.5q10 37 42 63t75 26q57 0 94 -43t37 -103q0 -59 -31 -113.5t-79 -100.5t-105 -84t-111 -64zM141 733q0 41 29 71t74 30t73.5 -30t28.5 -71q0 -43 -28.5 -74.5t-73.5 -31.5t-74 31.5t-29 74.5z" />
<glyph unicode="&#x3c;" horiz-adv-x="933" d="M70 582v110l780 391v-125l-637 -311v-20l639 -312v-122z" />
<glyph unicode="=" horiz-adv-x="913" d="M72 399l8 113h758l8 -113h-774zM72 872h774l-8 -112h-758z" />
<glyph unicode="&#x3e;" horiz-adv-x="933" d="M78 193v122l639 312v20l-637 311v125l780 -391v-110z" />
<glyph unicode="?" horiz-adv-x="714" d="M129 80q0 41 28.5 71.5t75.5 30.5q45 0 74 -30.5t29 -71.5t-28.5 -74t-74.5 -33q-47 0 -75.5 33t-28.5 74zM176 567q0 47 18.5 83t51.5 61.5t77 45t95 36.5q47 14 87 31.5t68.5 39t44 50t15.5 69.5q0 53 -26.5 92t-67.5 64.5t-90.5 38t-96.5 12.5q-33 0 -57.5 -2 t-46.5 -4l22 119q39 6 97 6q80 0 147.5 -23.5t118.5 -65.5t79.5 -100.5t28.5 -126.5q0 -72 -23.5 -121t-61.5 -83.5t-87 -57t-98 -37.5q-98 -31 -146.5 -59.5t-48.5 -87.5q0 -41 29 -81t64 -77l-37 -8l-37 -8q-47 35 -83 85t-36 109z" />
<glyph unicode="@" horiz-adv-x="1701" d="M88 496q0 166 61.5 312t167 256t250 173t310.5 63q150 0 284.5 -47t237 -135t163 -211.5t60.5 -279.5q0 -129 -33 -227.5t-86 -165t-122.5 -101.5t-143.5 -35q-86 0 -146.5 43t-84.5 109q-61 -74 -124 -104.5t-126 -30.5q-66 0 -120 25.5t-92 71.5t-59.5 106.5 t-21.5 132.5q0 96 33.5 182t92 150.5t136.5 102.5t166 38q59 0 110.5 -18.5t92.5 -43.5l118 53l-100 -491q-23 -113 13 -174.5t126 -61.5q55 0 108.5 28t94.5 83t65.5 137t24.5 191q0 137 -56 249.5t-149.5 191.5t-213 122t-248.5 43q-150 0 -279 -59.5t-225.5 -161 t-151.5 -234.5t-55 -280q0 -141 48 -265t134 -216.5t206 -145.5t263 -53q63 0 129 12t123 29l18 -68q-139 -43 -274 -43q-158 0 -291 57.5t-229 159t-150.5 237.5t-54.5 294zM578 459q0 -109 57 -178.5t151 -69.5q104 0 197 104l88 433q-33 35 -83 59t-109 24 q-63 0 -118.5 -31.5t-95.5 -83.5t-63.5 -119t-23.5 -138z" />
<glyph unicode="A" horiz-adv-x="1185" d="M-70 0l754 1278h152l229 -1278h-131l-62 356h-593l-205 -356h-144zM348 475h504l-115 670z" />
<glyph unicode="B" horiz-adv-x="1099" d="M74 0l248 1280h360q98 0 171 -25.5t121 -68.5t71.5 -100.5t23.5 -120.5q0 -123 -80.5 -208t-230.5 -120q113 -29 175 -103.5t62 -173.5q0 -74 -29.5 -139t-91 -114.5t-156.5 -78t-226 -28.5h-418zM227 121h287q182 0 264 66t82 175q0 94 -77.5 158t-223.5 64h-242z M342 698h233q74 0 138.5 15.5t114 46.5t78 77t28.5 107q0 88 -65.5 151.5t-211.5 63.5h-227z" />
<glyph unicode="C" horiz-adv-x="1196" d="M109 541q0 156 51 294t145 242.5t228.5 166t300.5 61.5q98 0 197 -20.5t198 -59.5l-25 -125q-88 41 -187 64.5t-192 23.5q-137 0 -245.5 -52.5t-183 -139.5t-114.5 -202.5t-40 -240.5q0 -111 32.5 -196t93 -144t145.5 -90t189 -31q82 0 166 21.5t156 58.5l27 -117 q-78 -39 -176.5 -60.5t-182.5 -21.5q-129 0 -236.5 40t-184 114t-119.5 179.5t-43 234.5z" />
<glyph unicode="D" horiz-adv-x="1282" d="M74 0l248 1280h276q127 0 238.5 -36t194.5 -105.5t130 -172t47 -235.5q0 -150 -48 -283t-144 -232t-241.5 -157.5t-342.5 -58.5h-358zM229 121h228q129 0 240.5 39t194.5 113.5t131 186.5t48 257q0 217 -133 328.5t-360 113.5h-148z" />
<glyph unicode="E" horiz-adv-x="1038" d="M74 0l250 1280h772l-23 -121h-643l-88 -459h537l-25 -118h-535l-90 -461h641l-22 -121h-774z" />
<glyph unicode="F" horiz-adv-x="983" d="M74 0l248 1280h753l-22 -123h-623l-92 -477h516l-25 -119h-516l-108 -561h-131z" />
<glyph unicode="G" horiz-adv-x="1271" d="M109 541q0 156 50 294t144 242.5t228.5 166t302.5 61.5q98 0 197 -20.5t198 -59.5l-25 -125q-88 41 -187 64.5t-192 23.5q-137 0 -245.5 -52.5t-183 -139.5t-114.5 -202.5t-40 -240.5q0 -111 33.5 -197t94 -145t145.5 -90t190 -31q66 0 130 15.5t123 39.5l74 373h-340 l25 119h469l-111 -571q-84 -41 -187.5 -67t-195.5 -26q-129 0 -236.5 40t-184 114t-119.5 179.5t-43 234.5z" />
<glyph unicode="H" horiz-adv-x="1331" d="M74 0l248 1280h131l-111 -578h739l111 578h131l-248 -1280h-131l115 584h-742l-112 -584h-131z" />
<glyph unicode="I" horiz-adv-x="466" d="M76 0l248 1280h131l-250 -1280h-129z" />
<glyph unicode="J" horiz-adv-x="835" d="M-55 86l47 119q59 -51 131 -82t149 -31q121 0 186.5 75t92.5 206l176 907h129l-180 -930q-33 -170 -132.5 -273.5t-273.5 -103.5q-92 0 -179 32t-146 81z" />
<glyph unicode="K" horiz-adv-x="1073" d="M74 0l248 1280h131l-119 -614h2l708 614h170l-755 -641l510 -639h-156l-487 612h-2l-119 -612h-131z" />
<glyph unicode="L" horiz-adv-x="978" d="M74 0l250 1280h131l-226 -1157h633l-24 -123h-764z" />
<glyph unicode="M" horiz-adv-x="1554" d="M31 0l297 1280h176l211 -1128l647 1128h186l-209 -1280h-133l193 1116l-635 -1108h-148l-200 1102l-248 -1110h-137z" />
<glyph unicode="N" horiz-adv-x="1320" d="M74 0l245 1280h160l502 -1122l211 1122h127l-248 -1292h-153l-506 1134l-211 -1122h-127z" />
<glyph unicode="O" horiz-adv-x="1439" d="M113 565q0 147 53 281.5t147.5 237t225.5 163t284 60.5q125 0 231.5 -43t184.5 -121t121 -186.5t43 -237.5q0 -147 -53.5 -281.5t-148.5 -238t-224 -165t-283 -61.5q-127 0 -233.5 44t-184 122t-120.5 187.5t-43 238.5zM246 573q0 -104 33.5 -193t94 -153.5t145.5 -100.5 t190 -36q127 0 230 53.5t177 139.5t114 197.5t40 228.5q0 104 -34 193t-94.5 152.5t-145.5 99.5t-189 36q-127 0 -230.5 -52.5t-177 -138.5t-113.5 -197.5t-40 -228.5z" />
<glyph unicode="P" horiz-adv-x="1062" d="M74 0l248 1280h309q111 0 193.5 -29.5t137 -80t82 -115.5t27.5 -135q0 -104 -37 -191.5t-109.5 -149t-179 -95t-245.5 -33.5h-207l-90 -451h-129zM313 571l203 -2q211 0 315.5 93.5t104.5 234.5q0 113 -83 187.5t-243 74.5h-180z" />
<glyph unicode="Q" horiz-adv-x="1439" d="M113 565q0 147 53 281.5t147.5 236t225.5 162t284 60.5q125 0 231.5 -43t184.5 -120t121 -185.5t43 -237.5q0 -121 -36 -232.5t-102.5 -206t-158.5 -165t-203 -107.5l371 -248l-78 -106l-459 323q-10 -2 -20 -3t-21 -1q-127 0 -233.5 44t-184 122t-121.5 187.5t-44 238.5 zM246 573q0 -104 33.5 -193t94 -153.5t145.5 -100.5t190 -36q127 0 230 53.5t177 139.5t114 197.5t40 228.5q0 104 -34 193t-94.5 152.5t-145.5 99.5t-189 36q-127 0 -230.5 -52.5t-177 -138.5t-113.5 -197.5t-40 -228.5z" />
<glyph unicode="R" horiz-adv-x="1093" d="M74 0l248 1280h296q111 0 194 -28.5t137.5 -76t81 -111t26.5 -132.5q0 -86 -32 -153.5t-84 -116t-119.5 -79t-137.5 -42.5l234 -541h-146l-217 526l-252 -16l-98 -510h-131zM324 627l204 4q76 2 148 19.5t126 52t87 88t33 127.5q0 111 -78 177t-236 66h-178z" />
<glyph unicode="S" horiz-adv-x="1005" d="M23 104l32 127q88 -59 197 -100t213 -41q68 0 124 17.5t98 50t64.5 78t22.5 98.5q0 49 -20.5 87t-57.5 69.5t-88 58t-112 55.5q-61 27 -117.5 58.5t-99.5 71.5t-69 91.5t-26 116.5q0 88 35 155.5t94.5 113.5t136 70t160.5 24q113 0 217.5 -33t178.5 -80l-33 -125 q-37 25 -82 47.5t-94 38.5t-100.5 25.5t-98.5 9.5q-57 0 -109.5 -15.5t-91.5 -45t-61.5 -72.5t-22.5 -99q0 -90 75 -144t198 -107q66 -29 123 -62t100 -75t67.5 -96t24.5 -124q0 -86 -35 -155.5t-94 -118.5t-140 -75t-173 -26q-123 0 -238 38t-198 93z" />
<glyph unicode="T" horiz-adv-x="1112" d="M180 1157l25 123h1030l-23 -123h-450l-225 -1157h-129l225 1157h-453z" />
<glyph unicode="U" horiz-adv-x="1232" d="M125 352q0 51 7 100.5t13 82.5l148 745h129l-146 -750q-6 -29 -13 -68.5t-7 -84.5q0 -135 88 -209t252 -74q154 0 246 98.5t125 260.5l161 827h129l-161 -842q-41 -215 -168 -340t-340 -125q-102 0 -187.5 26t-146.5 74t-95 118.5t-34 160.5z" />
<glyph unicode="V" horiz-adv-x="1146" d="M182 1280h133l191 -1143l647 1143h141l-739 -1278h-149z" />
<glyph unicode="W" horiz-adv-x="1851" d="M250 1280h135l84 -1092l539 1092h155l119 -1092l498 1092h137l-606 -1280h-127l-125 1120l-565 -1120h-127z" />
<glyph unicode="X" horiz-adv-x="1150" d="M-63 0l602 657l-330 623h147l271 -537l469 537h161l-573 -631l348 -649h-147l-289 567l-498 -567h-161z" />
<glyph unicode="Y" horiz-adv-x="1073" d="M184 1280h140l245 -643l482 643h153l-594 -770l-100 -510h-127l100 518z" />
<glyph unicode="Z" horiz-adv-x="1044" d="M-41 0l21 96l954 1063h-727l22 121h899l-18 -98l-952 -1061h745l-22 -121h-922z" />
<glyph unicode="[" horiz-adv-x="792" d="M201 -455v1837h532v-104h-416v-1628h416v-105h-532z" />
<glyph unicode="\" horiz-adv-x="423" d="M164 1438h96l137 -1846h-94z" />
<glyph unicode="]" horiz-adv-x="792" d="M61 -350h416v1628h-416v104h531v-1837h-531v105z" />
<glyph unicode="^" horiz-adv-x="772" d="M223 1061l305 373h144l159 -373h-106l-137 276h-4l-242 -276h-119z" />
<glyph unicode="_" horiz-adv-x="911" d="M-70 0h955v-115h-955v115z" />
<glyph unicode="`" horiz-adv-x="811" d="M330 1427h164l170 -366h-95z" />
<glyph unicode="a" horiz-adv-x="942" d="M-53 0l567 967h148l169 -967h-124l-45 256h-435l-145 -256h-135zM289 367h354l-74 479z" />
<glyph unicode="b" horiz-adv-x="907" d="M66 0l184 967h311q152 0 224.5 -70t72.5 -170q0 -90 -58.5 -153.5t-162.5 -90.5q78 -25 122 -80t44 -129q0 -57 -22.5 -107t-68.5 -87t-120 -58.5t-174 -21.5h-352zM207 111h221q131 0 191.5 45t58.5 123q0 68 -57.5 110.5t-157.5 42.5h-193zM291 535h182q109 0 182.5 44 t73.5 130q0 61 -46 104t-151 43h-178z" />
<glyph unicode="c" horiz-adv-x="948" d="M90 410q0 119 39 224t111.5 183t176 124t230.5 46q74 0 149.5 -15.5t151.5 -43.5l-26 -117q-70 29 -145 47.5t-140 18.5q-98 0 -176 -37t-132.5 -100.5t-83 -146.5t-28.5 -175q2 -154 93 -241t241 -87q131 0 242 62l6 -119q-57 -25 -126 -39t-134 -14q-100 0 -182.5 29.5 t-141.5 85t-92 135t-33 180.5z" />
<glyph unicode="d" d="M66 0l184 967h227q96 0 181 -27t147.5 -78t99.5 -129t37 -178q0 -111 -36 -212t-109.5 -177t-184 -121t-260.5 -45h-286zM209 111h164q92 0 172 27.5t139 82.5t93 135.5t34 184.5q0 158 -97.5 236.5t-260.5 78.5h-99z" />
<glyph unicode="e" horiz-adv-x="839" d="M66 0l184 967h604l-20 -111h-480l-61 -315h401l-20 -113h-404l-63 -317h483l-22 -111h-602z" />
<glyph unicode="f" horiz-adv-x="798" d="M66 0l184 967h590l-23 -113h-465l-63 -328h387l-21 -114h-387l-82 -412h-120z" />
<glyph unicode="g" horiz-adv-x="1013" d="M90 410q0 119 39 224t111.5 183t175 124t231.5 46q152 0 305 -59l-28 -119q-70 33 -143.5 50.5t-143.5 17.5q-98 0 -177 -37t-133.5 -100.5t-82.5 -146.5q-27 -78 -27 -163v-12q2 -156 93 -243t243 -87q47 0 92 10.5t86 26.5l53 254h-256l25 115h373l-86 -447 q-66 -31 -145 -49t-154 -18q-100 0 -183.5 29.5t-142.5 85t-92 135t-33 180.5z" />
<glyph unicode="h" horiz-adv-x="1056" d="M66 0l184 967h127l-84 -424h526l80 424h125l-186 -967h-125l84 430h-525l-84 -430h-122z" />
<glyph unicode="i" horiz-adv-x="409" d="M66 0l188 967h123l-189 -967h-122z" />
<glyph unicode="j" horiz-adv-x="686" d="M-31 66l41 110q45 -39 98.5 -62.5t112.5 -23.5q90 0 136 54.5t63 148.5l131 674h125l-135 -693q-27 -135 -104 -214.5t-214 -79.5q-72 0 -140.5 23.5t-113.5 62.5z" />
<glyph unicode="k" horiz-adv-x="878" d="M66 0l184 967h127l-88 -459h2l504 459h159l-553 -484l371 -483h-147l-346 455h-3l-88 -455h-122z" />
<glyph unicode="l" horiz-adv-x="784" d="M66 0l184 967h129l-168 -854h469l-23 -113h-591z" />
<glyph unicode="m" horiz-adv-x="1239" d="M29 0l225 967h170l145 -832l461 832h178l-155 -967h-125l141 815l-455 -811h-141l-135 813l-180 -817h-129z" />
<glyph unicode="n" horiz-adv-x="1052" d="M66 0l182 967h149l359 -817l151 817h121l-186 -977h-148l-356 827l-154 -817h-118z" />
<glyph unicode="o" horiz-adv-x="1134" d="M92 428q0 113 41 214t112.5 178t171 122t216.5 45q94 0 176 -31.5t141.5 -90t93 -140.5t33.5 -182q0 -113 -40 -215.5t-112.5 -179t-171 -122.5t-214.5 -46q-96 0 -178 32.5t-141.5 91t-93.5 141.5t-34 183zM221 434q0 -74 23.5 -137.5t66.5 -109.5t104.5 -72.5 t137.5 -26.5q92 0 166 38t126 100.5t79.5 142t27.5 163.5q0 76 -24.5 139.5t-67.5 109.5t-103.5 72t-133.5 26q-92 0 -167 -38t-127.5 -100.5t-80 -142.5t-27.5 -164z" />
<glyph unicode="p" horiz-adv-x="874" d="M66 0l184 967h264q84 0 147.5 -23.5t105.5 -62.5t63.5 -89.5t21.5 -105.5q0 -160 -110 -259q-107 -97 -314 -97h-8h-168l-64 -330h-122zM272 438l160 2q150 0 222 66q71 64 71 159v5q0 80 -59.5 133t-173.5 53h-138z" />
<glyph unicode="q" horiz-adv-x="1134" d="M92 428q0 113 41 214t112.5 178t171 122t216.5 45q94 0 176 -31.5t141.5 -90t93 -140.5t33.5 -182q0 -96 -26.5 -180t-73.5 -153t-114.5 -119t-149.5 -77l272 -176l-72 -104l-350 248q-8 0 -13 -1t-11 -1q-96 0 -178 32.5t-141.5 91t-93.5 141.5t-34 183zM221 434 q0 -74 23.5 -137.5t67.5 -109.5t105.5 -72.5t137.5 -26.5q92 0 165 38t125 100.5t79.5 142t27.5 163.5q0 76 -24.5 139.5t-67.5 109.5t-103.5 72t-133.5 26q-92 0 -167 -38t-127.5 -100.5t-80 -142.5t-27.5 -164z" />
<glyph unicode="r" horiz-adv-x="909" d="M66 0l184 967h270q78 0 140.5 -20.5t106.5 -56.5t67.5 -85t23.5 -107q0 -66 -20.5 -116t-56.5 -86.5t-84 -62t-103 -38.5l162 -395h-133l-150 373l-215 -13l-70 -360h-122zM279 469l165 4q129 4 208 54.5t79 160.5q0 74 -58.5 121t-174.5 47h-144z" />
<glyph unicode="s" horiz-adv-x="819" d="M27 84l26 117q68 -47 154 -80t162 -33q45 0 85 11.5t69.5 33t47 52t17.5 69.5q0 66 -53.5 107.5t-149.5 82.5q-49 20 -92 45t-75 55.5t-51.5 69.5t-19.5 91q0 68 27 121t73 88.5t106.5 54t127.5 18.5q92 0 171 -26.5t136 -61.5l-28 -119q-59 41 -138 70t-151 29 q-80 0 -138.5 -42t-60.5 -118q0 -63 56.5 -100t146.5 -78q51 -25 94 -50.5t75 -57.5t50.5 -71.5t18.5 -91.5q0 -68 -27 -121t-74 -91t-109.5 -58t-135.5 -20q-94 0 -184.5 29.5t-155.5 74.5z" />
<glyph unicode="t" horiz-adv-x="894" d="M141 854l21 113h799l-21 -113h-338l-166 -854h-125l166 854h-336z" />
<glyph unicode="u" horiz-adv-x="989" d="M102 279q0 31 5.5 61.5t9.5 54.5l110 572h125l-110 -574q-4 -20 -8.5 -44.5t-4.5 -49.5q0 -104 63.5 -155.5t176.5 -51.5t177.5 69.5t86.5 186.5l5 28q5 27 14.5 71.5t19.5 99.5t23 112q27 135 59 308h123l-62 -316q-12 -59 -22 -115.5t-19 -101.5q-8 -53 -18 -98 q-29 -166 -129 -261t-264 -95q-78 0 -144.5 17t-114.5 54t-75 93.5t-27 134.5z" />
<glyph unicode="v" horiz-adv-x="917" d="M139 967h125l137 -840l476 840h133l-561 -967h-144z" />
<glyph unicode="w" horiz-adv-x="1443" d="M190 967h127l56 -795l391 795h143l82 -795l357 795h129l-457 -967h-123l-88 815l-410 -815h-123z" />
<glyph unicode="x" horiz-adv-x="931" d="M-37 0l451 494l-250 473h141l189 -389l337 389h154l-430 -475l258 -492h-139l-205 412l-358 -412h-148z" />
<glyph unicode="y" horiz-adv-x="872" d="M150 967h131l176 -467l348 467h137l-446 -582l-74 -385h-121l76 385z" />
<glyph unicode="z" horiz-adv-x="849" d="M-18 0l16 90l700 764h-536l22 113h697l-17 -90l-694 -764h547l-23 -113h-712z" />
<glyph unicode="{" horiz-adv-x="679" d="M39 473l6 70q141 10 200.5 50t59.5 136q0 49 -16.5 98.5t-34.5 101.5t-34.5 107.5t-16.5 118.5q0 133 115.5 192.5t328.5 69.5v-94q-180 -14 -252.5 -51t-72.5 -107q0 -49 16 -100t35.5 -103.5t36 -105.5t16.5 -106q0 -106 -67.5 -183.5t-215.5 -87.5v-12 q147 -10 215 -87t68 -185q0 -53 -16.5 -105.5t-36 -105t-35.5 -102.5t-16 -95q0 -74 72.5 -111.5t252.5 -52.5v-92q-213 10 -328.5 68.5t-115.5 191.5q0 63 16.5 119.5t34.5 109t34.5 101.5t16.5 98q0 94 -59.5 134t-200.5 53z" />
<glyph unicode="|" horiz-adv-x="505" d="M197 -408v1846h112v-1846h-112z" />
<glyph unicode="}" horiz-adv-x="679" d="M33 -377q178 12 251.5 50t73.5 110q0 47 -16 98t-35.5 103.5t-36 104.5t-16.5 106q0 106 67.5 184t215.5 88v12q-147 8 -215 85t-68 186q0 53 16.5 106t36 105.5t35.5 103.5t16 98q0 70 -73.5 108t-251.5 52v94q213 -12 328.5 -70.5t115.5 -191.5q0 -63 -16.5 -119.5 t-35.5 -109t-35.5 -101.5t-16.5 -98q0 -96 60.5 -136t201.5 -50l6 -68l-6 -70q-141 -10 -201.5 -50t-60.5 -136q0 -49 16.5 -98t35.5 -101.5t35.5 -107.5t16.5 -119q0 -133 -115.5 -192.5t-328.5 -67.5v92z" />
<glyph unicode="~" horiz-adv-x="772" d="M129 377q31 104 80 168.5t133 64.5q51 0 93 -22.5t78 -49t66.5 -49t61.5 -22.5q35 0 59.5 35t47.5 94h94q-33 -104 -82 -169t-131 -65q-51 0 -93 23t-78 49.5t-67 49t-61 22.5q-37 0 -61.5 -36t-47.5 -93h-92z" />
<glyph unicode="&#xa1;" horiz-adv-x="530" d="M86 -35l225 936l72 -6l-143 -946zM303 1198q0 41 27.5 74t75.5 33q47 0 74.5 -33t27.5 -74t-27.5 -70.5t-74.5 -29.5t-75 29.5t-28 70.5z" />
<glyph unicode="&#xa2;" d="M145 412q0 104 38 203.5t105.5 176t162 124t206.5 47.5q18 0 37 -1t35 -4l66 193h86l-70 -209q98 -29 172 -88l-53 -106q-66 55 -156 83l-246 -739q14 -2 27.5 -3t28.5 -1q61 0 120.5 14.5t112.5 40.5l2 -114q-53 -27 -116.5 -41.5t-127.5 -14.5q-23 0 -43 2t-40 7 l-78 -234h-86l41 127q8 23 15 46.5t13 39.5q8 20 15 39q-121 45 -194 151.5t-73 260.5zM276 422q0 -117 46.5 -194.5t126.5 -112.5l243 733q-10 2 -21.5 2h-23.5q-86 0 -155.5 -38t-116.5 -99.5t-73 -138t-26 -152.5z" />
<glyph unicode="&#xa3;" d="M-37 70q68 12 116 30.5t82 47t55.5 71.5t33.5 105q20 113 37 243h-183l-4 95h199q8 70 17.5 134t21.5 124q37 186 142.5 288.5t277.5 102.5q92 0 170 -28t143 -77l-51 -106q-57 41 -125 69.5t-147 28.5q-63 0 -110.5 -21.5t-81.5 -58.5t-55.5 -87t-33.5 -107 q-10 -57 -20.5 -124t-18.5 -138h393l-8 -95h-397q-8 -63 -17.5 -123.5t-21.5 -119.5q-4 -25 -10.5 -47.5t-12.5 -43.5q59 -63 138 -106t151 -43q86 0 139.5 54.5t89.5 152.5l95 -29q-39 -135 -121 -214t-205 -79q-94 -2 -180 49.5t-152 122.5q-47 -76 -128 -115.5 t-208 -62.5q-4 33 -6 55q-2 20 -3 37t-1 15z" />
<glyph unicode="&#xa4;" d="M59 430l7 92h153q4 33 7 68t10 69q10 55 24 103h-119l-6 92h152q35 98 84 178t113.5 138.5t143.5 90t171 31.5t184 -27.5t154 -74.5l-52 -107q-57 45 -138 71t-156 26q-131 0 -223.5 -86t-147.5 -240h483l-6 -92h-506q-6 -25 -12 -50.5t-10 -52.5q-8 -35 -12.5 -70.5 t-8.5 -66.5h414l6 -92h-422q2 -168 79 -258t251 -90q125 0 223 43l-2 -113q-51 -23 -109.5 -32t-121.5 -11q-229 0 -341 117t-110 344h-156z" />
<glyph unicode="&#xa5;" d="M39 268l18 92h361l37 181h-355l4 94h324l-281 645h140l254 -612l477 612h149l-262 -324q-49 -61 -96 -118.5t-84 -102.5q-43 -53 -82 -100h313l-18 -94h-358l-37 -181h352l-4 -92h-365l-51 -268h-127l51 268h-360z" />
<glyph unicode="&#xa7;" d="M90 -16l57 106q59 -53 137 -85t156 -32q35 0 73 8.5t69.5 27t52 47t20.5 69.5q0 39 -20.5 69.5t-56 55t-82.5 47t-101 45.5q-53 23 -105 47.5t-93 56t-66 70.5t-25 92q0 57 28 103.5t72 80t98 55t106 30.5q-41 31 -68 73.5t-27 102.5q0 63 26 113.5t69 83t100 50 t119 17.5q90 0 175 -26.5t154 -71.5l-55 -107q-59 41 -133 68.5t-147 27.5q-31 0 -65 -7t-60.5 -23.5t-44 -43t-17.5 -65.5t19.5 -68.5t54.5 -53t82 -45t100 -44.5q55 -23 107.5 -48.5t93.5 -58t66.5 -73.5t25.5 -94q0 -59 -26.5 -105.5t-68.5 -80t-95.5 -55t-104.5 -32.5 q39 -29 62.5 -71.5t23.5 -96.5q0 -68 -28.5 -120t-75.5 -87.5t-108.5 -54t-125.5 -18.5q-92 0 -188 33.5t-160 87.5zM223 633q0 -41 30 -74t73 -57.5t88 -44t75 -31.5q35 -16 70 -29.5t70 -34.5q33 10 74.5 27t77.5 41.5t60.5 56t24.5 74.5q0 41 -28.5 74t-69.5 58.5t-86 44 t-76 30.5q-35 16 -68.5 29.5t-68.5 31.5q-33 -10 -76 -25.5t-81 -39t-63.5 -56t-25.5 -75.5z" />
<glyph unicode="&#xa8;" horiz-adv-x="772" d="M260 1214q0 41 26.5 71t69.5 30q45 0 72 -30t27 -71t-27 -71.5t-72 -30.5q-43 0 -69.5 31t-26.5 71zM653 1214q0 41 28 71t73 30q43 0 69.5 -30t26.5 -71t-26.5 -71.5t-69.5 -30.5q-45 0 -73 31t-28 71z" />
<glyph unicode="&#xa9;" horiz-adv-x="1492" d="M121 637q0 139 52 261t143.5 213t213 144.5t261.5 53.5q139 0 261 -53.5t213 -144.5t143 -213t52 -261t-52 -261t-143 -212t-213 -143.5t-261 -53.5t-261 53.5t-213.5 143.5t-143.5 212t-52 261zM180 637q0 -127 48 -237.5t131 -194.5t194 -132t238 -48t237.5 48 t193.5 132t131 194.5t48 237.5q0 125 -48 237.5t-131 196.5t-193.5 133t-237.5 49t-238 -49t-194 -133t-131 -196.5t-48 -237.5zM455 635q0 86 26.5 156.5t74.5 121t115.5 77t147.5 26.5q63 0 125 -15.5t105 -44.5l-35 -92q-88 57 -195 58q-117 0 -187.5 -74t-70.5 -209 q0 -131 70.5 -209t189.5 -78q57 0 109.5 18.5t91.5 47.5l20 -101q-43 -29 -102 -44t-123 -15q-80 0 -147.5 26.5t-114.5 76t-73.5 119t-26.5 155.5z" />
<glyph unicode="&#xaa;" horiz-adv-x="694" d="M88 707q0 63 29.5 114t90 88t154 56.5t220.5 17.5l10 45q18 90 -18.5 137t-129.5 47q-59 0 -115.5 -21.5t-109.5 -49.5l-22 90q55 31 121.5 53.5t138.5 22.5q57 0 107 -14.5t85 -47.5t48.5 -87t-3.5 -134l-59 -295q-14 -66 0 -114t37 -80l-109 -23q-35 41 -41 115h-4 q-20 -20 -46 -40t-56.5 -36t-63.5 -26.5t-65 -10.5q-90 0 -144.5 58.5t-54.5 134.5zM193 719q0 -51 37.5 -81t91.5 -30q57 0 112 28t92 60l41 209q-111 -2 -182.5 -18.5t-114.5 -42t-60 -58t-17 -67.5z" />
<glyph unicode="&#xab;" horiz-adv-x="1177" d="M43 414l27 131l557 348l-11 -107l-452 -317v-2l338 -322l-37 -82zM578 412l26 135l570 356l-13 -110l-461 -324v-2l347 -328l-37 -86z" />
<glyph unicode="&#xac;" horiz-adv-x="942" d="M-53 0l567 967h148l169 -967h-124l-45 256h-435l-145 -256h-135zM289 367h354l-74 479z" />
<glyph unicode="&#xad;" horiz-adv-x="598" d="M74 438v119h463v-119h-463z" />
<glyph unicode="&#xae;" horiz-adv-x="1492" d="M121 637q0 139 52 261t143.5 213t213 144.5t261.5 53.5q139 0 261 -53.5t213 -144.5t143 -213t52 -261t-52 -261t-143 -212t-213 -143.5t-261 -53.5t-261 53.5t-213.5 143.5t-143.5 212t-52 261zM180 637q0 -127 48 -237.5t131 -194.5t194 -132t238 -48t237.5 48 t193.5 132t131 194.5t48 237.5q0 125 -48 237.5t-131 196.5t-193.5 133t-237.5 49t-238 -49t-194 -133t-131 -196.5t-48 -237.5zM549 283v725h233q137 0 207 -59.5t70 -164.5q0 -80 -39 -132t-105 -77l183 -292h-119l-166 268l-162 -8v-260h-102zM649 631l129 4q90 2 134 40 t44 103q0 137 -184 137h-123v-284z" />
<glyph unicode="&#xaf;" horiz-adv-x="813" d="M272 1098l25 92h508l-8 -92h-525z" />
<glyph unicode="&#xb0;" horiz-adv-x="729" d="M166 979q0 66 25.5 126t70.5 105t105.5 72t128.5 27q61 0 112 -19.5t88 -54.5t57.5 -85.5t20.5 -111.5q0 -68 -25.5 -127t-70.5 -104t-106.5 -70.5t-131.5 -25.5q-123 0 -198.5 72.5t-75.5 195.5zM252 985q0 -90 56.5 -141t144.5 -51q49 0 92 19t74.5 52t50 76t18.5 92 q0 92 -56.5 142.5t-144.5 50.5q-49 0 -92 -19.5t-74.5 -51.5t-50 -76t-18.5 -93z" />
<glyph unicode="&#xb1;" horiz-adv-x="1492" d="M121 637q0 139 52 261t143.5 213t213 144.5t261.5 53.5q139 0 261 -53.5t213 -144.5t143 -213t52 -261t-52 -261t-143 -213t-213 -143.5t-261 -52.5t-261 52.5t-213.5 143.5t-143.5 213t-52 261zM180 637q0 -127 48 -237.5t131 -194.5t194 -132t238 -48t237.5 48 t193.5 132t131 194.5t48 237.5q0 125 -48 237.5t-131 196.5t-193.5 133t-237.5 49t-238 -49t-194 -133t-131 -196.5t-48 -237.5zM588 262v725h219q147 0 218 -64.5t71 -168.5q0 -125 -79 -187.5t-220 -62.5h-107v-242h-102zM690 596h115q186 4 186 154q0 145 -188 145h-113 v-299z" />
<glyph unicode="&#xb2;" horiz-adv-x="675" d="M16 559q-2 0 0 15.5t4 33.5q2 23 7 49q113 86 204 150.5t154.5 118t97 103.5t33.5 106q0 61 -46 93t-110 32q-53 0 -105 -19.5t-93 -48.5l-25 82q51 35 114.5 55.5t125.5 20.5q49 0 95 -13.5t81 -39t56.5 -63.5t21.5 -87q0 -68 -34 -124t-97.5 -111.5t-153.5 -118 t-201 -144.5h424l-10 -90h-543z" />
<glyph unicode="&#xb3;" horiz-adv-x="675" d="M31 610l32 88q47 -29 106.5 -48t117.5 -19q37 0 72.5 9t63.5 27.5t44 47t16 65.5t-17 61.5t-47 40t-67 22.5t-76 7q-23 0 -44 -1t-42 -3l13 78q39 6 93 16.5t103.5 29t84 48t34.5 74.5q0 59 -46 84t-103 25q-53 0 -106.5 -17.5t-94.5 -40.5l-25 82q49 29 110.5 46.5 t127.5 17.5q43 0 88 -9.5t80 -31t57.5 -55t22.5 -80.5t-22.5 -82t-57.5 -60.5t-79 -42t-89 -24.5q43 -4 81 -16.5t67.5 -35t47 -54.5t17.5 -75q0 -55 -25.5 -99t-67.5 -74.5t-98.5 -48t-117.5 -17.5t-133 17.5t-121 47.5z" />
<glyph unicode="&#xb4;" horiz-adv-x="811" d="M377 1061l315 366h168l-383 -366h-100z" />
<glyph unicode="&#xb5;" horiz-adv-x="1013" d="M90 410q0 119 39 224t111.5 183t175 124t231.5 46q152 0 305 -59l-28 -119q-70 33 -143.5 50.5t-143.5 17.5q-98 0 -177 -37t-133.5 -100.5t-83 -146.5t-26.5 -175q2 -156 93 -243t243 -87q47 0 92 10.5t86 26.5l53 254h-256l25 115h373l-86 -445q-66 -33 -145 -51 t-154 -18q-100 0 -183.5 29.5t-142.5 85t-92 135t-33 180.5z" />
<glyph unicode="&#xb6;" d="M168 860q0 98 39 176t105.5 132.5t156.5 82t193 27.5h335l-278 -1411h-113l133 661q-20 -4 -57 -5t-66 -1q-90 0 -170.5 21.5t-142 64.5t-98.5 105.5t-37 146.5z" />
<glyph unicode="&#xb7;" horiz-adv-x="382" d="M94 469q0 41 29 71.5t76 30.5q45 0 72.5 -30.5t27.5 -71.5t-27.5 -74t-72.5 -33q-47 0 -76 33t-29 74z" />
<glyph unicode="&#xb8;" horiz-adv-x="813" d="M135 -522l4 88q129 -4 195.5 29.5t66.5 93.5q0 57 -65.5 80.5t-185.5 13.5v61l270 217h108l-241 -196q100 -6 160.5 -50t60.5 -118q0 -90 -93 -153.5t-280 -65.5z" />
<glyph unicode="&#xb9;" horiz-adv-x="675" d="M215 1182l14 90l310 69l-166 -782h-105l140 664z" />
<glyph unicode="&#xba;" horiz-adv-x="868" d="M150 858q0 86 29.5 167t84.5 143.5t132 99.5t169 37q74 0 135.5 -27t105.5 -73t68.5 -108t24.5 -136q0 -88 -30.5 -169t-86 -142.5t-132.5 -98.5t-169 -37q-74 0 -135 25.5t-105 71.5t-67.5 109.5t-23.5 137.5zM250 864q0 -115 64.5 -187.5t179.5 -72.5q70 0 126 31 t96 81t60.5 113.5t20.5 126.5q0 113 -64.5 187t-177.5 74q-72 0 -128 -32t-96 -82t-60.5 -112.5t-20.5 -126.5z" />
<glyph unicode="&#xbb;" horiz-adv-x="1183" d="M12 53l13 113l460 321v2l-344 330l37 86l434 -360l-26 -135zM561 66l10 106l451 315v2l-336 324l37 80l422 -350l-27 -129z" />
<glyph unicode="&#xbc;" horiz-adv-x="1464" d="M-10 -238l1394 1518h111l-1393 -1518h-112zM256 1182l14 90l310 69l-166 -782h-105l140 664zM774 -27l488 512h120l-104 -499h123l-15 -84h-126l-41 -197h-101l41 197h-385v71zM889 -14h289l84 391z" />
<glyph unicode="&#xbd;" horiz-adv-x="1464" d="M-10 -238l1394 1518h111l-1393 -1518h-112zM256 1182l14 90l310 69l-166 -782h-105l140 664zM764 -277.5q2 15.5 4 33.5q2 23 6 49q113 86 204 150.5t154.5 118t97.5 103.5t34 106q0 61 -46.5 93t-109.5 32q-53 0 -105.5 -19.5t-93.5 -48.5l-24 82q51 35 114.5 55.5 t124.5 20.5q49 0 95.5 -13.5t81 -39t56 -63.5t21.5 -87q0 -68 -33.5 -124t-97 -111.5t-153.5 -118t-201 -144.5h424l-10 -90h-543q-2 0 0 15.5z" />
<glyph unicode="&#xbe;" horiz-adv-x="1464" d="M-10 -238l1394 1518h111l-1393 -1518h-112zM72 610l32 88q47 -29 106.5 -48t117.5 -19q37 0 72.5 9t63.5 27.5t44 47t16 65.5t-17.5 61.5t-47 40t-66.5 22.5t-76 7q-23 0 -44 -1t-42 -3l13 78q39 6 93 16.5t103 29t84 48t35 74.5q0 59 -46 84t-103 25q-53 0 -106.5 -17.5 t-94.5 -40.5l-25 82q49 29 110.5 46.5t127.5 17.5q43 0 88 -9.5t80 -31t57.5 -55t22.5 -80.5t-22.5 -82t-57.5 -60.5t-79 -42t-89 -24.5q43 -4 81 -16.5t67.5 -35t47 -54.5t17.5 -75q0 -55 -25.5 -99t-67.5 -74.5t-98.5 -48t-117.5 -17.5t-133 17.5t-121 47.5zM774 -27 l488 512h120l-104 -499h123l-15 -84h-126l-41 -197h-101l41 197h-385v71zM889 -14h289l84 391z" />
<glyph unicode="&#xbf;" horiz-adv-x="714" d="M49 285q0 72 23.5 122t61.5 83.5t87 56t98 39.5q98 29 146.5 57.5t48.5 87.5q0 41 -28.5 82t-65.5 76l74 16q47 -35 83.5 -85t36.5 -109q0 -47 -18 -82t-51 -60.5t-77 -45t-95 -36.5q-96 -31 -155.5 -70.5t-59.5 -121.5q0 -53 26.5 -92t67.5 -63.5t90 -37t96 -12.5 q61 0 105 6l-23 -119q-20 -4 -44.5 -6t-51.5 -2q-80 0 -147.5 23.5t-119 66.5t-80 100.5t-28.5 125.5zM455 1198q0 41 27.5 74t74.5 33t74.5 -33t27.5 -74t-27.5 -70.5t-74.5 -29.5t-74.5 29.5t-27.5 70.5z" />
<glyph unicode="&#xc0;" horiz-adv-x="1185" d="M-70 0l754 1278h152l229 -1278h-131l-62 356h-593l-205 -356h-144zM348 475h504l-115 670zM504 1769h164l170 -366h-95z" />
<glyph unicode="&#xc1;" horiz-adv-x="1185" d="M-70 0l754 1278h152l229 -1278h-131l-62 356h-593l-205 -356h-144zM348 475h504l-115 670zM715 1403l315 366h168l-383 -366h-100z" />
<glyph unicode="&#xc2;" horiz-adv-x="1185" d="M-70 0l754 1278h152l229 -1278h-131l-62 356h-593l-205 -356h-144zM348 475h504l-115 670zM459 1403l305 373h143l160 -373h-106l-138 276h-4l-241 -276h-119z" />
<glyph unicode="&#xc3;" horiz-adv-x="1185" d="M-70 0l754 1278h152l229 -1278h-131l-62 356h-593l-205 -356h-144zM348 475h504l-115 670zM432 1425q31 104 80 169t133 65q51 0 93 -22.5t78 -49t66.5 -49t61.5 -22.5q35 0 59.5 34.5t47.5 94.5h94q-33 -104 -82 -169t-131 -65q-51 0 -93 22.5t-78 49t-66.5 49 t-61.5 22.5q-37 0 -61.5 -35.5t-47.5 -93.5h-92z" />
<glyph unicode="&#xc4;" horiz-adv-x="1185" d="M-70 0l754 1278h152l229 -1278h-131l-62 356h-593l-205 -356h-144zM348 475h504l-115 670zM502 1556q0 41 26.5 71t69.5 30q45 0 71.5 -30t26.5 -71t-26.5 -71.5t-71.5 -30.5q-43 0 -69.5 31t-26.5 71zM895 1556q0 41 27.5 71t72.5 30q43 0 70 -30t27 -71t-27 -71.5 t-70 -30.5q-45 0 -72.5 31t-27.5 71z" />
<glyph unicode="&#xc5;" horiz-adv-x="1185" d="M-66 0l719 1223q-53 23 -85.5 69.5t-32.5 106.5q0 49 19 89t53 69.5t79 46t98 16.5q100 0 169 -57.5t69 -149.5q0 -76 -47 -130t-125 -73l217 -1210h-131l-62 356h-591l-205 -356h-144zM352 475h502l-115 672zM627 1403q0 -57 42 -94t103 -37q70 0 115 40t45 99t-42 97 t-106 38q-68 0 -112.5 -41t-44.5 -102z" />
<glyph unicode="&#xc6;" horiz-adv-x="1677" d="M-92 0l983 1280h848l-23 -121h-643l-88 -457h535l-23 -120h-536l-91 -461h643l-22 -121h-774l69 356h-460l-273 -356h-145zM418 477h393l133 688z" />
<glyph unicode="&#xc7;" horiz-adv-x="1196" d="M109 541q0 156 51 294t145 242.5t228.5 166t300.5 61.5q98 0 197 -20.5t198 -59.5l-25 -125q-88 41 -187 64.5t-192 23.5q-137 0 -245.5 -52.5t-183 -139.5t-114.5 -202.5t-40 -240.5q0 -111 32.5 -196t93 -144t145.5 -90t189 -31q82 0 166 21.5t156 58.5l27 -117 q-74 -37 -169.5 -58.5t-179.5 -23.5l-133 -108q100 -6 161 -50t61 -118q0 -90 -93.5 -153.5t-279.5 -65.5l4 88q129 -4 195.5 29.5t66.5 93.5q0 57 -65.5 80.5t-186.5 13.5v61l168 136q-111 12 -202 57t-155.5 117.5t-99 170t-34.5 216.5z" />
<glyph unicode="&#xc8;" horiz-adv-x="1038" d="M74 0l250 1280h772l-23 -121h-643l-88 -459h537l-25 -118h-535l-90 -461h641l-22 -121h-774zM418 1769h164l170 -366h-95z" />
<glyph unicode="&#xc9;" horiz-adv-x="1038" d="M74 0l250 1280h772l-23 -121h-643l-88 -459h537l-25 -118h-535l-90 -461h641l-22 -121h-774zM625 1403l315 366h168l-383 -366h-100z" />
<glyph unicode="&#xca;" horiz-adv-x="1038" d="M74 0l250 1280h772l-23 -121h-643l-88 -459h537l-25 -118h-535l-90 -461h641l-22 -121h-774zM416 1403l305 373h143l160 -373h-106l-138 276h-4l-241 -276h-119z" />
<glyph unicode="&#xcb;" horiz-adv-x="1038" d="M74 0l250 1280h772l-23 -121h-643l-88 -459h537l-25 -118h-535l-90 -461h641l-22 -121h-774zM434 1556q0 41 26.5 71t69.5 30q45 0 72 -30t27 -71t-27 -71.5t-72 -30.5q-43 0 -69.5 31t-26.5 71zM827 1556q0 41 28 71t73 30q43 0 69.5 -30t26.5 -71t-26.5 -71.5 t-69.5 -30.5q-45 0 -73 31t-28 71z" />
<glyph unicode="&#xcc;" horiz-adv-x="466" d="M76 0l248 1280h131l-250 -1280h-129zM125 1769h164l170 -366h-94z" />
<glyph unicode="&#xcd;" horiz-adv-x="466" d="M76 0l248 1280h131l-250 -1280h-129zM348 1403l316 366h167l-382 -366h-101z" />
<glyph unicode="&#xce;" horiz-adv-x="466" d="M76 0l248 1280h131l-250 -1280h-129zM88 1403l305 373h144l159 -373h-106l-137 276h-4l-242 -276h-119z" />
<glyph unicode="&#xcf;" horiz-adv-x="466" d="M76 0l248 1280h131l-250 -1280h-129zM133 1556q0 41 26.5 71t69.5 30q45 0 72 -30t27 -71t-27 -71.5t-72 -30.5q-43 0 -69.5 31t-26.5 71zM526 1556q0 41 28 71t73 30q43 0 69.5 -30t26.5 -71t-26.5 -71.5t-69.5 -30.5q-45 0 -73 31t-28 71z" />
<glyph unicode="&#xd0;" horiz-adv-x="1304" d="M68 588v114h163q10 43 19 91q8 41 18.5 92t20.5 106q25 127 55 289h274q129 0 241 -35t195 -103.5t130 -171t47 -235.5q0 -150 -48 -283t-144.5 -233t-242 -159.5t-341.5 -59.5h-359l115 588h-143zM252 121h225q129 0 241.5 39t195.5 113.5t131.5 186t48.5 257.5 q0 109 -35 190.5t-99.5 138t-155.5 85t-204 28.5h-147l-88 -457h362v-114h-385z" />
<glyph unicode="&#xd1;" horiz-adv-x="1320" d="M74 0l245 1280h160l502 -1122l211 1122h127l-248 -1292h-153l-506 1134l-211 -1122h-127zM500 1425q31 104 80 169t133 65q51 0 93 -22.5t78 -49t66.5 -49t61.5 -22.5q35 0 59.5 34.5t46.5 94.5h94q-33 -104 -82 -169t-131 -65q-51 0 -93 22.5t-77.5 49t-66.5 49 t-62 22.5q-37 0 -61.5 -35.5t-46.5 -93.5h-92z" />
<glyph unicode="&#xd2;" horiz-adv-x="1439" d="M113 565q0 147 53 281.5t147.5 237t225.5 163t284 60.5q125 0 231.5 -43t184.5 -121t121 -186.5t43 -237.5q0 -147 -53.5 -281.5t-148.5 -238t-224 -165t-283 -61.5q-127 0 -233.5 44t-184 122t-120.5 187.5t-43 238.5zM246 573q0 -104 33.5 -193t94 -153.5t145.5 -100.5 t190 -36q127 0 230 53.5t177 139.5t114 197.5t40 228.5q0 104 -34 193t-94.5 152.5t-145.5 99.5t-189 36q-127 0 -230.5 -52.5t-177 -138.5t-113.5 -197.5t-40 -228.5zM557 1769h164l170 -366h-94z" />
<glyph unicode="&#xd3;" horiz-adv-x="1439" d="M113 565q0 147 53 281.5t147.5 237t225.5 163t284 60.5q125 0 231.5 -43t184.5 -121t121 -186.5t43 -237.5q0 -147 -53.5 -281.5t-148.5 -238t-224 -165t-283 -61.5q-127 0 -233.5 44t-184 122t-120.5 187.5t-43 238.5zM246 573q0 -104 33.5 -193t94 -153.5t145.5 -100.5 t190 -36q127 0 230 53.5t177 139.5t114 197.5t40 228.5q0 104 -34 193t-94.5 152.5t-145.5 99.5t-189 36q-127 0 -230.5 -52.5t-177 -138.5t-113.5 -197.5t-40 -228.5zM801 1403l315 366h168l-383 -366h-100z" />
<glyph unicode="&#xd4;" horiz-adv-x="1439" d="M113 565q0 147 53 281.5t147.5 237t225.5 163t284 60.5q125 0 231.5 -43t184.5 -121t121 -186.5t43 -237.5q0 -147 -53.5 -281.5t-148.5 -238t-224 -165t-283 -61.5q-127 0 -233.5 44t-184 122t-120.5 187.5t-43 238.5zM246 573q0 -104 33.5 -193t94 -153.5t145.5 -100.5 t190 -36q127 0 230 53.5t177 139.5t114 197.5t40 228.5q0 104 -34 193t-94.5 152.5t-145.5 99.5t-189 36q-127 0 -230.5 -52.5t-177 -138.5t-113.5 -197.5t-40 -228.5zM565 1403l305 373h144l160 -373h-107l-137 276h-4l-242 -276h-119z" />
<glyph unicode="&#xd5;" horiz-adv-x="1439" d="M113 565q0 147 53 281.5t147.5 237t225.5 163t284 60.5q125 0 231.5 -43t184.5 -121t121 -186.5t43 -237.5q0 -147 -53.5 -281.5t-148.5 -238t-224 -165t-283 -61.5q-127 0 -233.5 44t-184 122t-120.5 187.5t-43 238.5zM246 573q0 -104 33.5 -193t94 -153.5t145.5 -100.5 t190 -36q127 0 230 53.5t177 139.5t114 197.5t40 228.5q0 104 -34 193t-94.5 152.5t-145.5 99.5t-189 36q-127 0 -230.5 -52.5t-177 -138.5t-113.5 -197.5t-40 -228.5zM539 1425q31 104 80 169t133 65q51 0 93 -22.5t77.5 -49t66.5 -49t62 -22.5q35 0 59.5 34.5t46.5 94.5 h94q-33 -104 -82 -169t-131 -65q-51 0 -93 22.5t-78 49t-66.5 49t-61.5 22.5q-37 0 -61.5 -35.5t-46.5 -93.5h-92z" />
<glyph unicode="&#xd6;" horiz-adv-x="1439" d="M113 565q0 147 53 281.5t147.5 237t225.5 163t284 60.5q125 0 231.5 -43t184.5 -121t121 -186.5t43 -237.5q0 -147 -53.5 -281.5t-148.5 -238t-224 -165t-283 -61.5q-127 0 -233.5 44t-184 122t-120.5 187.5t-43 238.5zM246 573q0 -104 33.5 -193t94 -153.5t145.5 -100.5 t190 -36q127 0 230 53.5t177 139.5t114 197.5t40 228.5q0 104 -34 193t-94.5 152.5t-145.5 99.5t-189 36q-127 0 -230.5 -52.5t-177 -138.5t-113.5 -197.5t-40 -228.5zM629 1556q0 41 26.5 71t69.5 30q45 0 71.5 -30t26.5 -71t-26.5 -71.5t-71.5 -30.5q-43 0 -69.5 31 t-26.5 71zM1022 1556q0 41 27.5 71t72.5 30q43 0 70 -30t27 -71t-27 -71.5t-70 -30.5q-45 0 -72.5 31t-27.5 71z" />
<glyph unicode="&#xd7;" horiz-adv-x="995" d="M80 289l346 346l-346 344l76 76l346 -346l346 348l76 -76l-349 -346l347 -346l-76 -76l-344 346l-346 -346z" />
<glyph unicode="&#xd8;" horiz-adv-x="1439" d="M86 -137l209 262q-84 78 -132 190.5t-48 247.5q0 147 53 281.5t147.5 238t224.5 164t283 60.5q197 0 338 -101l170 211h113l-213 -266q82 -78 128 -187.5t46 -242.5q0 -147 -53.5 -282.5t-147.5 -239t-223 -165t-283 -61.5q-96 0 -180 26t-153 71l-166 -207h-113z M248 573q0 -106 34.5 -194t94.5 -152l706 881q-117 82 -272 82q-127 0 -231.5 -52.5t-178 -138.5t-113.5 -197.5t-40 -228.5zM444 170q115 -80 267 -80q127 0 230 53.5t177 139.5t114 197.5t40 228.5q0 104 -32 190t-91 152z" />
<glyph unicode="&#xd9;" horiz-adv-x="1232" d="M125 352q0 51 7 100.5t13 82.5l148 745h129l-146 -750q-6 -29 -13 -68.5t-7 -84.5q0 -135 88 -209t252 -74q154 0 246 98.5t125 260.5l161 827h129l-161 -842q-41 -215 -168 -340t-340 -125q-102 0 -187.5 26t-146.5 74t-95 118.5t-34 160.5zM496 1769h163l170 -366h-94z " />
<glyph unicode="&#xda;" horiz-adv-x="1232" d="M125 352q0 51 7 100.5t13 82.5l148 745h129l-146 -750q-6 -29 -13 -68.5t-7 -84.5q0 -135 88 -209t252 -74q154 0 246 98.5t125 260.5l161 827h129l-161 -842q-41 -215 -168 -340t-340 -125q-102 0 -187.5 26t-146.5 74t-95 118.5t-34 160.5zM709 1403l315 366h168 l-383 -366h-100z" />
<glyph unicode="&#xdb;" horiz-adv-x="1232" d="M125 352q0 51 7 100.5t13 82.5l148 745h129l-146 -750q-6 -29 -13 -68.5t-7 -84.5q0 -135 88 -209t252 -74q154 0 246 98.5t125 260.5l161 827h129l-161 -842q-41 -215 -168 -340t-340 -125q-102 0 -187.5 26t-146.5 74t-95 118.5t-34 160.5zM483 1403l305 373h144 l160 -373h-107l-137 276h-4l-242 -276h-119z" />
<glyph unicode="&#xdc;" horiz-adv-x="1232" d="M125 352q0 51 7 100.5t13 82.5l148 745h129l-146 -750q-6 -29 -13 -68.5t-7 -84.5q0 -135 88 -209t252 -74q154 0 246 98.5t125 260.5l161 827h129l-161 -842q-41 -215 -168 -340t-340 -125q-102 0 -187.5 26t-146.5 74t-95 118.5t-34 160.5zM514 1556q0 41 26.5 71 t69.5 30q45 0 72 -30t27 -71t-27 -71.5t-72 -30.5q-43 0 -69.5 31t-26.5 71zM907 1556q0 41 28 71t73 30q43 0 69.5 -30t26.5 -71t-26.5 -71.5t-69.5 -30.5q-45 0 -73 31t-28 71z" />
<glyph unicode="&#xdd;" horiz-adv-x="1073" d="M184 1280h140l245 -643l482 643h153l-594 -770l-100 -510h-127l100 518zM614 1403l316 366h168l-383 -366h-101z" />
<glyph unicode="&#xde;" horiz-adv-x="1062" d="M74 0l248 1280h131l-43 -219h178q111 0 193.5 -31t138 -81t83 -115.5t27.5 -135.5q0 -104 -37 -190t-109.5 -148.5t-180 -96.5t-246.5 -34h-207l-47 -229h-129zM272 350h203q104 0 183 24.5t131.5 68.5t78 103.5t25.5 131.5q0 113 -82 187.5t-242 74.5h-182z" />
<glyph unicode="&#xdf;" horiz-adv-x="1636" d="M27 84l26 117q68 -47 154 -80t162 -33q45 0 85 11.5t69.5 33t47 52t17.5 69.5q0 66 -53.5 107.5t-149.5 82.5q-49 20 -92 45t-75 55.5t-51.5 69.5t-19.5 91q0 68 27 121t73 88.5t106.5 54t127.5 18.5q92 0 171 -26.5t136 -61.5l-28 -119q-59 41 -138 70t-151 29 q-80 0 -138.5 -42t-60.5 -118q0 -63 56.5 -100t146.5 -78q51 -25 94 -50.5t75 -57.5t50.5 -71.5t18.5 -91.5q0 -68 -27 -121t-74 -91t-109.5 -58t-135.5 -20q-94 0 -184.5 29.5t-155.5 74.5zM844 84l28 117q68 -47 154 -80t160 -33q45 0 85 11.5t70.5 33t48 52t17.5 69.5 q0 66 -53.5 107.5t-149.5 82.5q-49 20 -92 45t-74.5 55.5t-51 69.5t-19.5 91q0 68 26.5 121t72.5 88.5t105.5 54t126.5 18.5q92 0 171 -26.5t139 -61.5l-31 -119q-59 41 -137 70t-150 29q-80 0 -139 -42t-59 -118q0 -31 14 -55.5t41 -45t63.5 -39t81.5 -38.5 q51 -25 95.5 -50.5t76 -57.5t50 -71.5t18.5 -91.5q0 -68 -26.5 -121t-74 -91t-111 -58t-136.5 -20q-94 0 -184.5 29.5t-155.5 74.5z" />
<glyph unicode="&#xe0;" horiz-adv-x="942" d="M-53 0l567 967h148l169 -967h-124l-45 256h-435l-145 -256h-135zM289 367h354l-74 479zM303 1427h164l170 -366h-94z" />
<glyph unicode="&#xe1;" horiz-adv-x="942" d="M-53 0l567 967h148l169 -967h-124l-45 256h-435l-145 -256h-135zM289 367h354l-74 479zM535 1061l315 366h168l-383 -366h-100z" />
<glyph unicode="&#xe2;" horiz-adv-x="942" d="M-53 0l567 967h148l169 -967h-124l-45 256h-435l-145 -256h-135zM285 1061l305 373h143l160 -373h-107l-137 276h-4l-242 -276h-118zM289 367h354l-74 479z" />
<glyph unicode="&#xe3;" horiz-adv-x="942" d="M-53 0l567 967h148l169 -967h-124l-45 256h-435l-145 -256h-135zM258 1083q31 104 80 169t133 65q51 0 93 -22.5t78 -49t66.5 -49t61.5 -22.5q35 0 59.5 34.5t47.5 94.5h94q-33 -104 -82 -169t-131 -65q-51 0 -93 22.5t-78 49t-67 49t-61 22.5q-37 0 -61.5 -35.5 t-47.5 -93.5h-92zM289 367h354l-74 479z" />
<glyph unicode="&#xe4;" horiz-adv-x="942" d="M-53 0l567 967h148l169 -967h-124l-45 256h-435l-145 -256h-135zM289 367h354l-74 479zM336 1214q0 41 26.5 71t69.5 30q45 0 71.5 -30t26.5 -71t-26.5 -71.5t-71.5 -30.5q-43 0 -69.5 31t-26.5 71zM729 1214q0 41 27.5 71t72.5 30q43 0 70 -30t27 -71t-27 -71.5 t-70 -30.5q-45 0 -72.5 31t-27.5 71z" />
<glyph unicode="&#xe5;" horiz-adv-x="942" d="M-53 0l538 915q-57 23 -91 69t-34 110q0 49 19.5 89t53.5 69.5t79 46t98 16.5q100 0 168 -56.5t68 -148.5q0 -78 -48 -132t-126 -75l159 -903h-124l-45 256h-435l-145 -256h-135zM289 367h354l-74 479zM451 1100q0 -59 42 -96t105 -37q70 0 115 40t45 101q0 59 -42 96 t-108 37q-68 0 -112.5 -41t-44.5 -100z" />
<glyph unicode="&#xe6;" horiz-adv-x="1294" d="M-53 0l704 936h658l-19 -109h-467l-57 -305h389l-22 -108h-388l-59 -305h465l-21 -109h-587l51 246h-326l-186 -246h-135zM346 356h268l95 480z" />
<glyph unicode="&#xe7;" horiz-adv-x="950" d="M90 410q0 119 39 224t111.5 183t176 124t230.5 46q74 0 149.5 -15.5t151.5 -43.5l-26 -117q-70 29 -145 47.5t-140 18.5q-98 0 -176 -37t-132.5 -100.5t-83 -146.5t-28.5 -175q2 -154 93 -241t241 -87q131 0 242 62l6 -119q-57 -25 -126 -39t-134 -14h-13l-141 -115 q100 -6 160.5 -50t60.5 -118q0 -90 -93 -153.5t-280 -65.5l5 88q129 -4 195.5 29.5t66.5 93.5q0 57 -65.5 80.5t-186.5 13.5v61l180 146q-154 29 -246 137.5t-92 282.5z" />
<glyph unicode="&#xe8;" horiz-adv-x="839" d="M66 0l184 967h604l-20 -111h-480l-61 -315h401l-20 -113h-404l-63 -317h483l-22 -111h-602zM285 1427h164l169 -366h-94z" />
<glyph unicode="&#xe9;" horiz-adv-x="839" d="M66 0l184 967h604l-20 -111h-480l-61 -315h401l-20 -113h-404l-63 -317h483l-22 -111h-602zM483 1061l316 366h168l-383 -366h-101z" />
<glyph unicode="&#xea;" horiz-adv-x="839" d="M66 0l184 967h604l-20 -111h-480l-61 -315h401l-20 -113h-404l-63 -317h483l-22 -111h-602zM260 1061l305 373h144l159 -373h-106l-137 276h-4l-242 -276h-119z" />
<glyph unicode="&#xeb;" horiz-adv-x="839" d="M66 0l184 967h604l-20 -111h-480l-61 -315h401l-20 -113h-404l-63 -317h483l-22 -111h-602zM287 1214q0 41 26.5 71t69.5 30q45 0 71.5 -30t26.5 -71t-26.5 -71.5t-71.5 -30.5q-43 0 -69.5 31t-26.5 71zM680 1214q0 41 27.5 71t72.5 30q43 0 70 -30t27 -71t-27 -71.5 t-70 -30.5q-45 0 -72.5 31t-27.5 71z" />
<glyph unicode="&#xec;" horiz-adv-x="409" d="M57 1427h164l170 -366h-94zM66 0l188 967h123l-189 -967h-122z" />
<glyph unicode="&#xed;" horiz-adv-x="409" d="M66 0l188 967h123l-189 -967h-122zM268 1061l316 366h168l-383 -366h-101z" />
<glyph unicode="&#xee;" horiz-adv-x="409" d="M18 1061l306 373h143l160 -373h-107l-137 276h-4l-242 -276h-119zM66 0l188 967h123l-189 -967h-122z" />
<glyph unicode="&#xef;" horiz-adv-x="409" d="M57 1214q0 41 27 71t70 30q45 0 71.5 -30t26.5 -71t-26.5 -71.5t-71.5 -30.5q-43 0 -70 31t-27 71zM66 0l188 967h123l-189 -967h-122zM451 1214q0 41 27.5 71t72.5 30q43 0 69.5 -30t26.5 -71t-26.5 -71.5t-69.5 -30.5q-45 0 -72.5 31t-27.5 71z" />
<glyph unicode="&#xf0;" horiz-adv-x="1064" d="M51 432v113h160l80 422h227q96 0 181 -27t147.5 -78t99.5 -129t37 -178q0 -111 -36 -212t-109.5 -177t-184 -121t-260.5 -45h-287l82 432h-137zM250 111h164q92 0 172 27.5t139 82.5t93 135.5t34 184.5q0 158 -97.5 236.5t-260.5 78.5h-99l-61 -311h287v-113h-308z" />
<glyph unicode="&#xf1;" horiz-adv-x="1052" d="M66 0l182 967h149l359 -817l151 817h121l-186 -977h-148l-356 827l-154 -817h-118zM313 1083q31 104 80 169t133 65q51 0 93.5 -22.5t78 -49t66.5 -49t61 -22.5q35 0 59.5 34.5t47.5 94.5h94q-33 -104 -82 -169t-131 -65q-51 0 -93 22.5t-78 49t-66.5 49t-61.5 22.5 q-37 0 -61.5 -35.5t-46.5 -93.5h-93z" />
<glyph unicode="&#xf2;" horiz-adv-x="1134" d="M92 428q0 113 41 214t112.5 178t171 122t216.5 45q94 0 176 -31.5t141.5 -90t93 -140.5t33.5 -182q0 -113 -40 -215.5t-112.5 -179t-171 -122.5t-214.5 -46q-96 0 -178 32.5t-141.5 91t-93.5 141.5t-34 183zM221 434q0 -74 23.5 -137.5t66.5 -109.5t104.5 -72.5 t137.5 -26.5q92 0 166 38t126 100.5t79.5 142t27.5 163.5q0 76 -24.5 139.5t-67.5 109.5t-103.5 72t-133.5 26q-92 0 -167 -38t-127.5 -100.5t-80 -142.5t-27.5 -164zM412 1427h163l170 -366h-94z" />
<glyph unicode="&#xf3;" horiz-adv-x="1134" d="M92 428q0 113 41 214t112.5 178t171 122t216.5 45q94 0 176 -31.5t141.5 -90t93 -140.5t33.5 -182q0 -113 -40 -215.5t-112.5 -179t-171 -122.5t-214.5 -46q-96 0 -178 32.5t-141.5 91t-93.5 141.5t-34 183zM221 434q0 -74 23.5 -137.5t66.5 -109.5t104.5 -72.5 t137.5 -26.5q92 0 166 38t126 100.5t79.5 142t27.5 163.5q0 76 -24.5 139.5t-67.5 109.5t-103.5 72t-133.5 26q-92 0 -167 -38t-127.5 -100.5t-80 -142.5t-27.5 -164zM569 1061l316 366h168l-383 -366h-101z" />
<glyph unicode="&#xf4;" horiz-adv-x="1134" d="M92 428q0 113 41 214t112.5 178t171 122t216.5 45q94 0 176 -31.5t141.5 -90t93 -140.5t33.5 -182q0 -113 -40 -215.5t-112.5 -179t-171 -122.5t-214.5 -46q-96 0 -178 32.5t-141.5 91t-93.5 141.5t-34 183zM221 434q0 -74 23.5 -137.5t66.5 -109.5t104.5 -72.5 t137.5 -26.5q92 0 166 38t126 100.5t79.5 142t27.5 163.5q0 76 -24.5 139.5t-67.5 109.5t-103.5 72t-133.5 26q-92 0 -167 -38t-127.5 -100.5t-80 -142.5t-27.5 -164zM373 1061l305 373h143l160 -373h-107l-137 276h-4l-241 -276h-119z" />
<glyph unicode="&#xf5;" horiz-adv-x="1134" d="M92 428q0 113 41 214t112.5 178t171 122t216.5 45q94 0 176 -31.5t141.5 -90t93 -140.5t33.5 -182q0 -113 -40 -215.5t-112.5 -179t-171 -122.5t-214.5 -46q-96 0 -178 32.5t-141.5 91t-93.5 141.5t-34 183zM221 434q0 -74 23.5 -137.5t66.5 -109.5t104.5 -72.5 t137.5 -26.5q92 0 166 38t126 100.5t79.5 142t27.5 163.5q0 76 -24.5 139.5t-67.5 109.5t-103.5 72t-133.5 26q-92 0 -167 -38t-127.5 -100.5t-80 -142.5t-27.5 -164zM346 1083q31 104 80 169t133 65q51 0 93 -22.5t78 -49t66.5 -49t61.5 -22.5q35 0 59.5 34.5t47.5 94.5h94 q-33 -104 -82 -169t-131 -65q-51 0 -93 22.5t-78 49t-66.5 49t-61.5 22.5q-37 0 -61.5 -35.5t-47.5 -93.5h-92z" />
<glyph unicode="&#xf6;" horiz-adv-x="1134" d="M92 428q0 113 41 214t112.5 178t171 122t216.5 45q94 0 176 -31.5t141.5 -90t93 -140.5t33.5 -182q0 -113 -40 -215.5t-112.5 -179t-171 -122.5t-214.5 -46q-96 0 -178 32.5t-141.5 91t-93.5 141.5t-34 183zM221 434q0 -74 23.5 -137.5t66.5 -109.5t104.5 -72.5 t137.5 -26.5q92 0 166 38t126 100.5t79.5 142t27.5 163.5q0 76 -24.5 139.5t-67.5 109.5t-103.5 72t-133.5 26q-92 0 -167 -38t-127.5 -100.5t-80 -142.5t-27.5 -164zM422 1214q0 41 26.5 71t69.5 30q45 0 71.5 -30t26.5 -71t-26.5 -71.5t-71.5 -30.5q-43 0 -69.5 31 t-26.5 71zM815 1214q0 41 27.5 71t72.5 30q43 0 70 -30t27 -71t-27 -71.5t-70 -30.5q-45 0 -72.5 31t-27.5 71z" />
<glyph unicode="&#xf7;" horiz-adv-x="995" d="M84 582l6 110h817l6 -110h-829zM395 348q0 41 30 73t77 32t75.5 -32t28.5 -73t-28.5 -73.5t-75.5 -32.5t-77 32.5t-30 73.5zM395 922q0 41 29 73.5t76 32.5t76.5 -32.5t29.5 -73.5t-29.5 -74t-76.5 -33t-76 33t-29 74z" />
<glyph unicode="&#xf8;" horiz-adv-x="1134" d="M49 -137l178 231q-63 59 -99 144.5t-36 189.5q0 113 41 214t112.5 178t171 122t216.5 45q68 0 127 -16.5t110 -44.5l140 178h106l-176 -230q66 -59 101.5 -143t35.5 -188q0 -113 -40 -215.5t-112.5 -179t-171 -122.5t-214.5 -46q-135 0 -244 63q-23 -31 -47.5 -62.5 t-44.5 -58.5q-23 -31 -47 -59h-107zM221 434q0 -72 21.5 -132t62.5 -107l494 636q-76 47 -178 48q-92 0 -166 -38t-126.5 -100.5t-80 -142.5t-27.5 -164zM369 139q84 -51 186 -51q92 0 165 38t125 100.5t79.5 142.5t27.5 163q0 74 -23.5 136.5t-64.5 109.5 q-139 -178 -248 -319q-47 -59 -91 -116.5t-79 -102.5q-41 -53 -77 -101z" />
<glyph unicode="&#xf9;" horiz-adv-x="989" d="M102 279q0 31 5.5 61.5t9.5 54.5l110 572h125l-110 -574q-4 -20 -8.5 -44.5t-4.5 -49.5q0 -104 63.5 -155.5t176.5 -51.5t177.5 69.5t86.5 186.5l5 28q5 27 14.5 71.5t19.5 99.5t23 112q27 135 59 308h123l-62 -316q-12 -59 -22 -115.5t-19 -101.5q-8 -53 -18 -98 q-29 -166 -129 -261t-264 -95q-78 0 -144.5 17t-114.5 54t-75 93.5t-27 134.5zM338 1427h164l170 -366h-94z" />
<glyph unicode="&#xfa;" horiz-adv-x="989" d="M102 279q0 31 5.5 61.5t9.5 54.5l110 572h125l-110 -574q-4 -20 -8.5 -44.5t-4.5 -49.5q0 -104 63.5 -155.5t176.5 -51.5t177.5 69.5t86.5 186.5l5 28q5 27 14.5 71.5t19.5 99.5t23 112q27 135 59 308h123l-62 -316q-12 -59 -22 -115.5t-19 -101.5q-8 -53 -18 -98 q-29 -166 -129 -261t-264 -95q-78 0 -144.5 17t-114.5 54t-75 93.5t-27 134.5zM549 1061l315 366h168l-383 -366h-100z" />
<glyph unicode="&#xfb;" horiz-adv-x="989" d="M102 279q0 31 5.5 61.5t9.5 54.5l110 572h125l-110 -574q-4 -20 -8.5 -44.5t-4.5 -49.5q0 -104 63.5 -155.5t176.5 -51.5t177.5 69.5t86.5 186.5l5 28q5 27 14.5 71.5t19.5 99.5t23 112q27 135 59 308h123l-62 -316q-12 -59 -22 -115.5t-19 -101.5q-8 -53 -18 -98 q-29 -166 -129 -261t-264 -95q-78 0 -144.5 17t-114.5 54t-75 93.5t-27 134.5zM313 1061l305 373h144l160 -373h-107l-137 276h-4l-242 -276h-119z" />
<glyph unicode="&#xfc;" horiz-adv-x="989" d="M102 279q0 31 5.5 61.5t9.5 54.5l110 572h125l-110 -574q-4 -20 -8.5 -44.5t-4.5 -49.5q0 -104 63.5 -155.5t176.5 -51.5t177.5 69.5t86.5 186.5l5 28q5 27 14.5 71.5t19.5 99.5t23 112q27 135 59 308h123l-62 -316q-12 -59 -22 -115.5t-19 -101.5q-8 -53 -18 -98 q-29 -166 -129 -261t-264 -95q-78 0 -144.5 17t-114.5 54t-75 93.5t-27 134.5zM344 1214q0 41 26.5 71t69.5 30q45 0 72 -30t27 -71t-27 -71.5t-72 -30.5q-43 0 -69.5 31t-26.5 71zM737 1214q0 41 28 71t73 30q43 0 69.5 -30t26.5 -71t-26.5 -71.5t-69.5 -30.5q-45 0 -73 31 t-28 71z" />
<glyph unicode="&#xfd;" horiz-adv-x="872" d="M150 967h131l176 -467l348 467h137l-446 -582l-74 -385h-121l76 385zM469 1061l315 366h168l-383 -366h-100z" />
<glyph unicode="&#xfe;" horiz-adv-x="841" d="M66 0l184 967h125l-33 -168h139q84 0 147.5 -23.5t105.5 -62.5t63.5 -89.5t21.5 -105.5q0 -160 -109.5 -259t-322.5 -99h-168l-31 -160h-122zM238 268l161 2q150 2 221.5 68t71.5 164q-2 80 -61.5 132t-171.5 52h-137z" />
<glyph unicode="&#xff;" horiz-adv-x="872" d="M150 967h131l176 -467l348 467h137l-446 -582l-74 -385h-121l76 385zM289 1214q0 41 26.5 71t69.5 30q45 0 71.5 -30t26.5 -71t-26.5 -71.5t-71.5 -30.5q-43 0 -69.5 31t-26.5 71zM682 1214q0 41 27.5 71t72.5 30q43 0 70 -30t27 -71t-27 -71.5t-70 -30.5q-45 0 -72.5 31 t-27.5 71z" />
<glyph unicode="&#x152;" horiz-adv-x="1828" d="M131 549q0 150 48 282t144.5 232t242 158.5t341.5 58.5h979l-22 -121h-621l-90 -457h516l-22 -120h-517l-90 -461h623l-25 -121h-897q-127 0 -238.5 36t-194.5 105.5t-130 172t-47 235.5zM268 563q0 -217 133.5 -328.5t360.5 -113.5h147l201 1038h-227q-129 0 -242 -39 t-196 -113.5t-130 -186.5t-47 -257z" />
<glyph unicode="&#x153;" horiz-adv-x="1433" d="M92 412q0 113 35 213t107.5 176t184 121t263.5 45h766l-21 -111h-475l-63 -313l397 -2l-20 -113l-398 -2l-63 -315h479l-22 -111h-701q-98 0 -183 26.5t-148.5 79t-100.5 129t-37 177.5zM223 426q2 -156 98.5 -235.5t260.5 -79.5h100l143 745h-161q-92 0 -172 -27.5 t-140.5 -83t-94.5 -135.5t-34 -184z" />
<glyph unicode="&#x178;" horiz-adv-x="1073" d="M184 1280h140l245 -643l482 643h153l-594 -770l-100 -510h-127l100 518zM420 1556q0 41 26.5 71t69.5 30q45 0 71.5 -30t26.5 -71t-26.5 -71.5t-71.5 -30.5q-43 0 -69.5 31t-26.5 71zM813 1556q0 41 27.5 71t72.5 30q43 0 70 -30t27 -71t-27 -71.5t-70 -30.5 q-45 0 -72.5 31t-27.5 71z" />
<glyph unicode="&#x2c6;" horiz-adv-x="813" d="M221 1061l305 373h144l159 -373h-106l-137 276h-4l-242 -276h-119z" />
<glyph unicode="&#x2dc;" horiz-adv-x="813" d="M195 1083q31 104 80 169t133 65q51 0 93 -22.5t77.5 -49t66.5 -49t62 -22.5q35 0 59.5 34.5t46.5 94.5h94q-33 -104 -82 -169t-131 -65q-51 0 -93 22.5t-78 49t-66.5 49t-61.5 22.5q-37 0 -61.5 -35.5t-46.5 -93.5h-92z" />
<glyph unicode="&#x2000;" horiz-adv-x="888" />
<glyph unicode="&#x2001;" horiz-adv-x="1776" />
<glyph unicode="&#x2002;" horiz-adv-x="888" />
<glyph unicode="&#x2003;" horiz-adv-x="1776" />
<glyph unicode="&#x2004;" horiz-adv-x="592" />
<glyph unicode="&#x2005;" horiz-adv-x="444" />
<glyph unicode="&#x2006;" horiz-adv-x="296" />
<glyph unicode="&#x2007;" horiz-adv-x="296" />
<glyph unicode="&#x2008;" horiz-adv-x="222" />
<glyph unicode="&#x2009;" horiz-adv-x="355" />
<glyph unicode="&#x200a;" horiz-adv-x="98" />
<glyph unicode="&#x2010;" horiz-adv-x="598" d="M74 438v119h463v-119h-463z" />
<glyph unicode="&#x2011;" horiz-adv-x="598" d="M74 438v119h463v-119h-463z" />
<glyph unicode="&#x2012;" horiz-adv-x="598" d="M74 438v119h463v-119h-463z" />
<glyph unicode="&#x2013;" d="M0 440v101h1024v-101h-1024z" />
<glyph unicode="&#x2014;" horiz-adv-x="2048" d="M0 440v101h2048v-101h-2048z" />
<glyph unicode="&#x2018;" horiz-adv-x="382" d="M154 973q0 59 30.5 114.5t77.5 101.5t105.5 84t111.5 64l45 -57q-41 -23 -82 -52.5t-73.5 -62t-53 -68.5t-20.5 -69q0 -35 33.5 -63.5t72.5 -46.5q-10 -39 -42.5 -64t-73.5 -25q-57 0 -94 43t-37 101z" />
<glyph unicode="&#x2019;" horiz-adv-x="382" d="M100 897q41 23 82 52.5t74 62t53.5 67.5t20.5 68q0 37 -34 66t-73 47q10 39 43 63.5t76 24.5q55 0 92 -43t37 -103q0 -59 -30.5 -113.5t-79 -100.5t-105.5 -84t-111 -64z" />
<glyph unicode="&#x201a;" horiz-adv-x="382" d="M-121 -246q41 23 82 52.5t74 62.5t53.5 67.5t20.5 67.5q0 37 -34 66t-73 47q10 39 43 63.5t76 24.5q55 0 92 -43t37 -103q0 -59 -31 -113.5t-79 -100.5t-105.5 -83.5t-110.5 -64.5z" />
<glyph unicode="&#x201c;" horiz-adv-x="772" d="M154 973q0 59 30.5 114.5t77.5 101.5t105.5 84t111.5 64l45 -57q-41 -23 -82 -52.5t-73.5 -62t-53 -68.5t-20.5 -69q0 -35 33.5 -63.5t72.5 -46.5q-10 -39 -42.5 -64t-73.5 -25q-57 0 -94 43t-37 101zM557 973q0 59 30.5 114.5t78 101.5t105.5 84t112 64l45 -57 q-41 -23 -82 -52.5t-74 -62t-53.5 -68.5t-20.5 -69q0 -35 34 -63.5t73 -46.5q-10 -39 -42 -64t-75 -25q-57 0 -94 43t-37 101z" />
<glyph unicode="&#x201d;" horiz-adv-x="772" d="M100 897q41 23 82 52.5t74 62t53.5 67.5t20.5 68q0 37 -34 66t-73 47q10 39 43 63.5t76 24.5q55 0 92 -43t37 -103q0 -59 -30.5 -113.5t-79 -100.5t-105.5 -84t-111 -64zM506 897q41 23 82 52.5t72.5 62t52 67.5t20.5 68q0 37 -33.5 66t-72.5 47q10 39 42.5 63.5 t75.5 24.5q55 0 93.5 -43t38.5 -103q0 -59 -31 -113.5t-79 -100.5t-106.5 -84t-111.5 -64z" />
<glyph unicode="&#x201e;" horiz-adv-x="772" d="M-119 -246q41 23 82 52.5t74 62.5t53.5 67.5t20.5 67.5q0 37 -34 66t-73 47q10 39 43 63.5t76 24.5q55 0 92 -43t37 -103q0 -59 -31 -113.5t-79 -100.5t-105 -83.5t-111 -64.5zM287 -246q41 23 82 52.5t72.5 62.5t52 67.5t20.5 67.5q0 37 -33.5 66t-72.5 47 q10 39 42.5 63.5t75.5 24.5q55 0 93 -43t38 -103q0 -59 -30.5 -113.5t-78.5 -100.5t-106.5 -83.5t-111.5 -64.5z" />
<glyph unicode="&#x2022;" horiz-adv-x="925" d="M68 475q0 23 12 63t30.5 83t38 79.5t35.5 53.5q14 14 52 34.5t81 38t83 29.5t63 12t62.5 -12t82.5 -29.5t80 -38t53 -34.5q16 -16 36 -53t37 -80t29.5 -83t12.5 -63t-12.5 -63.5t-29.5 -83.5t-36.5 -80t-36.5 -53q-16 -16 -53 -36t-80 -37.5t-84 -29.5t-63 -12 q-23 0 -63 12t-83 29.5t-79.5 37t-51.5 36.5q-14 16 -34.5 53t-39 80t-30.5 84t-12 63z" />
<glyph unicode="&#x2026;" horiz-adv-x="1159" d="M16 80q0 41 29 71.5t76 30.5q45 0 72.5 -30.5t27.5 -71.5t-27.5 -74t-72.5 -33q-47 0 -76 33t-29 74zM406 80q0 41 28.5 71.5t73.5 30.5t73.5 -30.5t28.5 -71.5t-28.5 -74t-73.5 -33t-73.5 33t-28.5 74zM793 80q0 41 28.5 71.5t73.5 30.5q47 0 74.5 -30.5t27.5 -71.5 t-27.5 -74t-74.5 -33q-45 0 -73.5 33t-28.5 74z" />
<glyph unicode="&#x202f;" horiz-adv-x="355" />
<glyph unicode="&#x2039;" horiz-adv-x="671" d="M53 412l27 135l571 356l-14 -110l-467 -324v-2l352 -328l-37 -86z" />
<glyph unicode="&#x203a;" horiz-adv-x="671" d="M25 51l14 111l465 321v2l-350 330l36 88l433 -360l-25 -135z" />
<glyph unicode="&#x205f;" horiz-adv-x="444" />
<glyph unicode="&#x20ac;" d="M59 430l7 92h153q4 33 7 68t10 69q10 55 24 103h-119l-6 92h152q35 98 84 178t113.5 138.5t143.5 90t171 31.5t184 -27.5t154 -74.5l-52 -107q-57 45 -138 71t-156 26q-131 0 -223.5 -86t-147.5 -240h483l-6 -92h-506q-6 -25 -12 -50.5t-10 -52.5q-8 -35 -12.5 -70.5 t-8.5 -66.5h414l6 -92h-422q2 -168 79 -258t251 -90q125 0 223 43l-2 -113q-51 -23 -109.5 -32t-121.5 -11q-229 0 -341 117t-110 344h-156z" />
<glyph unicode="&#x2122;" horiz-adv-x="1859" d="M190 1186v96h687v-96h-299v-670h-101v670h-287zM983 516l31 766h170l202 -645h17l225 645h162l27 -766h-99l-18 649h-14l-240 -639h-117l-213 639h-14l-25 -649h-94z" />
<glyph unicode="&#x25fc;" horiz-adv-x="962" d="M0 0v963h963v-963h-963z" />
<glyph unicode="&#xfb01;" horiz-adv-x="1208" d="M66 0l184 967h590l-23 -113h-465l-63 -328h387l-21 -114h-387l-82 -412h-120zM864 0l189 967h123l-189 -967h-123z" />
<glyph unicode="&#xfb02;" horiz-adv-x="1583" d="M66 0l184 967h590l-23 -113h-465l-63 -328h387l-21 -114h-387l-82 -412h-120zM864 0l187 967h127l-168 -854h469l-23 -113h-592z" />
<glyph unicode="&#xfb03;" horiz-adv-x="2007" d="M66 0l184 967h590l-23 -113h-465l-63 -328h387l-21 -114h-387l-82 -412h-120zM864 0l185 967h589l-22 -113h-465l-64 -328h388l-21 -114h-387l-82 -412h-121zM1663 0l188 967h123l-188 -967h-123z" />
<glyph unicode="&#xfb04;" horiz-adv-x="2381" d="M66 0l184 967h590l-23 -113h-465l-63 -328h387l-21 -114h-387l-82 -412h-120zM864 0l185 967h589l-22 -113h-465l-64 -328h388l-21 -114h-387l-82 -412h-121zM1663 0l186 967h127l-168 -854h469l-22 -113h-592z" />
</font>
</defs>
</svg>
