<?xml version="1.0" standalone="no"?>
<!DOCTYPE svg PUBLIC "-//W3C//DTD SVG 1.1//EN" "http://www.w3.org/Graphics/SVG/1.1/DTD/svg11.dtd" >
<svg xmlns="http://www.w3.org/2000/svg" xmlns:xlink="http://www.w3.org/1999/xlink" version="1.1">
<metadata></metadata>
<defs>
<font id="freight_sansbold_italic" horiz-adv-x="1153" >
<font-face units-per-em="2048" ascent="1638" descent="-410" />
<missing-glyph horiz-adv-x="356" />
<glyph horiz-adv-x="0" />
<glyph unicode="&#xd;" horiz-adv-x="356" />
<glyph unicode=" "  horiz-adv-x="356" />
<glyph unicode="&#x09;" horiz-adv-x="356" />
<glyph unicode="&#xa0;" horiz-adv-x="356" />
<glyph unicode="!" horiz-adv-x="622" d="M63 143q0 80 54.5 126t132.5 46t131 -46t53 -126q0 -82 -53 -128t-131 -46t-132.5 46t-54.5 128zM195 459l108 889l365 -50l-250 -874z" />
<glyph unicode="&#x22;" horiz-adv-x="890" d="M66 815l333 506l267 -74l-390 -432h-210zM496 815l333 506l265 -74l-387 -432h-211z" />
<glyph unicode="#" horiz-adv-x="1273" d="M-76 -152l182 385h-102l2 240h211l119 246h-195v239h305l168 357h248l-168 -357h291l168 357h248l-168 -357h98v-239h-209l-118 -246h192l-2 -240h-301l-180 -385h-250l182 385h-291l-180 -385h-250zM459 459h291l131 274h-291z" />
<glyph unicode="$" d="M29 82l59 285q78 -41 156 -68t143 -41l98 277q-63 27 -121.5 58.5t-104.5 74.5t-73.5 100t-27.5 135q0 98 39 173t106.5 127t159.5 79t196 27q61 0 121 -6l70 194h141q-23 -61 -39 -108q-8 -20 -14 -39t-12 -35q-8 -18 -13 -33q72 -14 129.5 -33.5t100.5 -42.5l-58 -284 q-63 33 -131.5 56t-134.5 38l-45 -131q-20 -57 -47 -129h2q72 -29 134.5 -60.5t107.5 -73.5t70.5 -96.5t25.5 -124.5q0 -102 -39 -183t-109.5 -136t-171 -84t-221.5 -29q-25 0 -49 1t-49 3l-80 -223h-141l86 244q-80 16 -148.5 39.5t-115.5 48.5zM463 922q0 -43 28.5 -73 t106.5 -58l90 251q-4 2 -5 4.5t-5 2.5q-104 4 -159.5 -31t-55.5 -96zM518 225q10 -2 18.5 -2h18.5q109 0 159 38t50 97q0 45 -32 78t-118 62z" />
<glyph unicode="%" horiz-adv-x="1703" d="M102 -31l1319 1340h242l-1319 -1340h-242zM111 920q0 88 28.5 162.5t80.5 129t124 84t158 29.5q76 0 139.5 -20.5t109.5 -59.5t71.5 -93t25.5 -124q0 -88 -28.5 -164t-81 -131t-124 -86t-157.5 -31q-76 0 -139.5 20.5t-109.5 60.5t-71.5 95.5t-25.5 127.5zM322 922 q0 -72 39.5 -109t99.5 -37q37 0 67.5 18.5t54 50.5t37 76t13.5 95q0 72 -37 108.5t-96 36.5q-41 0 -74 -21.5t-56.5 -55t-35.5 -76.5t-12 -86zM920 258q0 88 28.5 163t80.5 129t125 84t159 30q76 0 139.5 -20.5t109.5 -58.5t71.5 -93t25.5 -123q0 -88 -28.5 -164t-81 -131.5 t-124 -87t-157.5 -31.5q-76 0 -140.5 20.5t-110.5 60.5t-71.5 95t-25.5 127zM1133 262q0 -72 38.5 -108.5t98.5 -36.5q37 0 68.5 18.5t55 51t37 76.5t13.5 93q0 72 -39 108t-96 36q-41 0 -73 -21.5t-55.5 -55.5t-35.5 -76t-12 -85z" />
<glyph unicode="&#x26;" horiz-adv-x="1333" d="M12 293q0 72 28 131t76 105t110.5 78t131.5 48q-76 47 -119.5 117t-43.5 156q0 78 33.5 148.5t93 123.5t142.5 84t181 31q78 0 151.5 -20.5t132 -59.5t93.5 -96.5t35 -130.5q0 -70 -28 -124.5t-72 -92t-100 -61t-114 -30.5q43 -27 88.5 -65.5t79.5 -81.5l174 246h328 l-375 -412l213 -354l-329 -64l-109 228q-92 -104 -199.5 -166t-216.5 -62q-84 0 -154.5 23.5t-121.5 66.5t-80 102.5t-29 131.5zM303 362q0 -72 53.5 -115.5t128.5 -43.5q70 -2 134.5 34t117.5 89q-55 86 -121.5 149.5t-132.5 99.5q-80 -31 -130 -84t-50 -129zM475 952 q0 -59 38.5 -98t104.5 -80q68 33 117 79t49 124q0 51 -39.5 88t-99.5 41q-72 2 -121 -44t-49 -110z" />
<glyph unicode="'" horiz-adv-x="462" d="M74 815l334 506l258 -74l-390 -432h-202z" />
<glyph unicode="(" horiz-adv-x="870" d="M115 481q0 188 54 350t140 293t194.5 227.5t217.5 153.5l166 -215q-92 -55 -177 -136t-150.5 -184.5t-105.5 -226t-40 -262.5q0 -139 40 -262t105.5 -226.5t150.5 -184t177 -136.5l-166 -215q-109 57 -217.5 153.5t-194.5 226.5t-140 292t-54 352z" />
<glyph unicode=")" horiz-adv-x="870" d="M-14 -328q90 55 175 136t151.5 184.5t106.5 226.5t40 262t-40 262t-106.5 226.5t-151.5 184.5t-175 136l164 215q109 -57 217 -153.5t195 -227.5t141.5 -292.5t54.5 -350.5q0 -190 -54.5 -352t-141.5 -292t-195.5 -226t-216.5 -154z" />
<glyph unicode="*" horiz-adv-x="806" d="M86 852l324 59l4 19l-277 166l191 190l151 -295l17 4l84 314l229 -109l-238 -239l11 -15l323 29l-49 -258l-291 145l-14 -14l127 -301l-260 -47l47 331l-16 5l-246 -215z" />
<glyph unicode="+" horiz-adv-x="1077" d="M68 367l6 247h340v349h262v-349h338l6 -247h-344v-349h-262v349h-346z" />
<glyph unicode="," horiz-adv-x="569" d="M-100 -215q27 12 69.5 38.5t81.5 59.5t67.5 70t28.5 74q0 55 -42 88.5t-95 58.5q16 78 69.5 126t139.5 48q49 0 90 -19.5t72 -53t47 -76.5t16 -93q0 -84 -42 -155.5t-106.5 -129t-140 -98t-143.5 -65.5z" />
<glyph unicode="-" horiz-adv-x="761" d="M59 371v252h652v-252h-652z" />
<glyph unicode="." horiz-adv-x="569" d="M27 156q0 86 54 136t140 50q88 0 140.5 -50t52.5 -136q0 -84 -52.5 -135.5t-140.5 -51.5q-86 0 -140 51.5t-54 135.5z" />
<glyph unicode="/" horiz-adv-x="585" d="M-270 -408l852 1846h268l-852 -1846h-268z" />
<glyph unicode="0" horiz-adv-x="1187" d="M66 416q0 129 42 237.5t117.5 187.5t181 123t232.5 44q111 0 200 -32t152.5 -88.5t98 -137.5t34.5 -179q0 -129 -38.5 -238.5t-111.5 -189.5t-175.5 -126t-229.5 -46q-109 0 -201 31t-159.5 88t-105 140t-37.5 186zM381 414q0 -100 52 -153.5t138 -53.5q55 0 99.5 28.5 t75 77.5t47 114.5t16.5 137.5q0 98 -52 152.5t-136 54.5q-59 0 -104.5 -32.5t-75 -84t-45 -116t-15.5 -125.5z" />
<glyph unicode="1" horiz-adv-x="792" d="M109 668l45 256l583 90l-200 -1014h-316l137 702z" />
<glyph unicode="2" horiz-adv-x="1024" d="M-6 0l41 236q125 63 231.5 120.5t185 107.5t124 95t45.5 88q0 57 -43 86t-121 29q-74 0 -152 -25.5t-131 -54.5l-33 244q96 43 190.5 64.5t203.5 21.5q199 0 315.5 -81t116.5 -216q0 -82 -45 -148.5t-117 -122t-164 -101.5t-186 -89h471l-43 -252z" />
<glyph unicode="3" horiz-adv-x="1017" d="M-96 -268l76 241q74 -45 172 -79.5t194 -34.5q98 0 158.5 48t60.5 140q0 41 -18.5 72t-49 50t-71.5 29.5t-86 10.5q-41 0 -83 -4t-67 -8l43 223q70 6 140.5 15t126 31.5t90.5 60.5t35 100q0 68 -53.5 100.5t-122.5 32.5q-92 0 -169 -26.5t-149 -59.5l-31 235 q78 41 184.5 72t233.5 31q72 0 149.5 -18.5t142 -57.5t105.5 -100.5t41 -149.5q0 -72 -26.5 -129t-71.5 -100t-101.5 -74t-117.5 -45q49 -14 93 -38t78 -59.5t54.5 -83.5t20.5 -112q0 -94 -41 -173t-114 -135t-170 -88t-208 -32q-123 0 -239.5 29.5t-208.5 85.5z" />
<glyph unicode="4" horiz-adv-x="1173" d="M-16 203l712 790h353l-148 -737h205l-43 -250h-209l-72 -362h-295l74 362h-541zM305 250h318l90 463z" />
<glyph unicode="5" horiz-adv-x="985" d="M-115 -262l80 235q84 -53 178.5 -80.5t173.5 -27.5q100 0 167 52t67 144q0 104 -75 151.5t-210 49.5q-47 0 -90 -5t-88 -15l-27 41l205 700h729l-43 -258h-471l-80 -252h19q227 -4 339.5 -110.5t112.5 -276.5q0 -96 -39.5 -180t-111.5 -147.5t-175.5 -100.5t-228.5 -37 q-109 0 -227.5 28.5t-204.5 88.5z" />
<glyph unicode="6" horiz-adv-x="1159" d="M80 489q0 152 57.5 302.5t176 275.5t303 213t436.5 119q0 -4 8 -46t18 -91l29 -132q-229 -29 -401 -105.5t-261 -219.5l9 -6q55 35 128.5 58.5t141.5 23.5q74 0 143.5 -27t122.5 -77t85 -123.5t32 -170.5q0 -102 -40 -195t-110.5 -164t-168 -113t-209.5 -42 q-117 0 -210.5 40t-158 110.5t-98 165.5t-33.5 204zM375 449q0 -104 60.5 -169t152.5 -65q51 0 92 20.5t69.5 55.5t44 79t15.5 91q0 92 -51 146.5t-137 54.5q-63 0 -122 -23t-102 -57q-10 -29 -16 -65.5t-6 -67.5z" />
<glyph unicode="7" horiz-adv-x="1032" d="M-51 -356l749 1069h-610l57 270h922l-33 -217l-768 -1122h-317z" />
<glyph unicode="8" horiz-adv-x="1095" d="M39 309q0 72 26.5 128.5t71.5 96t103.5 65.5t124.5 36q-80 45 -135.5 119.5t-55.5 171.5q0 86 37 155.5t99.5 118.5t147.5 77t181 28q86 0 171 -18.5t152.5 -59.5t109.5 -104.5t42 -153.5q0 -72 -24.5 -127.5t-65.5 -95t-94.5 -65.5t-112.5 -38q82 -43 141.5 -118.5 t59.5 -176.5q0 -84 -38 -154.5t-103.5 -122t-152.5 -79t-183 -27.5q-86 0 -175.5 18.5t-162 59.5t-118.5 106.5t-46 159.5zM346 352q0 -78 57.5 -114.5t135.5 -36.5q76 0 129 41t53 114q0 35 -19.5 65t-48 53.5t-64.5 42t-69 32.5q-74 -25 -124 -78t-50 -119zM479 913 q0 -66 54 -109.5t124 -74.5q63 29 110.5 80t47.5 121t-48 105.5t-114 35.5q-78 0 -126 -45t-48 -113z" />
<glyph unicode="9" horiz-adv-x="1159" d="M78 496q0 104 40 197t111.5 164t168 113t210.5 42q117 0 210 -40t156.5 -110.5t97.5 -165.5t34 -204q0 -154 -57.5 -303.5t-176 -274.5t-302 -214t-435.5 -120q0 4 -9 45t-20 92q-12 57 -26 133q229 27 401 104t258 222l-6 6q-55 -35 -130 -58.5t-140 -23.5 q-74 0 -143.5 26t-124 77t-86 123.5t-31.5 169.5zM377 520q0 -92 51 -146.5t137 -54.5q66 0 124.5 21.5t101.5 56.5q10 29 16 65.5t6 69.5q0 104 -60.5 168t-152.5 64q-53 0 -94 -20.5t-69.5 -55.5t-44 -79t-15.5 -89z" />
<glyph unicode=":" horiz-adv-x="569" d="M33 156q0 86 54 136t140 50t139.5 -50t53.5 -136q0 -84 -53.5 -135.5t-139.5 -51.5t-140 51.5t-54 135.5zM145 733q0 84 54.5 135.5t140.5 51.5q88 0 140 -51.5t52 -135.5t-52 -135t-140 -51q-86 0 -140.5 51t-54.5 135z" />
<glyph unicode=";" horiz-adv-x="569" d="M-100 -215q27 12 69.5 38.5t81.5 59.5t67.5 70t28.5 74q0 55 -42 88.5t-95 58.5q16 78 69.5 126t139.5 48q49 0 90 -19.5t72 -53t47 -76.5t16 -93q0 -84 -42 -155.5t-106.5 -129t-140 -98t-143.5 -65.5zM145 733q0 84 54.5 135.5t140.5 51.5q88 0 140 -51.5t52 -135.5 t-52 -135t-140 -51q-86 0 -140.5 51t-54.5 135z" />
<glyph unicode="&#x3c;" horiz-adv-x="1024" d="M92 381v203l821 372v-249l-501 -215v-21l501 -213v-250z" />
<glyph unicode="=" horiz-adv-x="1036" d="M86 139l10 236h848l10 -236h-868zM86 821h868l-10 -235h-848z" />
<glyph unicode="&#x3e;" horiz-adv-x="1028" d="M98 8v250l502 213v21l-502 215v249l822 -372v-203z" />
<glyph unicode="?" horiz-adv-x="856" d="M111 143q0 80 54 126t132 46t131 -46t53 -126q0 -82 -53 -128t-131 -46t-132 46t-54 128zM158 608q0 86 63.5 136.5t181.5 80.5q92 25 138.5 46.5t46.5 68.5q0 31 -19.5 51.5t-48 32.5t-62.5 16t-61 4q-59 0 -118.5 -9t-94.5 -19l66 268q41 14 93 19.5t99 5.5 q86 0 167 -22.5t143.5 -67.5t100.5 -112t38 -153q0 -139 -83 -215.5t-216 -115.5q-82 -23 -127 -39.5t-45 -40.5q0 -8 10 -21.5t25.5 -27t33 -27.5t29.5 -27l-221 -22q-59 37 -99 87t-40 103z" />
<glyph unicode="@" horiz-adv-x="1755" d="M94 496q0 172 63.5 323.5t175 266t262 181t325.5 66.5q156 0 296 -49t247.5 -140t171 -221t63.5 -292q0 -139 -37 -242.5t-98.5 -173.5t-141.5 -104.5t-166 -34.5q-104 0 -174.5 43t-99.5 127q-53 -63 -117.5 -94t-128.5 -31q-59 0 -111.5 23.5t-91 67.5t-60 107.5 t-21.5 141.5q0 102 32.5 188t91 148.5t137.5 97.5t173 35q41 0 84 -12.5t84 -28.5l274 43l-104 -524q-20 -100 6 -148.5t110 -48.5q49 0 96.5 27.5t84 81t60.5 131t24 180.5q0 141 -57.5 255.5t-153 195.5t-219 125t-254.5 44q-154 0 -288 -60.5t-232.5 -163.5t-156 -240.5 t-57.5 -288.5q0 -145 49.5 -271.5t138.5 -221.5t212 -149.5t270 -54.5q68 0 132.5 11.5t127.5 31.5l25 -77q-72 -25 -141.5 -37.5t-147.5 -12.5q-166 0 -304 60.5t-239.5 165t-158 247t-56.5 306.5zM705 481q0 -80 38.5 -125t96.5 -45q41 0 69.5 14.5t53.5 34.5l67 330 q-23 23 -55.5 40.5t-73.5 17.5q-45 0 -81 -23t-61.5 -59.5t-39.5 -85t-14 -99.5z" />
<glyph unicode="A" horiz-adv-x="1323" d="M-102 0l741 1280h401l197 -1280h-324l-36 272h-490l-154 -272h-335zM524 532h322l-53 480z" />
<glyph unicode="B" horiz-adv-x="1257" d="M43 0l248 1280h497q125 0 212 -25.5t139.5 -69.5t76 -101.5t23.5 -120.5q0 -123 -73.5 -204t-196.5 -120q96 -35 147 -108.5t51 -161.5q0 -78 -30.5 -145.5t-100 -117t-180.5 -78t-272 -28.5h-541zM410 248h192q139 0 192.5 35.5t53.5 113.5q0 37 -16.5 63.5t-45 44 t-66.5 25t-81 7.5h-174zM506 743h65q25 0 48.5 1t31.5 1q256 0 256 160q0 57 -43 92t-143 35h-160z" />
<glyph unicode="C" horiz-adv-x="1253" d="M90 557q0 150 49 286t145.5 240.5t241 166t332.5 61.5q113 0 219.5 -19.5t210.5 -54.5l-57 -287q-100 39 -194.5 59.5t-184.5 20.5q-106 0 -187 -33.5t-135.5 -93t-82 -138.5t-27.5 -169t26.5 -155.5t73.5 -108.5t113.5 -63.5t144.5 -20.5t158 20.5t151 50.5l54 -272 q-98 -43 -195.5 -60.5t-185.5 -17.5q-154 0 -278 41t-211 118t-134 185.5t-47 243.5z" />
<glyph unicode="D" horiz-adv-x="1392" d="M43 0l248 1280h422q135 0 252.5 -35t203.5 -104.5t136.5 -171t50.5 -236.5q0 -145 -46 -277t-145.5 -233.5t-257 -162t-381.5 -60.5h-483zM418 260h162q98 0 180 28.5t141.5 86t93 142.5t33.5 198q0 156 -95 229.5t-255 75.5h-113z" />
<glyph unicode="E" horiz-adv-x="1157" d="M43 0l248 1280h936l-49 -262h-619l-47 -246h510l-51 -260h-510l-47 -250h616l-51 -262h-936z" />
<glyph unicode="F" horiz-adv-x="1107" d="M43 0l248 1280h915l-51 -268h-594l-51 -264h487l-51 -267h-487l-94 -481h-322z" />
<glyph unicode="G" horiz-adv-x="1376" d="M92 551q0 154 51.5 292t150.5 241.5t244.5 165t333.5 61.5q125 0 233.5 -19.5t215.5 -54.5l-64 -287q-98 39 -197 60.5t-192 21.5q-113 0 -196.5 -35.5t-139 -98t-83 -146.5t-27.5 -181v-7q0 -149 84 -239q86 -92 258 -92q90 0 164 23l43 207h-303l53 258h596l-131 -674 q-94 -37 -203 -57.5t-225 -20.5q-145 0 -267 40t-210 115t-138.5 182.5t-50.5 244.5z" />
<glyph unicode="H" horiz-adv-x="1425" d="M43 0l248 1280h325l-96 -498h504l94 498h326l-248 -1280h-326l99 508h-502l-98 -508h-326z" />
<glyph unicode="I" horiz-adv-x="598" d="M45 0l248 1280h325l-247 -1280h-326z" />
<glyph unicode="J" horiz-adv-x="956" d="M-55 96l118 254q57 -49 119 -80.5t135 -31.5q51 0 85 17t55.5 47t35 70t21.5 83l160 825h325l-170 -872q-41 -209 -159.5 -324t-323.5 -115q-53 0 -109.5 9.5t-109.5 25.5t-100 40t-82 52z" />
<glyph unicode="K" horiz-adv-x="1275" d="M43 0l248 1280h323l-106 -567h2l530 567h377l-631 -629l381 -651h-374l-314 563h-2l-10 -57.5t-14.5 -78.5t-18.5 -93t-18 -96q-23 -113 -47 -238h-326z" />
<glyph unicode="L" horiz-adv-x="1064" d="M43 0l248 1280h325l-194 -1006h536l-53 -274h-862z" />
<glyph unicode="M" horiz-adv-x="1740" d="M4 0l299 1282h455l88 -940l454 938h465l-209 -1280h-315l168 944l-448 -926h-351l-86 930l-207 -948h-313z" />
<glyph unicode="N" horiz-adv-x="1452" d="M43 0l240 1278h370l355 -846l151 848h314l-242 -1292h-365l-354 858l-154 -846h-315z" />
<glyph unicode="O" horiz-adv-x="1497" d="M92 559q0 160 55.5 297t154.5 238.5t235.5 160t300.5 58.5q131 0 245.5 -40t200.5 -116t135 -186.5t49 -249.5q0 -160 -55 -297t-154.5 -238.5t-236.5 -160t-299 -58.5q-131 0 -246 40t-201 116t-135 186.5t-49 249.5zM426 567q0 -150 83 -244t236 -94q96 0 169 44 t122 114t75 156t26 170q0 154 -83 246t-237 92q-96 0 -170 -43t-123 -113t-73.5 -156t-24.5 -172z" />
<glyph unicode="P" horiz-adv-x="1216" d="M43 0l248 1280h438q119 0 212 -34t156.5 -91t96.5 -131t33 -156q0 -104 -37 -194t-110.5 -156.5t-186.5 -105.5t-264 -39l-189 -2l-71 -371h-326zM481 625h156q68 0 116 19.5t79.5 50t46 70.5t14.5 81q0 78 -56.5 127t-170.5 49h-107z" />
<glyph unicode="Q" horiz-adv-x="1497" d="M92 559q0 158 55.5 296t154.5 239.5t235.5 160t300.5 58.5q131 0 245.5 -40t200.5 -116t135 -186.5t49 -249.5q0 -221 -106.5 -398.5t-304.5 -269.5l299 -162l-160 -258l-489 334h-7q-127 2 -238.5 44t-193.5 118t-129 184.5t-47 245.5zM426 567q0 -150 83 -244t236 -94 q96 0 169 44t122 114t75 156t26 170q0 154 -83 246t-237 92q-96 0 -170 -44t-123 -113t-73.5 -155t-24.5 -172z" />
<glyph unicode="R" horiz-adv-x="1269" d="M43 0l248 1278h483q111 0 199 -28.5t148.5 -79t93 -119t32.5 -148.5q0 -84 -25.5 -150.5t-71.5 -118.5t-108.5 -88t-134.5 -57l203 -489h-346l-170 434l-145 -12l-82 -422h-324zM485 666l148 2q55 0 105 10t89 33.5t61.5 60.5t22.5 92q0 82 -61.5 121t-149.5 39h-139z " />
<glyph unicode="S" d="M29 82l59 285q53 -29 111.5 -52.5t116 -40t109.5 -25.5t93 -9q113 0 166 32.5t53 87.5q0 25 -11 44.5t-39 38t-74 39t-115 48.5q-66 27 -126.5 59t-108.5 76t-76.5 102t-28.5 136q0 98 39 173t106.5 127t159.5 79t196 27q154 0 280 -32t204 -71l-58 -284q-47 25 -101 45 t-109.5 35.5t-108.5 24.5t-96 9q-90 0 -136.5 -32.5t-46.5 -83.5q0 -25 12.5 -44.5t40 -37t73.5 -37t116 -45.5q72 -29 134.5 -60.5t107.5 -73.5t70.5 -96.5t25.5 -124.5q0 -102 -39 -183t-109.5 -136t-171 -84t-221.5 -29q-72 0 -143.5 10.5t-137 25.5t-121.5 35.5 t-95 41.5z" />
<glyph unicode="T" horiz-adv-x="1230" d="M150 1006l53 274h1140l-51 -274h-407l-197 -1006h-326l197 1006h-409z" />
<glyph unicode="U" horiz-adv-x="1357" d="M100 393q0 35 7.5 82t15.5 84l141 721h326l-139 -727q-6 -27 -11.5 -54.5t-5.5 -56.5q0 -206 230 -206h2q113 0 169 66.5t78 176.5l156 801h324l-158 -815q-47 -252 -197.5 -374t-390.5 -122q-262 0 -403.5 110.5t-143.5 313.5z" />
<glyph unicode="V" horiz-adv-x="1304" d="M160 1280h342l106 -973l520 973h359l-737 -1276h-396z" />
<glyph unicode="W" horiz-adv-x="1970" d="M209 1280h346l-6 -893l409 893h359l61 -893l342 893h353l-598 -1280h-332l-68 913l-444 -913h-326z" />
<glyph unicode="X" horiz-adv-x="1320" d="M-70 0l572 643l-312 637h361l180 -418l340 418h373l-559 -629l323 -651h-360l-195 438l-356 -438h-367z" />
<glyph unicode="Y" horiz-adv-x="1251" d="M178 1280h334l168 -510l354 510h355l-598 -797l-95 -483h-319l94 489z" />
<glyph unicode="Z" horiz-adv-x="1187" d="M-27 0l41 215l797 799h-629l51 266h1043l-41 -217l-791 -795h635l-53 -268h-1053z" />
<glyph unicode="[" horiz-adv-x="849" d="M139 -420v1837h697v-233h-416v-1372h416v-232h-697z" />
<glyph unicode="\" horiz-adv-x="598" d="M135 1438h273l137 -1846h-271z" />
<glyph unicode="]" horiz-adv-x="851" d="M14 -188h416v1372h-416v233h699v-1837h-699v232z" />
<glyph unicode="^" horiz-adv-x="815" d="M145 1079l316 383h284l170 -383h-239l-94 221h-4l-177 -221h-256z" />
<glyph unicode="_" horiz-adv-x="1112" d="M-131 -250l2 250h1147v-250h-1149z" />
<glyph unicode="`" horiz-adv-x="813" d="M246 1458h346l129 -379h-203z" />
<glyph unicode="a" horiz-adv-x="1050" d="M12 238q0 74 37 137t114 108t195 67q81 15 183 14q47 0 100 -3l4 25q4 20 4 37q0 116 -179 116h-3q-76 0 -156 -20.5t-145 -48.5l-27 241q70 29 170.5 49.5t204.5 20.5q150 0 246 -35t146 -95t60 -143q3 -24 2 -50q0 -62 -16 -130l-49 -231q-5 -22 -5 -38q0 -17 6 -27 q11 -18 59 -23l-72 -229q-44 -4 -81 -4q-32 0 -60 3q-58 7 -96 27.5t-58.5 50t-24.5 66.5h-2q-51 -59 -119.5 -104.5t-166.5 -45.5q-61 0 -111.5 21.5t-86.5 58.5t-54.5 85t-18.5 100zM317 285q0 -47 32 -76t83 -29q43 0 82 18.5t64 41.5l36 184q-297 -6 -297 -139z" />
<glyph unicode="b" horiz-adv-x="1165" d="M20 -23l271 1418l323 26l-104 -544q47 41 108.5 73.5t149.5 32.5q74 0 137.5 -28.5t110.5 -84t74.5 -133.5t27.5 -176q0 -129 -42 -236.5t-114.5 -186.5t-173 -123t-217.5 -44q-72 0 -132 19.5t-113 48.5zM389 270q29 -29 69 -49t93 -20q55 0 101 28.5t78 74.5 t49.5 105.5t17.5 122.5q0 100 -49.5 156.5t-120.5 56.5q-51 0 -87 -17t-65 -40z" />
<glyph unicode="c" horiz-adv-x="995" d="M55 418q0 117 42 220t118 180t180.5 121t227.5 44q111 0 209 -24.5t176 -71.5l-97 -238q-72 45 -135 67.5t-135 22.5q-68 0 -119 -29.5t-83.5 -75.5t-49 -100.5t-16.5 -105.5q0 -109 64.5 -162t168.5 -53q57 0 115.5 14.5t112.5 34.5l40 -231q-59 -27 -139 -45.5 t-176 -18.5q-104 0 -196.5 30t-161 87t-107.5 141t-39 193z" />
<glyph unicode="d" horiz-adv-x="1169" d="M55 391q0 129 42 236.5t116 185.5t174 122t217 44q66 0 122 -16.5t105 -40.5l84 444l320 27l-270 -1393h-314l13 76q-47 -41 -108.5 -74t-149.5 -33q-74 0 -137.5 29t-110.5 84t-75 133t-28 176zM379 418q0 -100 48 -156.5t120 -56.5q51 0 87 18.5t64 40.5l86 418 q-29 29 -68.5 49.5t-90.5 20.5q-57 0 -102.5 -29t-77 -75t-49 -106.5t-17.5 -123.5z" />
<glyph unicode="e" horiz-adv-x="1067" d="M55 424q0 117 42 218t118 177t179.5 120t223.5 44q182 0 290 -87t108 -253q0 -53 -12.5 -116.5t-32.5 -110.5l-606 -6v-15q0 -49 19 -86t52 -61.5t76 -35.5t90 -11q76 0 148.5 22.5t119.5 46.5l39 -239q-59 -27 -150 -44.5t-184 -17.5q-117 0 -213 30t-163.5 88 t-105.5 143t-38 194zM397 561l310 2q6 16 10 44t4 46q0 59 -32 91t-89 32q-72 0 -126 -56t-77 -159z" />
<glyph unicode="f" horiz-adv-x="759" d="M45 702l8 201l203 45l23 107q18 84 48.5 152.5t80 116.5t120 74.5t166.5 26.5q86 0 160 -22t123 -55q0 -2 -17.5 -39t-37.5 -84q-25 -53 -56 -121q-45 29 -83 43t-78 14q-33 0 -55.5 -12t-37 -30.5t-22.5 -40t-12 -40.5l-19 -98h242l-6 -248h-271l-135 -692h-315l137 692 z" />
<glyph unicode="g" horiz-adv-x="1091" d="M-133 -240q0 72 69.5 136.5t198.5 85.5q-59 20 -91 54t-32 97q0 70 62.5 125.5t171.5 75.5q-78 41 -119 110.5t-41 149.5q0 86 37 157.5t100.5 123t147.5 80t178 28.5q84 0 152.5 -19.5t115.5 -50.5l313 25l9 -240l-191 21q6 -16 12.5 -39t6.5 -47q0 -78 -30 -145.5 t-86 -116.5t-138 -78t-187 -29q-49 0 -89 7.5t-68 15.5q-16 -6 -31.5 -20.5t-15.5 -37.5q0 -33 43 -50t157 -36l39 -6q193 -33 294 -98.5t101 -198.5q0 -80 -42 -144.5t-116.5 -109.5t-177 -69.5t-223.5 -24.5q-258 0 -394 68.5t-136 199.5zM156 -186q0 -70 73.5 -109 t182.5 -39q115 0 179 34t64 79q0 43 -38.5 68.5t-141.5 43.5q-23 4 -51.5 8.5t-59 9.5t-60 10t-52.5 11q-39 -10 -67.5 -42.5t-28.5 -73.5zM381 592q0 -61 37.5 -103.5t109.5 -42.5t117 51.5t45 143.5q0 63 -37 104t-108 41q-70 0 -117 -52t-47 -142z" />
<glyph unicode="h" horiz-adv-x="1157" d="M23 0l266 1366l321 27l-110 -574q74 72 153.5 117t165.5 45q135 0 204 -76t69 -188q0 -23 -2.5 -42.5t-6.5 -41.5l-122 -633h-316l105 539q4 16 6 33.5t2 33.5q0 113 -121 113q-51 0 -95 -26.5t-81 -67.5l-121 -625h-317z" />
<glyph unicode="i" horiz-adv-x="540" d="M23 0l182 942l321 27l-188 -969h-315zM240 1255q0 84 51 127t137 43t135 -43t49 -127q0 -82 -50 -125t-136 -43t-136 43.5t-50 124.5z" />
<glyph unicode="j" horiz-adv-x="538" d="M-199 -297q47 20 84 48t64.5 67t47 94t34.5 131q0 -2 7 36t19.5 100.5t27.5 144.5t32 165q37 199 88 453l321 27q-51 -266 -92 -473q-18 -88 -34.5 -173t-30 -152t-20.5 -105.5t-7 -36.5q-20 -104 -52 -188.5t-79 -149t-113.5 -111.5t-154.5 -76zM240 1255q0 84 51 127 t137 43t135 -43t49 -127q0 -82 -50 -125t-136 -43t-136 43.5t-50 124.5z" />
<glyph unicode="k" horiz-adv-x="1085" d="M23 0l266 1366l321 27l-164 -830h5l342 389h374l-430 -446l258 -506h-348l-217 463h-4l-88 -463h-315z" />
<glyph unicode="l" horiz-adv-x="540" d="M23 0l266 1366l321 27l-272 -1393h-315z" />
<glyph unicode="m" horiz-adv-x="1734" d="M23 0l180 936l325 39l-28 -135q59 59 139 101t158 42q104 0 171.5 -47t94.5 -133q31 35 71 67.5t84 57t91 40t92 15.5q68 0 119 -20.5t84.5 -56.5t51 -83t17.5 -102q0 -20 -3 -47t-7 -49l-125 -625h-313l102 530q4 16 8 40t4 42q0 49 -29.5 78t-88.5 29q-45 0 -84 -20.5 t-72 -51.5q0 -4 -1 -9t-1 -7q-4 -8 -4 -19l-119 -612h-317l104 530q4 16 7 40t3 42q0 49 -28.5 78t-87.5 29q-47 0 -87 -21.5t-69 -50.5l-125 -647h-317z" />
<glyph unicode="n" d="M23 0l180 936l325 39l-28 -156q66 66 149.5 115t169.5 49q68 0 119 -20.5t85 -56.5t51.5 -84t17.5 -101q0 -23 -3.5 -48.5t-7.5 -47.5l-120 -625h-316l103 530q4 16 7 39t3 41q0 51 -29 80t-88 29q-49 0 -97 -30t-85 -73l-119 -616h-317z" />
<glyph unicode="o" d="M55 422q0 115 40 217t114 179t177 121t228 44q106 0 193.5 -32.5t150 -93t97.5 -145t35 -184.5q0 -115 -40 -217t-113 -178t-175.5 -120t-226.5 -44q-104 0 -192.5 32t-152 90.5t-99.5 142t-36 188.5zM369 403q0 -98 45 -152t127 -54q53 0 96 28.5t72.5 77.5t46 112.5 t16.5 131.5q0 98 -44 152.5t-122 54.5q-59 0 -103 -33t-74 -84t-45 -113.5t-15 -120.5z" />
<glyph unicode="p" horiz-adv-x="1169" d="M-59 -424l262 1360l325 39l-18 -98q47 41 108.5 73.5t149.5 32.5q74 0 137.5 -28.5t110.5 -84t74.5 -133.5t27.5 -176q0 -129 -42 -236.5t-115.5 -186.5t-173 -123t-216.5 -44q-66 0 -123 17.5t-106 42.5l-86 -455h-315zM389 270q29 -29 69 -49t93 -20q55 0 101 28.5 t78 74.5t49.5 105.5t17.5 122.5q0 100 -49.5 156.5t-120.5 56.5q-51 0 -87 -17t-65 -40z" />
<glyph unicode="q" horiz-adv-x="1169" d="M55 391q0 129 42 236.5t116 185.5t174 122t217 44q66 0 117 -14.5t100 -36.5l334 55l-270 -1407h-316l95 500q-47 -41 -108.5 -74t-149.5 -33q-74 0 -137.5 29t-110.5 84t-75 133t-28 176zM379 418q0 -100 48 -156.5t120 -56.5q51 0 87 18.5t64 40.5l86 418 q-29 29 -68.5 49.5t-90.5 20.5q-57 0 -102.5 -29t-77 -75t-49 -106.5t-17.5 -123.5z" />
<glyph unicode="r" horiz-adv-x="821" d="M23 0l182 936l323 39l-26 -139q47 70 110.5 108.5t128.5 38.5q78 0 140 -43l-68 -283q-68 39 -147 39q-123 0 -213 -114l-115 -582h-315z" />
<glyph unicode="s" horiz-adv-x="937" d="M-2 66l63 245q88 -49 189.5 -82.5t187.5 -33.5q47 0 79 20.5t32 56.5q0 35 -38 56.5t-120 46.5q-162 41 -231.5 108.5t-69.5 178.5q0 70 28.5 128t82 101t130.5 67.5t175 24.5q106 0 220 -25.5t202 -72.5l-66 -246q-96 53 -189 85t-179 32q-43 0 -72 -18.5t-29 -53.5 t38 -52.5t120 -43.5q80 -23 137 -49.5t93 -61.5t52.5 -80t16.5 -102q0 -70 -28.5 -129.5t-83 -103.5t-133.5 -68.5t-179 -24.5q-109 0 -225.5 25.5t-202.5 71.5z" />
<glyph unicode="t" horiz-adv-x="776" d="M78 702l6 201l176 47l51 217h305l-49 -229h205l-6 -246h-270l-74 -327q-4 -12 -7 -27.5t-3 -32.5q0 -47 28.5 -65.5t85.5 -18.5q25 0 50.5 5t50.5 16l37 -240q-47 -14 -109.5 -23.5t-132.5 -9.5q-66 0 -123 16.5t-100 48.5t-68 81t-25 116q0 25 4.5 49.5t10.5 49.5 l84 362z" />
<glyph unicode="u" horiz-adv-x="1142" d="M68 221q0 29 4 62.5t8 62.5l117 606h317l-102 -530q-4 -16 -7.5 -39t-3.5 -41q0 -51 28 -80t89 -29q47 0 90 24t76 58l123 637h315l-184 -944l-322 -39l31 160q-29 -31 -64.5 -59.5t-75.5 -51t-84 -36t-87 -13.5q-139 0 -203.5 72t-64.5 180z" />
<glyph unicode="v" horiz-adv-x="1026" d="M74 952h319l74 -616l317 616h332l-549 -954h-327z" />
<glyph unicode="w" horiz-adv-x="1513" d="M106 952h312l8 -592l276 594h297l43 -583l224 581h323l-454 -956h-301l-48 622l-303 -622h-299z" />
<glyph unicode="x" horiz-adv-x="1015" d="M-102 0l413 485l-221 467h326l121 -293l223 293h338l-393 -463l223 -489h-326l-123 324l-235 -324h-346z" />
<glyph unicode="y" horiz-adv-x="1011" d="M-201 -356l127 229q39 -27 66.5 -41t68.5 -14t68 17.5t59 70.5l48 78l-170 968h321l76 -643l307 643h332l-510 -946l-88 -156q-47 -84 -93 -142t-97.5 -93t-107.5 -50.5t-122 -15.5q-78 0 -154.5 30t-130.5 65z" />
<glyph unicode="z" horiz-adv-x="935" d="M-59 0l34 184l545 514h-426l49 254h844l-35 -184l-542 -514h442l-49 -254h-862z" />
<glyph unicode="{" horiz-adv-x="819" d="M8 508l6 131q129 10 189.5 41t60.5 106q0 39 -10 81t-23.5 89.5t-23.5 100.5t-10 117q0 84 42 136t119.5 82.5t187 43t242.5 16.5v-192q-164 -12 -227 -43t-63 -95q0 -33 8 -68.5t19.5 -78.5t19.5 -94.5t8 -112.5q0 -104 -82 -173t-217 -77v-20q135 -10 217 -80t82 -174 q0 -61 -8 -109.5t-19.5 -89.5t-19.5 -77t-8 -70q0 -68 63.5 -101t226.5 -43v-188q-133 2 -242.5 14t-187 42t-119.5 82t-42 136q0 63 10 115.5t23.5 98.5t23.5 86t10 81q0 74 -60.5 109t-189.5 45z" />
<glyph unicode="|" horiz-adv-x="546" d="M137 -410v1846h273v-1846h-273z" />
<glyph unicode="}" horiz-adv-x="819" d="M31 -246q162 10 226.5 43t64.5 101q0 35 -8.5 70.5t-19.5 76.5t-19.5 89t-8.5 110q0 104 82 173.5t217 80.5v20q-135 8 -217 77t-82 173q0 61 8.5 112.5t19.5 94.5t19.5 79t8.5 68q0 63 -64.5 94t-226.5 44v192q133 -4 242.5 -16.5t186.5 -43t119 -83t42 -135.5 q0 -63 -10.5 -116.5t-23 -101t-22.5 -89.5t-10 -81q0 -76 60.5 -106.5t189.5 -40.5l6 -131l-6 -133q-129 -10 -189.5 -45t-60.5 -109q0 -41 10 -81t22.5 -86t23 -98t10.5 -116q0 -84 -42 -136t-119 -82t-186.5 -42t-242.5 -14v188z" />
<glyph unicode="~" horiz-adv-x="815" d="M-2 397q43 152 104.5 230t159.5 78q57 0 104.5 -18.5t85 -40t68.5 -40t60 -18.5q18 0 31.5 12t22.5 28.5t15 34t8 27.5h197q-45 -154 -106.5 -232.5t-159.5 -78.5q-57 0 -103.5 18.5t-84.5 42t-69.5 42t-60.5 18.5q-18 0 -30.5 -12.5t-21.5 -29t-14 -33.5t-5 -28h-201z " />
<glyph unicode="&#xa1;" horiz-adv-x="622" d="M23 -20l249 874l224 -35l-109 -889zM254 1135q0 82 54 128t132 46t131.5 -46t53.5 -128q0 -80 -53.5 -126t-131.5 -46t-132 46t-54 126z" />
<glyph unicode="&#xa2;" horiz-adv-x="980" d="M59 418q0 117 42 219t118 179t180.5 121t229.5 44q25 0 48 -1t46 -3l76 205h143l-86 -232q86 -25 160 -71l-109 -232q-33 23 -66.5 42.5t-68.5 31.5l-14 -38q-15 -38 -35.5 -94.5t-45 -123t-45 -123.5t-34.5 -96l-14 -39h24q57 0 116.5 16.5t117.5 38.5l30 -233 q-63 -27 -139 -44.5t-172 -17.5h-32.5t-32.5 4l-90 -250h-142l101 275q-135 45 -220.5 150.5t-85.5 271.5zM367 428q0 -66 23.5 -112t64.5 -72l184 501q-70 0 -121 -28.5t-85 -74.5t-50 -102.5t-16 -111.5z" />
<glyph unicode="&#xa3;" horiz-adv-x="1165" d="M-12 203q123 16 187.5 56t80.5 126q14 74 18 176h-176l-8 141h189q4 59 8 112.5t14 100.5q18 94 62.5 168t110 124t147 77t178.5 27q51 0 107.5 -9.5t110.5 -28t103 -44t88 -58.5l-110 -231q-61 53 -135 87t-148 32q-90 0 -144.5 -51.5t-70.5 -137.5q-6 -29 -11 -72.5 t-9 -95.5h331l-10 -141h-332q-4 -45 -9 -87t-11 -79q-4 -20 -9 -39.5t-12 -38.5q43 -41 100.5 -65.5t114.5 -24.5q55 0 100.5 39t80.5 140l217 -62q-53 -197 -163 -286t-241 -89q-51 0 -96 13.5t-86 36t-76 53t-63 61.5q-66 -68 -165 -109.5t-241 -54.5q-4 63 -10 117 q-4 23 -5 43.5t-3 36.5q-2 20 -4 37z" />
<glyph unicode="&#xa4;" horiz-adv-x="1126" d="M49 414l6 141h166q0 23 3 42t5 40q4 23 8.5 46.5t10.5 45.5h-115l-6 141h162q70 203 205 324t354 121q49 0 104.5 -7.5t107.5 -21.5t99 -35.5t84 -48.5l-102 -239q-55 41 -130 68.5t-147 27.5q-86 0 -148.5 -53.5t-97.5 -135.5h404l-6 -141h-449q-4 -23 -8 -45t-8 -45 q-4 -20 -7 -40.5t-5 -43.5h342l6 -141h-344q10 -96 64.5 -149.5t185.5 -53.5q55 0 110 10t105 33v-244q-53 -23 -132 -36t-159 -13q-250 0 -375 119t-131 334h-162z" />
<glyph unicode="&#xa5;" horiz-adv-x="1253" d="M59 223l37 139h359l26 136h-360l20 141h318l-281 641h344l172 -481l348 481h347l-527 -641h318l-37 -141h-359l-24 -136h358l-18 -139h-361l-43 -223h-319l43 223h-361z" />
<glyph unicode="&#xa7;" horiz-adv-x="1079" d="M43 -4l113 217q86 -57 176 -92t180 -35q16 0 34.5 3t35 12.5t28 22.5t11.5 36q0 20 -18.5 38.5t-49.5 36t-71 33t-85 31.5q-57 20 -115.5 44t-106.5 55.5t-77.5 75.5t-29.5 106q0 57 21.5 102t56 78t81.5 55.5t99 32.5q-33 33 -52.5 70.5t-19.5 89.5q0 76 34 134t89 97 t128 58.5t150 19.5q51 0 113.5 -8.5t125 -24.5t118 -39.5t94.5 -54.5l-115 -215q-86 51 -168 86t-164 35q-33 0 -66.5 -13.5t-33.5 -54.5q0 -23 17.5 -40t48 -33.5t70.5 -32t83 -31.5q53 -23 108.5 -49.5t99.5 -61.5t71.5 -78t27.5 -98q0 -53 -19 -95t-53 -75t-78 -55.5 t-91 -34.5q35 -33 58.5 -73t23.5 -93q0 -78 -38 -137t-98.5 -98t-134 -58.5t-147.5 -19.5q-55 0 -118.5 8t-127 25.5t-121 42t-98.5 55.5zM328 655q0 -31 32.5 -59.5t76.5 -51t88 -40t69 -27.5q35 -16 69.5 -30.5t69.5 -30.5q29 20 58.5 52t29.5 71q0 31 -31.5 58.5 t-73.5 50t-86 38.5t-69 27q-35 16 -68.5 29.5t-66.5 33.5q-31 -23 -64.5 -52.5t-33.5 -68.5z" />
<glyph unicode="&#xa8;" horiz-adv-x="815" d="M160 1245q0 78 45 118t119 40q72 0 116.5 -40t44.5 -118t-45 -118t-116 -40q-74 0 -119 40t-45 118zM637 1245q0 78 45 118t117 40q74 0 119 -40t45 -118t-45.5 -118t-118.5 -40q-72 0 -117 40t-45 118z" />
<glyph unicode="&#xa9;" horiz-adv-x="1636" d="M102 637q0 158 59.5 296t162 241.5t240.5 164t296 60.5t296 -60.5t241.5 -164t163 -241.5t59.5 -296t-59.5 -295t-163 -240.5t-241.5 -163t-296 -59.5t-296 59.5t-240.5 163t-162 240.5t-59.5 295zM172 637q0 -143 54.5 -269t147.5 -220.5t218 -149.5t268 -55t268 55 t219.5 149.5t148.5 220.5t54 269t-54 269t-148.5 221.5t-219 150.5t-268.5 55q-143 0 -268 -55t-218 -150.5t-147.5 -221.5t-54.5 -269zM479 637q0 186 114 298t318 112q74 0 139.5 -15.5t120.5 -38.5l-75 -207q-37 23 -86 36.5t-97 13.5q-86 0 -134 -52.5t-48 -140.5 q0 -92 45 -146.5t137 -54.5q53 0 100.5 14.5t94.5 41.5l53 -213q-43 -23 -116.5 -37.5t-143.5 -14.5q-195 0 -308.5 100.5t-113.5 303.5z" />
<glyph unicode="&#xaa;" horiz-adv-x="813" d="M92 700q0 59 26.5 111.5t85 89.5t148.5 56.5t219 15.5l7 26q31 119 -109 119q-55 0 -122.5 -22.5t-127.5 -57.5l-35 189q59 35 152.5 60.5t185.5 25.5q166 0 252 -81t55 -239l-47 -225q-14 -72 2.5 -124t38.5 -89l-266 -53q-16 23 -28.5 49.5t-16.5 69.5h-8 q-45 -45 -100.5 -81t-118.5 -36q-86 0 -139.5 54t-53.5 142zM324 739q0 -33 23.5 -53t58.5 -20t65.5 16t48.5 35l33 151q-125 -4 -177 -38.5t-52 -90.5z" />
<glyph unicode="&#xab;" horiz-adv-x="1239" d="M12 356l49 246l572 311l20 -202l-334 -242v-4l234 -234l-90 -186zM596 352l49 252l592 328l14 -205l-344 -258v-4l242 -248l-90 -192z" />
<glyph unicode="&#xac;" horiz-adv-x="1167" d="M55 391q0 129 42 236.5t116 185.5t174 122t217 44q66 0 117 -14.5t100 -36.5l334 55l-135 -686q-10 -47 1 -65.5t58 -22.5l-71 -229q-82 -8 -139.5 -1t-95.5 26.5t-57.5 48t-23.5 65.5h-2q-53 -57 -125.5 -103.5t-158.5 -46.5q-74 0 -137.5 29t-110.5 84t-75 133t-28 176 zM379 418q0 -100 48 -156.5t120 -56.5q51 0 87 18.5t64 40.5l86 418q-29 29 -68.5 49.5t-90.5 20.5q-57 0 -102.5 -29t-77 -75t-49 -106.5t-17.5 -123.5z" />
<glyph unicode="&#xad;" horiz-adv-x="761" d="M59 371v252h652v-252h-652z" />
<glyph unicode="&#xae;" horiz-adv-x="1636" d="M102 637q0 158 59.5 296t162 241.5t240.5 164t296 60.5t296 -60.5t241.5 -164t163 -241.5t59.5 -296t-59.5 -295t-163 -240.5t-241.5 -163t-296 -59.5t-296 59.5t-240.5 163t-162 240.5t-59.5 295zM172 637q0 -143 54.5 -269t147.5 -220.5t218 -149.5t268 -55t268 55 t219.5 149.5t148.5 220.5t54 269t-54 269t-148.5 221.5t-219 150.5t-268.5 55q-143 0 -268 -55t-218 -150.5t-147.5 -221.5t-54.5 -269zM530 264v766h371q162 0 245 -67.5t83 -184.5q0 -70 -36 -128t-110 -89l177 -297h-263l-133 248l-90 -6v-242h-244zM772 655l84 2 q125 4 125 107q0 47 -30.5 72.5t-98.5 25.5h-80v-207z" />
<glyph unicode="&#xaf;" horiz-adv-x="815" d="M180 1124l29 179h698l17 -179h-744z" />
<glyph unicode="&#xb0;" horiz-adv-x="786" d="M147 944q0 74 30 140.5t81 115.5t118.5 79t145.5 30q70 0 128.5 -22.5t99.5 -62.5t63.5 -96.5t22.5 -126.5q0 -76 -31 -142t-83 -115.5t-121 -78t-146 -28.5q-141 0 -224.5 85t-83.5 222zM258 948q0 -94 57.5 -150.5t155.5 -56.5q51 0 97 20.5t81 56.5t54.5 82t19.5 97 q0 98 -59.5 152.5t-153.5 54.5q-53 0 -98 -20.5t-80 -55t-54.5 -81t-19.5 -99.5z" />
<glyph unicode="&#xb1;" horiz-adv-x="1636" d="M102 637q0 158 59.5 296t162 241.5t240.5 164t296 60.5t296 -60.5t241.5 -164t163 -241.5t59.5 -296t-59.5 -295t-163 -240.5t-241.5 -163t-296 -59.5t-296 59.5t-240.5 163t-162 240.5t-59.5 295zM172 637q0 -143 54.5 -269t147.5 -220.5t218 -149.5t268 -55t268 55 t219.5 149.5t148.5 220.5t54 269t-54 269t-148.5 221.5t-219 150.5t-268.5 55q-143 0 -268 -55t-218 -150.5t-147.5 -221.5t-54.5 -269zM578 256v768h337q170 0 259.5 -71.5t89.5 -200.5q0 -143 -95.5 -217t-263.5 -74h-78v-205h-249zM817 625l64 2q72 4 106.5 31.5 t34.5 86.5q0 109 -137 109h-68v-229z" />
<glyph unicode="&#xb2;" horiz-adv-x="675" d="M-4 559l20 174q100 76 172 128t118 92t68.5 72t22.5 67q0 39 -28.5 54t-63.5 15q-45 0 -88 -15.5t-82 -37.5l-47 172q66 35 137.5 54.5t143.5 19.5q51 0 103 -10.5t94 -35t69 -64.5t27 -99q0 -68 -34 -124t-87.5 -103.5t-117 -87t-124.5 -76.5h154h151l-31 -195h-577z " />
<glyph unicode="&#xb3;" horiz-adv-x="675" d="M-12 608l63 168q47 -23 114.5 -39t127.5 -16q16 0 35.5 4t37 13.5t29 23.5t11.5 37q0 43 -43.5 56t-96.5 13h-42t-46 -2l23 152q14 0 50 2t73.5 11t66.5 26.5t29 50.5q0 31 -24.5 46t-65.5 15q-43 0 -95.5 -13t-89.5 -30l-43 168q66 27 128.5 41.5t127.5 14.5 q45 0 96.5 -9.5t95.5 -31t72.5 -58.5t28.5 -92q0 -49 -21.5 -86t-55 -61.5t-73.5 -38t-79 -19.5q39 0 74.5 -12t63.5 -34.5t44.5 -56.5t16.5 -77q0 -111 -95.5 -172t-249.5 -61q-80 0 -154.5 18.5t-133.5 48.5z" />
<glyph unicode="&#xb4;" horiz-adv-x="813" d="M326 1079l276 379h348l-422 -379h-202z" />
<glyph unicode="&#xb5;" horiz-adv-x="1165" d="M-6 -330l98 250q70 -47 157 -82t167 -35q92 0 151.5 46.5t81.5 162.5l15 66q-53 -43 -109.5 -68.5t-140.5 -25.5q-70 0 -134.5 27.5t-114.5 81.5t-80 131t-30 175q0 129 42 235.5t116 183.5t174 119t217 42q66 0 117 -14.5t100 -36.5l334 55l-180 -942 q-49 -250 -179 -371t-368 -121q-115 0 -233.5 35t-200.5 86zM379 426q0 -100 48 -153.5t120 -53.5q53 0 89 18.5t64 41.5l84 403q-29 29 -68.5 49.5t-90.5 20.5q-57 0 -102.5 -27t-77 -72t-49 -104.5t-17.5 -122.5z" />
<glyph unicode="&#xb6;" horiz-adv-x="1208" d="M137 813q0 96 38 181t114 148.5t188.5 100.5t261.5 37h478l-281 -1425h-281l109 553h-18.5h-39h-46h-37.5q-84 0 -170 19t-156 65.5t-115 124t-45 196.5z" />
<glyph unicode="&#xb7;" horiz-adv-x="559" d="M96 524q0 86 54.5 136.5t140.5 50.5q88 0 140 -50.5t52 -136.5q0 -84 -52 -135t-140 -51q-86 0 -140.5 51t-54.5 135z" />
<glyph unicode="&#xb8;" horiz-adv-x="815" d="M74 -561l14 143q76 -4 127 3t81 20.5t42 34t12 45.5q0 47 -56 67.5t-167 22.5v106l281 199h172q-59 -45 -113 -82q-45 -33 -88.5 -62.5t-63.5 -41.5q104 -12 164 -61.5t60 -131.5q0 -53 -27 -100t-83 -82t-144 -56.5t-211 -23.5z" />
<glyph unicode="&#xb9;" horiz-adv-x="675" d="M139 1061l25 199l471 75l-193 -776h-254l136 531z" />
<glyph unicode="&#xba;" horiz-adv-x="925" d="M127 877q0 92 33 171.5t91 138t138 91.5t176 33q86 0 159 -27t125 -75t82 -116.5t30 -152.5q0 -94 -33 -174t-92.5 -138.5t-140.5 -92t-177 -33.5q-86 0 -158.5 27.5t-124 76.5t-80 118t-28.5 153zM383 856q0 -80 36 -127t101 -47q43 0 78 22.5t59.5 61.5t38 88t13.5 102 q0 78 -37 127.5t-103 49.5q-43 0 -77.5 -24t-59 -62.5t-37 -89t-12.5 -101.5z" />
<glyph unicode="&#xbb;" horiz-adv-x="1249" d="M4 231l342 256v2l-242 252l93 191l462 -328l-49 -254l-592 -325zM600 244l334 243v2l-234 236l91 188l452 -311l-49 -246l-571 -311z" />
<glyph unicode="&#xbc;" horiz-adv-x="1464" d="M-96 -238l1442 1518h237l-1442 -1518h-237zM180 1061l25 199l471 75l-193 -776h-254l136 531zM766 -123l2 158l346 438h316l-91 -424h78l-33 -172h-79l-37 -170h-221l32 170h-313zM967 41h157l62 283z" />
<glyph unicode="&#xbd;" horiz-adv-x="1464" d="M-96 -238l1442 1518h237l-1442 -1518h-237zM180 1061l25 199l471 75l-193 -776h-254l136 531zM743 -293l21 174q100 76 172 128t118 92t68.5 72t22.5 67q0 39 -29 54t-63 15q-45 0 -88 -15t-82 -38l-47 172q66 35 137 54.5t143 19.5q51 0 103.5 -10.5t94.5 -35 t68.5 -64.5t26.5 -99q0 -68 -34 -124t-87 -103.5t-116.5 -87t-124.5 -76.5h153h152l-31 -195h-578z" />
<glyph unicode="&#xbe;" horiz-adv-x="1464" d="M-96 -238l1442 1518h237l-1442 -1518h-237zM29 608l63 168q47 -23 114.5 -39t127.5 -16q16 0 35.5 4t37 13.5t28.5 23.5t11 37q0 43 -43 56t-96 13h-42t-46 -2l23 152q14 0 50 2t73.5 11t66.5 26.5t29 50.5q0 31 -24.5 46t-65.5 15q-43 0 -95.5 -13t-89.5 -30l-43 168 q66 27 128.5 41.5t127.5 14.5q45 0 96.5 -9.5t95.5 -31t72.5 -58.5t28.5 -92q0 -49 -21.5 -86t-55 -61.5t-73.5 -38t-79 -19.5q39 0 74.5 -12t63.5 -34.5t44.5 -56.5t16.5 -77q0 -111 -95.5 -172t-249.5 -61q-80 0 -154.5 18.5t-133.5 48.5zM766 -123l2 158l346 438h316 l-91 -424h78l-33 -172h-79l-37 -170h-221l32 170h-313zM967 41h157l62 283z" />
<glyph unicode="&#xbf;" horiz-adv-x="856" d="M37 326q0 137 82 213.5t217 117.5q80 23 125 39.5t45 40.5q0 8 -10.5 21.5t-25.5 27t-31.5 27.5t-28.5 25l219 24q61 -39 100 -88t39 -102q0 -86 -62.5 -136.5t-181.5 -82.5q-92 -25 -138 -45.5t-46 -67.5q0 -33 19.5 -53.5t48 -32.5t61.5 -16.5t61 -4.5q59 0 119 10.5 t94 20.5l-65 -268q-41 -14 -93.5 -19.5t-99.5 -5.5q-86 0 -166.5 22.5t-143 67.5t-100.5 112t-38 153zM444 1137q0 80 54.5 127t132.5 47t131 -47t53 -127q0 -82 -53 -127t-131 -45t-132.5 45t-54.5 127z" />
<glyph unicode="&#xc0;" horiz-adv-x="1323" d="M-102 0l741 1280h401l197 -1280h-324l-36 272h-490l-154 -272h-335zM500 1747h346l129 -379h-203zM524 532h322l-53 480z" />
<glyph unicode="&#xc1;" horiz-adv-x="1323" d="M-102 0l741 1280h401l197 -1280h-324l-36 272h-490l-154 -272h-335zM524 532h322l-53 480zM731 1368l277 379h348l-422 -379h-203z" />
<glyph unicode="&#xc2;" horiz-adv-x="1323" d="M-102 0l741 1280h401l197 -1280h-324l-36 272h-490l-154 -272h-335zM465 1368l315 383h285l170 -383h-240l-94 221h-4l-176 -221h-256zM524 532h322l-53 480z" />
<glyph unicode="&#xc3;" horiz-adv-x="1323" d="M-102 0l741 1280h401l197 -1280h-324l-36 272h-490l-154 -272h-335zM428 1393q43 152 104.5 229.5t159.5 77.5q57 0 104.5 -18.5t85.5 -40t68.5 -40t59.5 -18.5q18 0 31.5 12.5t22.5 28.5t15 33.5t8 28.5h197q-45 -154 -106.5 -233t-159.5 -79q-57 0 -103.5 18.5t-84 42 t-69.5 42t-61 18.5q-18 0 -30.5 -12.5t-21.5 -28.5t-14 -33.5t-5 -27.5h-201zM524 532h322l-53 480z" />
<glyph unicode="&#xc4;" horiz-adv-x="1323" d="M-102 0l741 1280h401l197 -1280h-324l-36 272h-490l-154 -272h-335zM483 1534q0 78 45 118t119 40q72 0 117 -40t45 -118t-45 -118t-117 -40q-74 0 -119 40t-45 118zM524 532h322l-53 480zM961 1534q0 78 45 118t116 40q74 0 119 -40t45 -118t-45 -118t-119 -40 q-72 0 -116.5 40t-44.5 118z" />
<glyph unicode="&#xc5;" horiz-adv-x="1323" d="M-100 0l725 1249q-31 27 -49.5 64t-18.5 84q0 61 26.5 108t69.5 81t99.5 51.5t115.5 17.5q53 0 103.5 -14.5t88.5 -42t60.5 -69.5t22.5 -99q0 -59 -26.5 -105.5t-69.5 -75.5l192 -1249h-324l-36 272h-490l-153 -272h-336zM526 532h322l-53 480zM680 1403q0 -66 48 -96.5 t112 -30.5q72 0 125 39.5t53 111.5q0 68 -45 98.5t-111 30.5q-74 0 -128 -39.5t-54 -113.5z" />
<glyph unicode="&#xc6;" horiz-adv-x="1839" d="M-106 0l874 1280h1149l-49 -262h-619l-47 -246h512l-51 -260h-512l-49 -250h618l-51 -262h-936l53 272h-360l-182 -272h-350zM590 532h246l106 539z" />
<glyph unicode="&#xc7;" horiz-adv-x="1253" d="M90 557q0 150 49 286t145.5 240.5t241 166t332.5 61.5q113 0 219.5 -19.5t210.5 -54.5l-57 -287q-100 39 -194.5 59.5t-184.5 20.5q-106 0 -187 -33.5t-135.5 -93t-82 -138.5t-27.5 -169t26.5 -155.5t73.5 -108.5t113.5 -63.5t144.5 -20.5t158 20.5t151 50.5l54 -272 q-98 -43 -195.5 -60.5t-185.5 -17.5h-10q-35 -25 -65 -45t-46 -30q104 -12 163.5 -61.5t59.5 -131.5q0 -53 -26.5 -100t-83 -82t-144.5 -56.5t-211 -23.5l15 143q76 -4 127 3t80.5 20.5t42 34t12.5 45.5q0 47 -56.5 67.5t-166.5 22.5v106l143 103q-117 20 -210 68 t-158.5 122t-100.5 170t-35 213z" />
<glyph unicode="&#xc8;" horiz-adv-x="1157" d="M43 0l248 1280h936l-49 -262h-619l-47 -246h510l-51 -260h-510l-47 -250h616l-51 -262h-936zM395 1747h346l129 -379h-202z" />
<glyph unicode="&#xc9;" horiz-adv-x="1157" d="M43 0l248 1280h936l-49 -262h-619l-47 -246h510l-51 -260h-510l-47 -250h616l-51 -262h-936zM643 1368l277 379h348l-422 -379h-203z" />
<glyph unicode="&#xca;" horiz-adv-x="1157" d="M43 0l248 1280h936l-49 -262h-619l-47 -246h510l-51 -260h-510l-47 -250h616l-51 -262h-936zM381 1368l315 383h285l170 -383h-240l-94 221h-4l-176 -221h-256z" />
<glyph unicode="&#xcb;" horiz-adv-x="1157" d="M43 0l248 1280h936l-49 -262h-619l-47 -246h510l-51 -260h-510l-47 -250h616l-51 -262h-936zM383 1534q0 78 45 118t119 40q72 0 117 -40t45 -118t-45.5 -118t-116.5 -40q-74 0 -119 40t-45 118zM860 1534q0 78 45 118t117 40q74 0 119 -40t45 -118t-45 -118t-119 -40 q-72 0 -117 40t-45 118z" />
<glyph unicode="&#xcc;" horiz-adv-x="598" d="M45 0l248 1280h325l-247 -1280h-326zM104 1747h347l129 -379h-203z" />
<glyph unicode="&#xcd;" horiz-adv-x="598" d="M45 0l248 1280h325l-247 -1280h-326zM346 1368l277 379h348l-422 -379h-203z" />
<glyph unicode="&#xce;" horiz-adv-x="598" d="M45 0l248 1280h325l-247 -1280h-326zM61 1368l316 383h285l169 -383h-239l-94 221h-4l-177 -221h-256z" />
<glyph unicode="&#xcf;" horiz-adv-x="598" d="M45 0l248 1280h325l-247 -1280h-326zM78 1534q0 78 45 118t119 40q72 0 116.5 -40t44.5 -118t-45 -118t-116 -40q-74 0 -119 40t-45 118zM555 1534q0 78 45 118t117 40q74 0 119 -40t45 -118t-45 -118t-119 -40q-72 0 -117 40t-45 118z" />
<glyph unicode="&#xd0;" horiz-adv-x="1447" d="M66 522v250h182l98 508h420q135 0 253 -35t206 -104.5t138 -171t50 -236.5q0 -145 -46 -277t-146.5 -233.5t-258 -162t-380.5 -60.5h-484l101 522h-133zM473 260h160q98 0 180 28.5t142.5 86t93 142.5t32.5 198q0 156 -95 229.5t-253 75.5h-110l-50 -248h248v-250h-297z " />
<glyph unicode="&#xd1;" horiz-adv-x="1452" d="M43 0l240 1278h370l355 -846l151 848h314l-242 -1292h-365l-354 858l-154 -846h-315zM487 1393q43 152 104.5 229.5t160.5 77.5q57 0 104 -18.5t85 -40t68.5 -40t59.5 -18.5q18 0 31.5 12.5t23 28.5t15.5 33.5t8 28.5h196q-45 -154 -106 -233t-160 -79q-57 0 -103 18.5 t-84 42t-70 42t-60 18.5q-18 0 -30.5 -12.5t-22 -28.5t-14.5 -33.5t-5 -27.5h-201z" />
<glyph unicode="&#xd2;" horiz-adv-x="1497" d="M92 559q0 160 55.5 297t154.5 238.5t235.5 160t300.5 58.5q131 0 245.5 -40t200.5 -116t135 -186.5t49 -249.5q0 -160 -55 -297t-154.5 -238.5t-236.5 -160t-299 -58.5q-131 0 -246 40t-201 116t-135 186.5t-49 249.5zM426 567q0 -150 83 -244t236 -94q96 0 169 44 t122 114t75 156t26 170q0 154 -83 246t-237 92q-96 0 -170 -43t-123 -113t-73.5 -156t-24.5 -172zM532 1759h347l129 -379h-203z" />
<glyph unicode="&#xd3;" horiz-adv-x="1497" d="M92 559q0 160 55.5 297t154.5 238.5t235.5 160t300.5 58.5q131 0 245.5 -40t200.5 -116t135 -186.5t49 -249.5q0 -160 -55 -297t-154.5 -238.5t-236.5 -160t-299 -58.5q-131 0 -246 40t-201 116t-135 186.5t-49 249.5zM426 567q0 -150 83 -244t236 -94q96 0 169 44 t122 114t75 156t26 170q0 154 -83 246t-237 92q-96 0 -170 -43t-123 -113t-73.5 -156t-24.5 -172zM799 1380l276 379h348l-422 -379h-202z" />
<glyph unicode="&#xd4;" horiz-adv-x="1497" d="M92 559q0 160 55.5 297t154.5 238.5t235.5 160t300.5 58.5q131 0 245.5 -40t200.5 -116t135 -186.5t49 -249.5q0 -160 -55 -297t-154.5 -238.5t-236.5 -160t-299 -58.5q-131 0 -246 40t-201 116t-135 186.5t-49 249.5zM426 567q0 -150 83 -244t236 -94q96 0 169 44 t122 114t75 156t26 170q0 154 -83 246t-237 92q-96 0 -170 -43t-123 -113t-73.5 -156t-24.5 -172zM516 1368l315 383h285l170 -383h-239l-95 221h-4l-176 -221h-256z" />
<glyph unicode="&#xd5;" horiz-adv-x="1497" d="M92 559q0 160 55.5 297t154.5 238.5t235.5 160t300.5 58.5q131 0 245.5 -40t200.5 -116t135 -186.5t49 -249.5q0 -160 -55 -297t-154.5 -238.5t-236.5 -160t-299 -58.5q-131 0 -246 40t-201 116t-135 186.5t-49 249.5zM426 567q0 -150 83 -244t236 -94q96 0 169 44 t122 114t75 156t26 170q0 154 -83 246t-237 92q-96 0 -170 -43t-123 -113t-73.5 -156t-24.5 -172zM504 1393q43 152 104.5 229.5t159.5 77.5q57 0 104.5 -18.5t85 -40t68.5 -40t59 -18.5q18 0 31.5 12.5t23 28.5t15.5 33.5t8 28.5h197q-45 -154 -106.5 -233t-159.5 -79 q-57 0 -103.5 18.5t-84.5 42t-69.5 42t-60.5 18.5q-18 0 -30.5 -12.5t-21.5 -28.5t-14 -33.5t-5 -27.5h-201z" />
<glyph unicode="&#xd6;" horiz-adv-x="1497" d="M92 559q0 160 55.5 297t154.5 238.5t235.5 160t300.5 58.5q131 0 245.5 -40t200.5 -116t135 -186.5t49 -249.5q0 -160 -55 -297t-154.5 -238.5t-236.5 -160t-299 -58.5q-131 0 -246 40t-201 116t-135 186.5t-49 249.5zM426 567q0 -150 83 -244t236 -94q96 0 169 44 t122 114t75 156t26 170q0 154 -83 246t-237 92q-96 0 -170 -43t-123 -113t-73.5 -156t-24.5 -172zM532 1534q0 78 45.5 118t118.5 40q72 0 117 -40t45 -118t-45 -118t-117 -40q-74 0 -119 40t-45 118zM1010 1534q0 78 45 118t116 40q74 0 119 -40t45 -118t-45 -118t-119 -40 q-72 0 -116.5 40t-44.5 118z" />
<glyph unicode="&#xd7;" horiz-adv-x="1075" d="M70 791l166 165l303 -307l305 307l166 -165l-310 -302l308 -303l-166 -166l-303 306l-301 -306l-166 166l305 301z" />
<glyph unicode="&#xd8;" horiz-adv-x="1497" d="M51 -137l219 262q-82 74 -129 179.5t-47 242.5q0 158 55.5 297t154.5 243.5t235.5 165t298.5 60.5q100 0 191 -21.5t165 -66.5l162 192h160l-220 -260q80 -76 127 -181.5t47 -240.5q0 -160 -55 -299t-154.5 -243.5t-236.5 -165t-299 -60.5q-100 0 -189.5 22.5 t-166.5 63.5l-162 -190h-156zM426 567q0 -57 14.5 -106t38.5 -90l531 624q-78 55 -191 56q-96 0 -170 -43t-123 -113t-74.5 -156t-25.5 -172zM553 287q80 -57 195 -58q96 0 168.5 44t121.5 114t75 156t26 170q0 57 -14.5 107t-39.5 91l-266 -311q-51 -59 -98 -114.5 t-84 -100.5q-43 -53 -84 -98z" />
<glyph unicode="&#xd9;" horiz-adv-x="1357" d="M100 393q0 35 7.5 82t15.5 84l141 721h326l-139 -727q-6 -27 -11.5 -54.5t-5.5 -56.5q0 -207 232 -206q113 0 169 66.5t78 176.5l156 801h324l-158 -815q-47 -252 -197.5 -374t-390.5 -122q-262 0 -403.5 110.5t-143.5 313.5zM473 1747h346l129 -379h-203z" />
<glyph unicode="&#xda;" horiz-adv-x="1357" d="M100 393q0 35 7.5 82t15.5 84l141 721h326l-139 -727q-6 -27 -11.5 -54.5t-5.5 -56.5q0 -207 232 -206q113 0 169 66.5t78 176.5l156 801h324l-158 -815q-47 -252 -197.5 -374t-390.5 -122q-262 0 -403.5 110.5t-143.5 313.5zM717 1368l276 379h348l-421 -379h-203z" />
<glyph unicode="&#xdb;" horiz-adv-x="1357" d="M100 393q0 35 7.5 82t15.5 84l141 721h326l-139 -727q-6 -27 -11.5 -54.5t-5.5 -56.5q0 -207 232 -206q113 0 169 66.5t78 176.5l156 801h324l-158 -815q-47 -252 -197.5 -374t-390.5 -122q-262 0 -403.5 110.5t-143.5 313.5zM449 1368l315 383h285l170 -383h-240 l-94 221h-4l-176 -221h-256z" />
<glyph unicode="&#xdc;" horiz-adv-x="1357" d="M100 393q0 35 7.5 82t15.5 84l141 721h326l-139 -727q-6 -27 -11.5 -54.5t-5.5 -56.5q0 -207 232 -206q113 0 169 66.5t78 176.5l156 801h324l-158 -815q-47 -252 -197.5 -374t-390.5 -122q-262 0 -403.5 110.5t-143.5 313.5zM442 1534q0 78 45 118t119 40q72 0 117 -40 t45 -118t-45 -118t-117 -40q-74 0 -119 40t-45 118zM920 1534q0 78 45 118t116 40q74 0 119 -40t45 -118t-45 -118t-119 -40q-72 0 -116.5 40t-44.5 118z" />
<glyph unicode="&#xdd;" horiz-adv-x="1251" d="M178 1280h334l168 -510l354 510h355l-598 -797l-95 -483h-319l94 489zM643 1368l277 379h348l-422 -379h-203z" />
<glyph unicode="&#xde;" horiz-adv-x="1216" d="M43 0l248 1280h325l-34 -178h104q119 0 213 -34t159.5 -91t99.5 -131t34 -156q0 -104 -37 -195.5t-110.5 -158t-186.5 -105t-264 -38.5h-188l-37 -193h-326zM446 444h156q68 0 116 19.5t79.5 51.5t46 72t14.5 81q0 78 -58.5 127t-172.5 49h-105z" />
<glyph unicode="&#xdf;" horiz-adv-x="1335" d="M45 702l10 201l201 45q4 31 10 56q4 23 7 39t6 18q18 96 64 165.5t112.5 113.5t149.5 64.5t175 20.5q100 0 184.5 -24.5t143.5 -69.5t93 -107.5t34 -136.5q0 -98 -39 -151t-85 -84t-84 -52.5t-38 -56.5q0 -20 21.5 -39.5t54.5 -43t71 -52t70.5 -67.5t54 -90.5 t21.5 -118.5q0 -76 -30.5 -142.5t-84 -115.5t-128 -77t-160.5 -28q-123 0 -211 27t-170 70l80 239q66 -43 119 -67.5t116 -24.5q61 0 95 33t34 86q0 33 -18.5 59.5t-45 51t-59.5 49t-59.5 53t-45 63.5t-18.5 80q0 63 33 106.5t73 80t73.5 75.5t33.5 92q0 61 -37.5 100.5 t-107.5 39.5q-72 0 -118 -41t-62 -119l-201 -1022h-309l137 692z" />
<glyph unicode="&#xe0;" horiz-adv-x="1050" d="M12 238q0 74 37 137t114 108t195.5 66.5t282.5 11.5l4 25q31 154 -178 153q-76 0 -156 -20.5t-145 -48.5l-27 241q70 29 170.5 49.5t204.5 20.5q150 0 246 -35t146 -95t59.5 -143t-13.5 -180l-49 -231q-10 -47 1 -65.5t59 -22.5l-72 -229q-82 -8 -140.5 -1t-96.5 27.5 t-58.5 50t-24.5 66.5h-2q-51 -59 -119.5 -104.5t-166.5 -45.5q-61 0 -111.5 21.5t-86.5 58.5t-54.5 85t-18.5 100zM254 1458h346l129 -379h-203zM317 285q0 -47 32 -76t83 -29q43 0 82 18.5t64 41.5l36 184q-297 -6 -297 -139z" />
<glyph unicode="&#xe1;" horiz-adv-x="1050" d="M12 238q0 74 37 137t114 108t195.5 66.5t282.5 11.5l4 25q31 154 -178 153q-76 0 -156 -20.5t-145 -48.5l-27 241q70 29 170.5 49.5t204.5 20.5q150 0 246 -35t146 -95t59.5 -143t-13.5 -180l-49 -231q-10 -47 1 -65.5t59 -22.5l-72 -229q-82 -8 -140.5 -1t-96.5 27.5 t-58.5 50t-24.5 66.5h-2q-51 -59 -119.5 -104.5t-166.5 -45.5q-61 0 -111.5 21.5t-86.5 58.5t-54.5 85t-18.5 100zM317 285q0 -47 32 -76t83 -29q43 0 82 18.5t64 41.5l36 184q-297 -6 -297 -139zM461 1079l276 379h348l-421 -379h-203z" />
<glyph unicode="&#xe2;" horiz-adv-x="1050" d="M12 238q0 74 37 137t114 108t195.5 66.5t282.5 11.5l4 25q31 154 -178 153q-76 0 -156 -20.5t-145 -48.5l-27 241q70 29 170.5 49.5t204.5 20.5q150 0 246 -35t146 -95t59.5 -143t-13.5 -180l-49 -231q-10 -47 1 -65.5t59 -22.5l-72 -229q-82 -8 -140.5 -1t-96.5 27.5 t-58.5 50t-24.5 66.5h-2q-51 -59 -119.5 -104.5t-166.5 -45.5q-61 0 -111.5 21.5t-86.5 58.5t-54.5 85t-18.5 100zM215 1079l315 383h285l170 -383h-240l-94 221h-4l-176 -221h-256zM317 285q0 -47 32 -76t83 -29q43 0 82 18.5t64 41.5l36 184q-297 -6 -297 -139z" />
<glyph unicode="&#xe3;" horiz-adv-x="1050" d="M12 238q0 74 37 137t114 108t195.5 66.5t282.5 11.5l4 25q31 154 -178 153q-76 0 -156 -20.5t-145 -48.5l-27 241q70 29 170.5 49.5t204.5 20.5q150 0 246 -35t146 -95t59.5 -143t-13.5 -180l-49 -231q-10 -47 1 -65.5t59 -22.5l-72 -229q-82 -8 -140.5 -1t-96.5 27.5 t-58.5 50t-24.5 66.5h-2q-51 -59 -119.5 -104.5t-166.5 -45.5q-61 0 -111.5 21.5t-86.5 58.5t-54.5 85t-18.5 100zM229 1104q43 152 104.5 229.5t160.5 77.5q57 0 104 -18.5t85 -40t68.5 -40t59.5 -18.5q18 0 31.5 12.5t22.5 29t15.5 33.5t8.5 28h196q-45 -154 -106 -233 t-160 -79q-57 0 -103 18.5t-84 42t-70 42t-60 18.5q-18 0 -30.5 -12t-22 -28.5t-14.5 -34t-5 -27.5h-201zM317 285q0 -47 32 -76t83 -29q43 0 82 18.5t64 41.5l36 184q-297 -6 -297 -139z" />
<glyph unicode="&#xe4;" horiz-adv-x="1050" d="M12 238q0 74 37 137t114 108t195.5 66.5t282.5 11.5l4 25q31 154 -178 153q-76 0 -156 -20.5t-145 -48.5l-27 241q70 29 170.5 49.5t204.5 20.5q150 0 246 -35t146 -95t59.5 -143t-13.5 -180l-49 -231q-10 -47 1 -65.5t59 -22.5l-72 -229q-82 -8 -140.5 -1t-96.5 27.5 t-58.5 50t-24.5 66.5h-2q-51 -59 -119.5 -104.5t-166.5 -45.5q-61 0 -111.5 21.5t-86.5 58.5t-54.5 85t-18.5 100zM242 1231q0 78 45 118t119 40q72 0 116.5 -40t44.5 -118t-45 -118t-116 -40q-74 0 -119 40t-45 118zM317 285q0 -47 32 -76t83 -29q43 0 82 18.5t64 41.5 l36 184q-297 -6 -297 -139zM719 1231q0 78 45 118t117 40q74 0 118.5 -40t44.5 -118t-45 -118t-118 -40q-72 0 -117 40t-45 118z" />
<glyph unicode="&#xe5;" horiz-adv-x="1050" d="M12 238q0 74 37 137t114 108t195.5 66.5t282.5 11.5l4 25q31 154 -178 153q-76 0 -156 -20.5t-145 -48.5l-27 241q70 29 170.5 49.5t204.5 20.5q150 0 246 -35t146 -95t59.5 -143t-13.5 -180l-49 -231q-10 -47 1 -65.5t59 -22.5l-72 -229q-82 -8 -140.5 -1t-96.5 27.5 t-58.5 50t-24.5 66.5h-2q-51 -59 -119.5 -104.5t-166.5 -45.5q-61 0 -111.5 21.5t-86.5 58.5t-54.5 85t-18.5 100zM317 285q0 -47 32 -76t83 -29q43 0 82 18.5t64 41.5l36 184q-297 -6 -297 -139zM352 1292q0 61 27 108.5t71 81.5t100 51t116 17q53 0 103 -14t88 -42 t60.5 -71t22.5 -98q0 -61 -26.5 -108.5t-69.5 -80t-99.5 -50t-115.5 -17.5q-53 0 -103.5 14.5t-88.5 42t-61.5 69.5t-23.5 97zM477 1298q0 -66 47 -96.5t113 -30.5q72 0 125 40t53 112q0 68 -46 97.5t-112 29.5q-72 0 -126 -39t-54 -113z" />
<glyph unicode="&#xe6;" horiz-adv-x="1628" d="M12 238q0 74 35 137t112 108t196.5 66.5t291.5 11.5l4 25q27 154 -182 153q-33 0 -73 -6t-80 -15t-78.5 -21.5t-71.5 -26.5l-27 241q70 29 171.5 50.5t205.5 21.5q123 0 210 -24.5t142 -71.5q66 47 141.5 71.5t168.5 24.5q182 0 289.5 -87t107.5 -253q0 -53 -12.5 -116.5 t-32.5 -110.5l-606 -6v-15q0 -49 19.5 -86t53 -61.5t75.5 -35.5t89 -11q76 0 148.5 22.5t120.5 46.5l38 -239q-59 -27 -149 -44.5t-178 -17.5q-158 0 -267.5 52.5t-171.5 150.5q-86 -102 -185 -152.5t-224 -50.5q-66 0 -118 22.5t-88 60.5t-55.5 86t-19.5 100zM317 279 q0 -49 34 -77t83 -28q59 0 116.5 27.5t104.5 81.5q-10 29 -13 65.5t-3 73.5q-166 0 -244 -36t-78 -107zM956 561l310 2q6 16 10 44t4 46q0 59 -31.5 91t-89.5 32q-72 0 -126 -56t-77 -159z" />
<glyph unicode="&#xe7;" horiz-adv-x="995" d="M55 418q0 117 42 220t118 180t180.5 121t227.5 44q111 0 209 -24.5t176 -71.5l-97 -238q-72 45 -135 67.5t-135 22.5q-68 0 -119 -29.5t-83.5 -75.5t-49 -100.5t-16.5 -105.5q0 -109 64.5 -162t168.5 -53q57 0 115.5 14.5t112.5 34.5l40 -231q-57 -25 -133.5 -43.5 t-169.5 -20.5q-35 -25 -62.5 -44t-43.5 -29q104 -12 163.5 -61.5t59.5 -131.5q0 -53 -26.5 -100t-83 -82t-144.5 -56.5t-211 -23.5l15 143q76 -4 127 3t80.5 20.5t42 34t12.5 45.5q0 47 -56.5 67.5t-167.5 22.5v106l142 101q-80 16 -146.5 53t-114.5 92t-75 128t-27 163z " />
<glyph unicode="&#xe8;" horiz-adv-x="1067" d="M55 424q0 117 42 218t118 177t179.5 120t223.5 44q182 0 290 -87t108 -253q0 -53 -12.5 -116.5t-32.5 -110.5l-606 -6v-15q0 -49 19 -86t52 -61.5t76 -35.5t90 -11q76 0 148.5 22.5t119.5 46.5l39 -239q-59 -27 -150 -44.5t-184 -17.5q-117 0 -213 30t-163.5 88 t-105.5 143t-38 194zM289 1458h346l129 -379h-203zM397 561l310 2q6 16 10 44t4 46q0 59 -32 91t-89 32q-72 0 -126 -56t-77 -159z" />
<glyph unicode="&#xe9;" horiz-adv-x="1067" d="M55 424q0 117 42 218t118 177t179.5 120t223.5 44q182 0 290 -87t108 -253q0 -53 -12.5 -116.5t-32.5 -110.5l-606 -6v-15q0 -49 19 -86t52 -61.5t76 -35.5t90 -11q76 0 148.5 22.5t119.5 46.5l39 -239q-59 -27 -150 -44.5t-184 -17.5q-117 0 -213 30t-163.5 88 t-105.5 143t-38 194zM397 561l310 2q6 16 10 44t4 46q0 59 -32 91t-89 32q-72 0 -126 -56t-77 -159zM514 1079l277 379h348l-422 -379h-203z" />
<glyph unicode="&#xea;" horiz-adv-x="1067" d="M55 424q0 117 42 218t118 177t179.5 120t223.5 44q182 0 290 -87t108 -253q0 -53 -12.5 -116.5t-32.5 -110.5l-606 -6v-15q0 -49 19 -86t52 -61.5t76 -35.5t90 -11q76 0 148.5 22.5t119.5 46.5l39 -239q-59 -27 -150 -44.5t-184 -17.5q-117 0 -213 30t-163.5 88 t-105.5 143t-38 194zM233 1079l316 383h285l170 -383h-240l-94 221h-4l-177 -221h-256zM397 561l310 2q6 16 10 44t4 46q0 59 -32 91t-89 32q-72 0 -126 -56t-77 -159z" />
<glyph unicode="&#xeb;" horiz-adv-x="1067" d="M55 424q0 117 42 218t118 177t179.5 120t223.5 44q182 0 290 -87t108 -253q0 -53 -12.5 -116.5t-32.5 -110.5l-606 -6v-15q0 -49 19 -86t52 -61.5t76 -35.5t90 -11q76 0 148.5 22.5t119.5 46.5l39 -239q-59 -27 -150 -44.5t-184 -17.5q-117 0 -213 30t-163.5 88 t-105.5 143t-38 194zM262 1231q0 78 45 118t119 40q72 0 117 -40t45 -118t-45 -118t-117 -40q-74 0 -119 40t-45 118zM397 561l310 2q6 16 10 44t4 46q0 59 -32 91t-89 32q-72 0 -126 -56t-77 -159zM739 1231q0 78 45 118t117 40q74 0 119 -40t45 -118t-45 -118t-119 -40 q-72 0 -117 40t-45 118z" />
<glyph unicode="&#xec;" horiz-adv-x="540" d="M29 0l184 948l322 27l-189 -975h-317zM43 1458h346l129 -379h-203z" />
<glyph unicode="&#xed;" horiz-adv-x="540" d="M29 0l184 948l322 27l-189 -975h-317zM256 1079l276 379h349l-422 -379h-203z" />
<glyph unicode="&#xee;" horiz-adv-x="540" d="M12 1079l316 383h284l170 -383h-239l-94 221h-5l-176 -221h-256zM29 0l184 948l322 27l-189 -975h-317z" />
<glyph unicode="&#xef;" horiz-adv-x="540" d="M18 1231q0 78 45.5 118t118.5 40q72 0 117 -40t45 -118t-45 -118t-117 -40q-74 0 -119 40t-45 118zM29 0l184 948l322 27l-189 -975h-317zM496 1231q0 78 45 118t116 40q74 0 119 -40t45 -118t-45 -118t-119 -40q-72 0 -116.5 40t-44.5 118z" />
<glyph unicode="&#xf0;" horiz-adv-x="1173" d="M53 408q0 123 43 220t110.5 165.5t151.5 104.5t168 36q82 0 142.5 -30t103.5 -81l4 2q-25 53 -64.5 124t-88.5 141l-240 -64l-37 166l164 43q-31 35 -64.5 71.5t-70.5 73.5l373 33q20 -23 40.5 -45t40.5 -47l246 63l35 -167l-170 -46q78 -123 129 -262t51 -282 q0 -137 -42 -257t-118.5 -209t-185 -141.5t-244.5 -52.5q-102 0 -190 33t-151.5 91.5t-99.5 139t-36 177.5zM375 399q0 -98 51 -148t127 -50q49 0 92 29.5t74 79.5t48 116.5t17 140.5q0 20 -1 37t-3 33q-23 35 -73 57.5t-109 22.5q-45 0 -85 -29t-70.5 -75t-49 -102 t-18.5 -112z" />
<glyph unicode="&#xf1;" d="M23 0l180 936l325 39l-28 -156q66 66 149.5 115t169.5 49q68 0 119 -20.5t85 -56.5t51.5 -84t17.5 -101q0 -23 -3.5 -48.5t-7.5 -47.5l-120 -625h-316l103 530q4 16 7 39t3 41q0 51 -29 80t-88 29q-49 0 -97 -30t-85 -73l-119 -616h-317zM303 1104q43 152 104.5 229.5 t159.5 77.5q57 0 104.5 -18.5t85.5 -40t68.5 -40t59.5 -18.5q18 0 31.5 12.5t22.5 29t15.5 33.5t8.5 28h196q-45 -154 -106.5 -233t-159.5 -79q-57 0 -103.5 18.5t-84 42t-69.5 42t-61 18.5q-18 0 -30.5 -12t-21.5 -28.5t-14 -34t-5 -27.5h-201z" />
<glyph unicode="&#xf2;" d="M55 422q0 115 40 217t114 179t177 121t228 44q106 0 193.5 -32.5t150 -93t97.5 -145t35 -184.5q0 -115 -40 -217t-113 -178t-175.5 -120t-226.5 -44q-104 0 -192.5 32t-152 90.5t-99.5 142t-36 188.5zM303 1458h346l129 -379h-203zM369 403q0 -98 45 -152t127 -54 q53 0 96 28.5t72.5 77.5t46 112.5t16.5 131.5q0 98 -44 152.5t-122 54.5q-59 0 -103 -33t-74 -84t-45 -113.5t-15 -120.5z" />
<glyph unicode="&#xf3;" d="M55 422q0 115 40 217t114 179t177 121t228 44q106 0 193.5 -32.5t150 -93t97.5 -145t35 -184.5q0 -115 -40 -217t-113 -178t-175.5 -120t-226.5 -44q-104 0 -192.5 32t-152 90.5t-99.5 142t-36 188.5zM369 403q0 -98 45 -152t127 -54q53 0 96 28.5t72.5 77.5t46 112.5 t16.5 131.5q0 98 -44 152.5t-122 54.5q-59 0 -103 -33t-74 -84t-45 -113.5t-15 -120.5zM522 1079l277 379h348l-422 -379h-203z" />
<glyph unicode="&#xf4;" d="M55 422q0 115 40 217t114 179t177 121t228 44q106 0 193.5 -32.5t150 -93t97.5 -145t35 -184.5q0 -115 -40 -217t-113 -178t-175.5 -120t-226.5 -44q-104 0 -192.5 32t-152 90.5t-99.5 142t-36 188.5zM315 1079l316 383h284l170 -383h-239l-94 221h-4l-177 -221h-256z M369 403q0 -98 45 -152t127 -54q53 0 96 28.5t72.5 77.5t46 112.5t16.5 131.5q0 98 -44 152.5t-122 54.5q-59 0 -103 -33t-74 -84t-45 -113.5t-15 -120.5z" />
<glyph unicode="&#xf5;" d="M55 422q0 115 40 217t114 179t177 121t228 44q106 0 193.5 -32.5t150 -93t97.5 -145t35 -184.5q0 -115 -40 -217t-113 -178t-175.5 -120t-226.5 -44q-104 0 -192.5 32t-152 90.5t-99.5 142t-36 188.5zM303 1104q43 152 104.5 229.5t159.5 77.5q57 0 104.5 -18.5t85.5 -40 t68.5 -40t59.5 -18.5q18 0 31.5 12.5t22.5 29t15.5 33.5t8.5 28h196q-45 -154 -106.5 -233t-159.5 -79q-57 0 -103.5 18.5t-84 42t-69.5 42t-61 18.5q-18 0 -30.5 -12t-21.5 -28.5t-14 -34t-5 -27.5h-201zM369 403q0 -98 45 -152t127 -54q53 0 96 28.5t72.5 77.5t46 112.5 t16.5 131.5q0 98 -44 152.5t-122 54.5q-59 0 -103 -33t-74 -84t-45 -113.5t-15 -120.5z" />
<glyph unicode="&#xf6;" d="M55 422q0 115 40 217t114 179t177 121t228 44q106 0 193.5 -32.5t150 -93t97.5 -145t35 -184.5q0 -115 -40 -217t-113 -178t-175.5 -120t-226.5 -44q-104 0 -192.5 32t-152 90.5t-99.5 142t-36 188.5zM313 1231q0 78 45 118t119 40q72 0 117 -40t45 -118t-45 -118 t-117 -40q-74 0 -119 40t-45 118zM369 403q0 -98 45 -152t127 -54q53 0 96 28.5t72.5 77.5t46 112.5t16.5 131.5q0 98 -44 152.5t-122 54.5q-59 0 -103 -33t-74 -84t-45 -113.5t-15 -120.5zM791 1231q0 78 45 118t116 40q74 0 119 -40t45 -118t-45 -118t-119 -40 q-72 0 -116.5 40t-44.5 118z" />
<glyph unicode="&#xf7;" horiz-adv-x="1077" d="M70 371l6 237h928l6 -237h-940zM375 111q0 72 46 115.5t120 43.5t120 -43.5t46 -115.5t-46.5 -116t-119.5 -44q-74 0 -120 44t-46 116zM375 868q0 72 45 116t119 44q76 0 122 -44t46 -116t-46.5 -115.5t-121.5 -43.5q-74 0 -119 44t-45 115z" />
<glyph unicode="&#xf8;" d="M-2 -137l192 231q-61 59 -95 139t-34 181q0 119 41 222t116 180t178.5 122t228.5 45q145 0 254 -59l127 153h161q-45 -53 -82 -98q-33 -39 -64.5 -76t-41.5 -51q59 -57 92 -135t33 -172q0 -119 -40 -223.5t-113.5 -183.5t-177 -124t-228.5 -45q-145 0 -252 56l-137 -162 h-158zM367 414q0 -57 16 -92l346 411q-45 39 -115 39q-57 0 -103 -30.5t-78 -81t-49 -115t-17 -131.5zM440 217q47 -35 111 -35q55 0 101 30t79 79t51.5 113.5t18.5 132.5q0 25 -3 47t-14 39q-25 -31 -53 -64q-25 -29 -55.5 -64.5t-63.5 -74.5q-76 -90 -172 -203z" />
<glyph unicode="&#xf9;" horiz-adv-x="1142" d="M68 221q0 29 4 62.5t8 62.5l117 606h317l-102 -530q-4 -16 -7.5 -39t-3.5 -41q0 -51 28 -80t89 -29q47 0 90 24t76 58l123 637h315l-184 -944l-322 -39l31 160q-29 -31 -64.5 -59.5t-75.5 -51t-84 -36t-87 -13.5q-139 0 -203.5 72t-64.5 180zM315 1458h347l129 -379h-203 z" />
<glyph unicode="&#xfa;" horiz-adv-x="1142" d="M68 221q0 29 4 62.5t8 62.5l117 606h317l-102 -530q-4 -16 -7.5 -39t-3.5 -41q0 -51 28 -80t89 -29q47 0 90 24t76 58l123 637h315l-184 -944l-322 -39l31 160q-29 -31 -64.5 -59.5t-75.5 -51t-84 -36t-87 -13.5q-139 0 -203.5 72t-64.5 180zM584 1079l276 379h348 l-422 -379h-202z" />
<glyph unicode="&#xfb;" horiz-adv-x="1142" d="M68 221q0 29 4 62.5t8 62.5l117 606h317l-102 -530q-4 -16 -7.5 -39t-3.5 -41q0 -51 28 -80t89 -29q47 0 90 24t76 58l123 637h315l-184 -944l-322 -39l31 160q-29 -31 -64.5 -59.5t-75.5 -51t-84 -36t-87 -13.5q-139 0 -203.5 72t-64.5 180zM279 1079l315 383h285 l170 -383h-240l-94 221h-4l-176 -221h-256z" />
<glyph unicode="&#xfc;" horiz-adv-x="1142" d="M68 221q0 29 4 62.5t8 62.5l117 606h317l-102 -530q-4 -16 -7.5 -39t-3.5 -41q0 -51 28 -80t89 -29q47 0 90 24t76 58l123 637h315l-184 -944l-322 -39l31 160q-29 -31 -64.5 -59.5t-75.5 -51t-84 -36t-87 -13.5q-139 0 -203.5 72t-64.5 180zM293 1231q0 78 45 118 t119 40q72 0 116.5 -40t44.5 -118t-45 -118t-116 -40q-74 0 -119 40t-45 118zM770 1231q0 78 45 118t117 40q74 0 119 -40t45 -118t-45 -118t-119 -40q-72 0 -117 40t-45 118z" />
<glyph unicode="&#xfd;" horiz-adv-x="1011" d="M-201 -356l127 229q39 -27 66.5 -41t68.5 -14t68 17.5t59 70.5l48 78l-170 968h321l76 -643l307 643h332l-510 -946l-88 -156q-47 -84 -93 -142t-97.5 -93t-107.5 -50.5t-122 -15.5q-78 0 -154.5 30t-130.5 65zM469 1079l276 379h349l-422 -379h-203z" />
<glyph unicode="&#xfe;" horiz-adv-x="1171" d="M-59 -424l348 1790l321 27l-100 -516q47 41 104.5 73.5t141.5 32.5q76 0 140.5 -29.5t112.5 -84t75.5 -133.5t27.5 -177q0 -129 -41 -236.5t-113.5 -185.5t-171 -122t-215.5 -44q-66 0 -123 17.5t-106 42.5l-86 -455h-315zM387 270q31 -29 70 -49t92 -20q55 0 101 28.5 t78 74.5t49.5 105.5t17.5 122.5q0 100 -48.5 156.5t-119.5 56.5q-51 0 -87 -17t-67 -40z" />
<glyph unicode="&#xff;" horiz-adv-x="1011" d="M-201 -356l127 229q39 -27 66.5 -41t68.5 -14t68 17.5t59 70.5l48 78l-170 968h321l76 -643l307 643h332l-510 -946l-88 -156q-47 -84 -93 -142t-97.5 -93t-107.5 -50.5t-122 -15.5q-78 0 -154.5 30t-130.5 65zM221 1245q0 78 45 118t119 40q72 0 117 -40t45 -118 t-45 -118t-117 -40q-74 0 -119 40t-45 118zM698 1245q0 78 45 118t117 40q74 0 119 -40t45 -118t-45 -118t-119 -40q-72 0 -117 40t-45 118z" />
<glyph unicode="&#x152;" horiz-adv-x="1941" d="M92 547q0 143 46 276t145.5 234.5t258 162t382.5 60.5h1040l-51 -262h-570l-47 -246h463l-51 -260h-463l-49 -250h571l-51 -262h-979q-135 0 -252.5 35t-204.5 104.5t-137.5 171t-50.5 236.5zM422 565q0 -158 95 -230.5t253 -74.5h98l150 760h-148q-98 0 -180 -28.5 t-141.5 -86t-93 -142.5t-33.5 -198z" />
<glyph unicode="&#x153;" horiz-adv-x="1732" d="M55 422q0 115 40 217t114 179t177 121t228 44q102 0 182.5 -34t139.5 -93q68 59 156 93t192 34q182 0 290.5 -87t108.5 -253q0 -53 -13 -116.5t-32 -110.5l-606 -6v-15q0 -49 19.5 -86t52.5 -61.5t76 -35.5t90 -11q74 0 146.5 22.5t119.5 46.5l39 -239 q-59 -27 -150.5 -44.5t-183.5 -17.5q-115 0 -206 32t-154 95q-66 -59 -153 -93t-193 -34q-104 0 -192.5 32t-152 90.5t-99.5 142t-36 188.5zM369 403q0 -98 45 -152t127 -54q53 0 96 28.5t72.5 77.5t46 112.5t16.5 131.5q0 98 -44 152.5t-122 54.5q-59 0 -103 -33t-74 -84 t-45 -114t-15 -120zM1063 561l309 2q6 16 10 44t4 46q0 59 -31.5 91t-88.5 32q-72 0 -126.5 -56t-76.5 -159z" />
<glyph unicode="&#x178;" horiz-adv-x="1251" d="M178 1280h334l168 -510l354 510h355l-598 -797l-95 -483h-319l94 489zM397 1534q0 78 45 118t119 40q72 0 117 -40t45 -118t-45 -118t-117 -40q-74 0 -119 40t-45 118zM874 1534q0 78 45.5 118t116.5 40q74 0 119 -40t45 -118t-45 -118t-119 -40q-72 0 -117 40t-45 118z " />
<glyph unicode="&#x2c6;" horiz-adv-x="815" d="M143 1079l316 383h284l170 -383h-239l-94 221h-5l-176 -221h-256z" />
<glyph unicode="&#x2dc;" horiz-adv-x="813" d="M131 1104q43 152 104.5 229.5t159.5 77.5q57 0 104.5 -18.5t85.5 -40t68.5 -40t59.5 -18.5q18 0 31.5 12.5t22.5 29t15 33.5t9 28h196q-45 -154 -106.5 -233t-159.5 -79q-57 0 -103.5 18.5t-84 42t-69.5 42t-61 18.5q-18 0 -30.5 -12t-21.5 -28.5t-14 -34t-5 -27.5h-201z " />
<glyph unicode="&#x2000;" horiz-adv-x="879" />
<glyph unicode="&#x2001;" horiz-adv-x="1759" />
<glyph unicode="&#x2002;" horiz-adv-x="879" />
<glyph unicode="&#x2003;" horiz-adv-x="1759" />
<glyph unicode="&#x2004;" horiz-adv-x="586" />
<glyph unicode="&#x2005;" horiz-adv-x="439" />
<glyph unicode="&#x2006;" horiz-adv-x="293" />
<glyph unicode="&#x2007;" horiz-adv-x="293" />
<glyph unicode="&#x2008;" horiz-adv-x="219" />
<glyph unicode="&#x2009;" horiz-adv-x="351" />
<glyph unicode="&#x200a;" horiz-adv-x="97" />
<glyph unicode="&#x2010;" horiz-adv-x="761" d="M59 371v252h652v-252h-652z" />
<glyph unicode="&#x2011;" horiz-adv-x="761" d="M59 371v252h652v-252h-652z" />
<glyph unicode="&#x2012;" horiz-adv-x="761" d="M59 371v252h652v-252h-652z" />
<glyph unicode="&#x2013;" horiz-adv-x="1077" d="M53 373l6 239h965l6 -239h-977z" />
<glyph unicode="&#x2014;" horiz-adv-x="2039" d="M53 373l6 239h1928l6 -239h-1940z" />
<glyph unicode="&#x2018;" horiz-adv-x="555" d="M152 913q0 84 42 156t106.5 129t141 99t144.5 67l112 -129q-29 -12 -70.5 -38t-80.5 -58.5t-67.5 -69.5t-28.5 -74q0 -55 42 -88.5t95 -60.5q-16 -78 -70.5 -125t-138.5 -47q-49 0 -91 19.5t-72 52t-47 75.5t-17 92z" />
<glyph unicode="&#x2019;" horiz-adv-x="555" d="M92 807q27 12 70 37.5t82 58.5t67.5 70t28.5 74q0 55 -42 88.5t-95 60.5q16 78 70.5 125t140.5 47q49 0 90 -19.5t71.5 -52t47 -76.5t16.5 -94q0 -84 -42 -154.5t-106.5 -128t-141.5 -99.5t-144 -66z" />
<glyph unicode="&#x201a;" horiz-adv-x="555" d="M-119 -221q27 12 70 37.5t82 58.5t67.5 70t28.5 73q0 55 -42 89t-95 61q16 78 70.5 125t140.5 47q49 0 90 -19.5t71.5 -52t47 -77t16.5 -93.5q0 -84 -42 -154.5t-106.5 -128t-141.5 -99.5t-144 -66z" />
<glyph unicode="&#x201c;" horiz-adv-x="1081" d="M152 913q0 84 42 156t106.5 129t141 99t144.5 67l112 -129q-29 -12 -70.5 -38t-80.5 -58.5t-67.5 -69.5t-28.5 -74q0 -55 42 -88.5t95 -60.5q-16 -78 -70.5 -125t-138.5 -47q-49 0 -91 19.5t-72 52t-47 75.5t-17 92zM674 913q0 84 42 156t106.5 129t141 99t144.5 67 l113 -129q-29 -12 -71 -38t-81 -58.5t-67.5 -69.5t-28.5 -74q0 -55 42 -88.5t95 -60.5q-16 -78 -69.5 -125t-139.5 -47q-49 0 -91 19.5t-72.5 52t-47 75.5t-16.5 92z" />
<glyph unicode="&#x201d;" horiz-adv-x="1081" d="M92 807q27 12 70 37.5t82 58.5t67.5 70t28.5 74q0 55 -42 88.5t-95 60.5q16 78 70.5 125t140.5 47q49 0 90 -19.5t71.5 -52t47 -76.5t16.5 -94q0 -84 -42 -154.5t-106.5 -128t-141.5 -99.5t-144 -66zM614 807q27 12 70 37.5t82 58.5t67.5 70t28.5 74q0 55 -42 88.5 t-95 60.5q16 78 70.5 125t140.5 47q49 0 90 -19.5t71.5 -52t47 -76.5t16.5 -94q0 -84 -42 -154.5t-106.5 -128t-141 -99.5t-144.5 -66z" />
<glyph unicode="&#x201e;" horiz-adv-x="1081" d="M-119 -221q27 12 70 37.5t82 58.5t67.5 70t28.5 73q0 55 -42 89t-95 61q16 78 70.5 125t140.5 47q49 0 90 -19.5t71.5 -52t47 -77t16.5 -93.5q0 -84 -42 -154.5t-106.5 -128t-141.5 -99.5t-144 -66zM403 -221q27 12 70 37.5t82 58.5t67.5 70t28.5 73q0 55 -42 89t-95 61 q16 78 70.5 125t140.5 47q49 0 90 -19.5t72 -52t47 -77t16 -93.5q0 -84 -42 -154.5t-106.5 -128t-141 -99.5t-144.5 -66z" />
<glyph unicode="&#x2022;" horiz-adv-x="897" d="M55 475q0 23 12.5 63t31 83t38 79.5t35.5 53.5q14 14 52 34.5t81 38t83 29.5t63 12t62.5 -12t82.5 -30.5t80 -38t53 -33.5q14 -14 34.5 -51t38 -80t30 -84t12.5 -64t-12.5 -63.5t-30 -83.5t-37 -80t-35.5 -53t-53 -36t-80 -37.5t-84 -29.5t-63 -12q-23 0 -63 12t-83 29.5 t-80 37t-51 36.5q-16 16 -35.5 53t-38 80t-31 84t-12.5 63z" />
<glyph unicode="&#x2026;" horiz-adv-x="1687" d="M35 150q0 82 54 131t132 49t131.5 -49t53.5 -131q0 -80 -53.5 -130.5t-131.5 -50.5t-132 50.5t-54 130.5zM598 150q0 82 54.5 131t131.5 49q78 0 131.5 -49t53.5 -131q0 -80 -53.5 -130.5t-131.5 -50.5t-132 50.5t-54 130.5zM1161 150q0 82 54.5 131t132.5 49t131 -49 t53 -131q0 -80 -53.5 -130.5t-130.5 -50.5q-78 0 -132.5 50.5t-54.5 130.5z" />
<glyph unicode="&#x202f;" horiz-adv-x="351" />
<glyph unicode="&#x2039;" horiz-adv-x="743" d="M31 352l49 252l629 328l14 -203l-395 -256v-4l293 -252l-89 -192z" />
<glyph unicode="&#x203a;" horiz-adv-x="743" d="M27 227l393 256v2l-293 252l90 195l502 -328l-49 -254l-629 -325z" />
<glyph unicode="&#x205f;" horiz-adv-x="439" />
<glyph unicode="&#x20ac;" horiz-adv-x="1126" d="M49 414l6 141h166q0 23 3 42t5 40q4 23 8.5 46.5t10.5 45.5h-115l-6 141h162q70 203 205 324t354 121q49 0 104.5 -7.5t107.5 -21.5t99 -35.5t84 -48.5l-102 -239q-55 41 -130 68.5t-147 27.5q-86 0 -148.5 -53.5t-97.5 -135.5h404l-6 -141h-449q-4 -23 -8 -45t-8 -45 q-4 -20 -7 -40.5t-5 -43.5h342l6 -141h-344q10 -96 64.5 -149.5t185.5 -53.5q55 0 110 10t105 33v-244q-53 -23 -132 -36t-159 -13q-250 0 -375 119t-131 334h-162z" />
<glyph unicode="&#x2122;" horiz-adv-x="2011" d="M176 1104v178h748v-178h-283v-588h-207v588h-258zM1010 516l12 766h346l98 -530h25l129 530h342l6 -766h-199l7 567h-23l-164 -542h-227l-135 546h-25l-6 -571h-186z" />
<glyph unicode="&#x25fc;" horiz-adv-x="952" d="M0 0v952h952v-952h-952z" />
<glyph unicode="&#xfb01;" horiz-adv-x="1236" d="M45 702l8 201l203 45l23 107q18 84 48.5 152.5t80 116.5t120 74.5t166.5 26.5q86 0 160 -22.5t123 -54.5q0 -2 -17.5 -39t-37.5 -84q-25 -53 -56 -121q-45 29 -83 43t-78 14q-33 0 -55.5 -12t-37 -30.5t-22.5 -40t-12 -40.5l-19 -98h354l318 29l-189 -969h-313l133 692 h-338l-135 -692h-315l137 692z" />
<glyph unicode="&#xfb02;" horiz-adv-x="1286" d="M45 702l8 201l203 45l23 107q18 84 48.5 152.5t80 116.5t120 74.5t166.5 26.5q86 0 160 -22t123 -55q0 -2 -17.5 -39t-37.5 -84q-25 -53 -56 -121q-45 29 -83 43t-78 14q-33 0 -55.5 -12t-37 -30.5t-22.5 -40t-12 -40.5l-19 -98h242l-6 -248h-271l-135 -692h-315l137 692 zM768 0l266 1366l322 27l-273 -1393h-315z" />
<glyph unicode="&#xfb03;" horiz-adv-x="1935" d="M45 702l8 201l203 45l18 86q18 84 49 152.5t80.5 117t120 75t166.5 26.5q86 0 160 -22.5t123 -55.5q0 -2 -17.5 -39t-37.5 -84q-25 -53 -56 -121q-45 29 -83 43.5t-79 14.5q-33 0 -55 -12.5t-36.5 -31t-22.5 -40t-13 -39.5l-14 -78l393 4l23 111q18 84 49 152.5t81 116.5 t119.5 74.5t166.5 26.5q86 0 160.5 -22.5t123.5 -54.5q0 -2 -17.5 -39t-37.5 -84q-25 -53 -55 -121q-47 29 -84 43t-78 14q-35 0 -57.5 -12t-37 -30.5t-21.5 -40t-11 -40.5l-19 -98h355l317 29l-188 -969h-316l136 692h-340l-136 -692h-313l135 692h-383l-135 -692h-315 l137 692z" />
<glyph unicode="&#xfb04;" horiz-adv-x="1998" d="M45 702l8 201l203 45l18 86q18 84 49 152.5t80.5 117t120 75t166.5 26.5q86 0 160 -22.5t123 -55.5q0 -2 -17.5 -39t-37.5 -84q-25 -53 -56 -121q-45 29 -83 43.5t-79 14.5q-33 0 -55 -12.5t-36.5 -31t-22.5 -40t-13 -39.5l-14 -78l395 4l23 111q18 84 49 152.5t80 116.5 t119.5 74.5t167.5 26.5q86 0 160.5 -22.5t123.5 -54.5q0 -2 -17.5 -39t-39.5 -84q-25 -53 -55 -121q-45 29 -83 43t-79 14q-33 0 -55.5 -12t-37 -30.5t-22.5 -40t-10 -40.5l-21 -98h242l-6 -248h-270l-136 -692h-315l137 692h-385l-135 -692h-315l137 692zM1466 0l267 1366 l321 27l-272 -1393h-316z" />
</font>
</defs>
</svg>
