<?xml version="1.0" standalone="no"?>
<!DOCTYPE svg PUBLIC "-//W3C//DTD SVG 1.1//EN" "http://www.w3.org/Graphics/SVG/1.1/DTD/svg11.dtd" >
<svg xmlns="http://www.w3.org/2000/svg" xmlns:xlink="http://www.w3.org/1999/xlink" version="1.1">
<metadata></metadata>
<defs>
<font id="freight_sansmedium_italic" horiz-adv-x="935" >
<font-face units-per-em="2048" ascent="1638" descent="-410" />
<missing-glyph horiz-adv-x="315" />
<glyph horiz-adv-x="0" />
<glyph unicode="&#xd;" horiz-adv-x="315" />
<glyph unicode=" "  horiz-adv-x="315" />
<glyph unicode="&#x09;" horiz-adv-x="315" />
<glyph unicode="&#xa0;" horiz-adv-x="315" />
<glyph unicode="!" horiz-adv-x="563" d="M80 102q0 53 38 91t95 38q59 0 95 -38t36 -91t-36 -93t-95 -40q-57 0 -95 40t-38 93zM221 403l131 926l203 -20l-236 -914z" />
<glyph unicode="&#x22;" horiz-adv-x="622" d="M51 815l334 506l145 -74l-403 -432h-76zM358 815l334 506l146 -74l-404 -432h-76z" />
<glyph unicode="#" horiz-adv-x="1146" d="M-57 -152l231 480h-156v118h213l146 299h-236v119h291l111 226q49 98 108 225h129q-59 -127 -108 -225l-111 -226h344l217 451h129l-217 -451h150v-119h-207l-146 -299h230v-118h-287l-231 -480h-129l231 480h-342l-231 -480h-129zM360 446h342l146 299h-342z" />
<glyph unicode="$" horiz-adv-x="1038" d="M23 90l34 172q76 -45 135.5 -69.5t118.5 -40.5l152 446q-61 27 -112.5 57.5t-90.5 70.5t-60.5 89t-21.5 111q0 94 36 165.5t97.5 120t141 73t165.5 24.5q47 0 95 -6l65 192h101q-18 -59 -35 -104l-37 -103q61 -14 114.5 -33.5t100.5 -42.5l-35 -168q-113 61 -231 89 l-142 -416h2q68 -29 126.5 -61.5t101.5 -74.5t67.5 -96.5t24.5 -126.5q0 -90 -36 -162.5t-98.5 -122.5t-147.5 -78t-183 -28q-29 0 -58.5 3t-60.5 7l-78 -229h-100l84 248q-68 16 -128 40.5t-107 53.5zM346 946q0 -63 42 -106t138 -86l136 395q-16 2 -31 3t-27 1 q-109 0 -183.5 -53t-74.5 -154zM403 131q39 -6 74 -6q63 0 116.5 15.5t92.5 43t60.5 67.5t21.5 89q0 70 -51 122t-166 99q-41 -121 -74 -215q-14 -41 -27.5 -79t-23.5 -68q-12 -37 -23 -68z" />
<glyph unicode="%" horiz-adv-x="1515" d="M88 -31l1272 1340h139l-1272 -1340h-139zM109 946q0 78 28.5 146.5t78.5 121t117.5 83t145.5 30.5q68 0 127.5 -20.5t102.5 -59.5t68.5 -95t25.5 -126q0 -80 -29 -149.5t-80 -122t-119.5 -82t-148.5 -29.5q-68 0 -125 21.5t-100 60.5t-67.5 95.5t-24.5 125.5zM217 952 q0 -98 62.5 -154.5t154.5 -56.5q55 0 102.5 20.5t82 56.5t54 84.5t19.5 103.5q0 98 -60.5 156.5t-158.5 58.5q-55 0 -101 -21.5t-81 -58.5t-54.5 -86t-19.5 -103zM795 256q0 80 28.5 148.5t77.5 121t117.5 82t148.5 29.5q68 0 126.5 -20.5t101.5 -59.5t68.5 -94t25.5 -125 q0 -80 -29.5 -149.5t-81 -122t-121 -83t-147.5 -30.5q-68 0 -126 21.5t-100 60.5t-65.5 95t-23.5 126zM903 264q0 -98 62.5 -153.5t154.5 -55.5q55 0 102.5 21.5t82 58.5t54 86.5t19.5 104.5q0 96 -63.5 152.5t-155.5 56.5q-55 0 -101 -23t-81 -59.5t-54.5 -86t-19.5 -102.5 z" />
<glyph unicode="&#x26;" horiz-adv-x="1273" d="M18 301q0 80 32 143.5t84 112.5t118.5 83t136.5 54q-72 51 -110.5 118t-38.5 142q0 63 25.5 127t75.5 115t123 82t167 31q76 0 139.5 -23.5t110.5 -64.5t73.5 -95.5t26.5 -113.5q0 -68 -26.5 -122t-70.5 -96t-101.5 -72t-116.5 -48q59 -41 114.5 -99.5t96.5 -123.5 l249 321h205l-383 -428l211 -344l-180 -31l-148 250q-45 -49 -96 -95t-107.5 -80t-116.5 -54.5t-124 -20.5q-80 0 -147.5 25.5t-116.5 71t-77 105.5t-28 130zM188 330q0 -94 63.5 -153.5t162.5 -59.5q51 0 99 17.5t93 47t87 67.5t79 81q-63 98 -138 175t-153 126 q-133 -45 -213 -119t-80 -182zM406 969q0 -63 40 -113.5t132 -116.5q49 18 92 43t74.5 55.5t51 68.5t19.5 87q0 76 -56.5 125t-140.5 49q-49 0 -87.5 -16t-66.5 -44t-43 -63.5t-15 -74.5z" />
<glyph unicode="'" horiz-adv-x="315" d="M57 815l334 506l139 -74l-403 -432h-70z" />
<glyph unicode="(" horiz-adv-x="745" d="M137 449q0 190 55.5 349.5t140.5 283.5t186.5 211t191.5 132l71 -106q-84 -45 -172 -126t-159.5 -192.5t-118.5 -251t-47 -300.5q0 -162 47 -300.5t118.5 -250t159.5 -192.5t172 -126l-71 -106q-90 45 -191.5 131t-186.5 210t-140.5 283.5t-55.5 350.5z" />
<glyph unicode=")" horiz-adv-x="745" d="M-37 -420q84 45 172 126t161 192.5t119 250t46 300.5t-46 301t-119 250.5t-161 192.5t-172 126l74 106q90 -45 190.5 -132t185.5 -211t140 -283.5t55 -349.5t-55 -350t-140 -284t-185.5 -210t-192.5 -131z" />
<glyph unicode="*" horiz-adv-x="702" d="M100 911l308 68l2 10l-250 180l127 123l159 -272h9l98 295l152 -84l-207 -236l4 -6l301 2l-33 -170l-278 117l-7 -4l99 -297l-172 -16l24 309l-6 4l-246 -184z" />
<glyph unicode="+" horiz-adv-x="991" d="M82 408l6 145h340v346h143v-346h336l6 -145h-342v-349h-143v349h-346z" />
<glyph unicode="," horiz-adv-x="450" d="M-119 -260q31 16 75 47t86 67.5t70.5 77.5t28.5 80q0 20 -13 41t-31.5 37t-39.5 30.5t-37 24.5q14 47 52.5 76t91.5 29q70 0 115 -51.5t45 -118.5q0 -72 -40 -134.5t-98.5 -116.5t-125 -96t-121.5 -69z" />
<glyph unicode="-" horiz-adv-x="634" d="M74 418v157h504v-157h-504z" />
<glyph unicode="." horiz-adv-x="450" d="M25 102q0 53 37.5 91t97.5 38q57 0 93 -38t36 -91t-36 -93t-93 -40q-59 0 -97 40t-38 93z" />
<glyph unicode="/" horiz-adv-x="444" d="M-233 -408l851 1846h119l-852 -1846h-118z" />
<glyph unicode="0" horiz-adv-x="1181" d="M88 403q0 117 41 224.5t112.5 189.5t172 131t221.5 49q98 0 184 -29.5t148.5 -85t98.5 -136.5t36 -183q0 -117 -41 -224.5t-114 -189t-173 -131t-221 -49.5q-98 0 -183 30t-147.5 85t-98.5 136t-36 183zM260 422q0 -135 82 -216t217 -81q82 0 150.5 36t118 95t76 135 t26.5 154q0 135 -84 216t-217 81q-82 0 -149.5 -36t-117 -95.5t-76 -134t-26.5 -154.5z" />
<glyph unicode="1" horiz-adv-x="702" d="M143 758l25 151l436 92l-196 -1001h-170l159 809z" />
<glyph unicode="2" d="M4 0l33 180q111 61 225.5 126t207.5 129.5t153.5 128t60.5 122.5q0 72 -49 116t-143 44q-76 0 -144.5 -24.5t-138.5 -65.5l-33 147q72 43 158 68.5t178 25.5q80 0 145.5 -20.5t112.5 -58t72.5 -90t25.5 -115.5q0 -86 -52 -162t-136 -143.5t-187.5 -129t-207.5 -118.5h524 l-25 -160h-780z" />
<glyph unicode="3" d="M-102 -262l61 151q72 -51 162 -85.5t176 -34.5q57 0 111.5 17t95.5 50t66.5 81t25.5 110q0 63 -29.5 105t-72.5 67.5t-92.5 36t-90.5 10.5q-31 0 -76 -6.5t-67 -10.5l29 150q61 6 142 22.5t154.5 49t125 86t51.5 133.5q0 47 -21.5 79.5t-54.5 53t-73 30t-75 9.5 q-84 0 -155.5 -27t-136.5 -61l-31 145q78 47 165 72.5t185 25.5q63 0 132 -18t125 -55t92 -95.5t36 -138.5q0 -70 -27.5 -128t-72.5 -104t-105 -78t-121 -48q104 -29 174 -103.5t70 -187.5q0 -96 -42 -174t-111.5 -133.5t-158.5 -86t-181 -30.5q-49 0 -102.5 8t-105.5 24.5 t-98.5 38t-78.5 50.5z" />
<glyph unicode="4" horiz-adv-x="1071" d="M-31 137l836 862h153l-161 -819h207l-27 -160h-211l-78 -397h-170l80 397h-612zM209 180h420l108 555z" />
<glyph unicode="5" horiz-adv-x="858" d="M-109 -264l62 151q72 -51 148.5 -83.5t170.5 -32.5q57 0 110.5 18t94.5 54t66.5 85t25.5 111q0 68 -25.5 117t-70.5 80.5t-104.5 47t-126.5 15.5q-41 0 -81 -3t-75 -7l-29 33l207 647h643l-26 -166h-508l-121 -363q12 0 26.5 1t26.5 1q84 0 164 -21.5t141.5 -68.5 t99.5 -119.5t38 -177.5q0 -92 -39 -171t-103.5 -138t-149.5 -93t-180 -34q-51 0 -105 8t-104.5 22.5t-96.5 36t-79 50.5z" />
<glyph unicode="6" horiz-adv-x="1093" d="M94 449q0 176 71 329.5t193.5 274.5t289.5 202.5t362 112.5l12 -168q-102 -18 -203.5 -54t-195 -93.5t-171 -140.5t-130.5 -195l4 -6q70 49 149.5 81.5t171.5 32.5q76 0 142.5 -26.5t117.5 -75.5t81 -121t30 -162q0 -100 -37 -185t-100.5 -147.5t-149.5 -98.5t-182 -36 q-102 0 -185 35t-143.5 98.5t-93.5 151t-33 191.5zM272 432q0 -61 18.5 -116.5t55.5 -98.5t90 -67.5t121 -24.5q63 0 116.5 23.5t91.5 64.5t58.5 95t20.5 116q0 61 -20.5 109.5t-55.5 82t-80 51t-94 17.5q-86 0 -165 -33t-138 -80q-8 -27 -13.5 -60.5t-5.5 -78.5z" />
<glyph unicode="7" horiz-adv-x="933" d="M-74 -377l844 1180h-668l39 166h832v-144l-864 -1202h-183z" />
<glyph unicode="8" horiz-adv-x="1038" d="M70 309q0 66 27.5 123t73.5 102.5t104.5 75t119.5 41.5q-78 47 -131 116t-53 165q0 72 28.5 137.5t82 114.5t128 77.5t166.5 28.5q100 0 176 -25.5t127.5 -70.5t77 -106.5t25.5 -133.5t-27.5 -128t-68.5 -98t-92.5 -71t-96.5 -43q78 -47 131.5 -119.5t53.5 -168.5 q0 -70 -28 -135.5t-82 -115.5t-131 -80t-175 -30q-94 0 -174 23.5t-138.5 68.5t-91 108.5t-32.5 143.5zM240 324q0 -47 21.5 -86t58 -67t86 -42t106.5 -14q111 0 173.5 54t62.5 146q0 88 -72 153t-178 118q-121 -29 -189.5 -103.5t-68.5 -158.5zM383 946q0 -84 69.5 -147.5 t180.5 -116.5q45 14 86 40t70.5 59.5t47 74.5t17.5 86q0 47 -18.5 84t-50 63.5t-73.5 40t-89 13.5q-111 0 -175.5 -58.5t-64.5 -138.5z" />
<glyph unicode="9" horiz-adv-x="1093" d="M100 -229q100 18 203 54t196 93t171 140t131 196l-4 6q-70 -49 -150 -82t-172 -33q-76 0 -143.5 27t-117.5 76t-80 120.5t-30 161.5q0 100 37 185.5t100.5 148t149.5 98t182 35.5q100 0 184.5 -34.5t145 -98t93 -151t32.5 -191.5q0 -176 -70.5 -329.5t-193.5 -274.5 t-291 -203t-360 -112zM279 547q0 -61 20 -109.5t55 -82t80 -51t94 -17.5q86 0 165 32.5t138 79.5q8 27 13.5 61t5.5 79q0 61 -18.5 116.5t-55.5 98.5t-90 67.5t-121 24.5q-63 0 -116.5 -23.5t-91.5 -64.5t-58 -95.5t-20 -115.5z" />
<glyph unicode=":" horiz-adv-x="450" d="M25 102q0 53 37.5 91t97.5 38q57 0 93 -38t36 -91t-36 -93t-93 -40q-59 0 -97 40t-38 93zM147 733q0 53 38 91t98 38q57 0 93 -38t36 -91t-36 -93t-93 -40q-59 0 -97.5 40t-38.5 93z" />
<glyph unicode=";" horiz-adv-x="450" d="M-119 -260q31 16 75 47t86 67.5t70.5 77.5t28.5 80q0 20 -13 41t-31.5 37t-39.5 30.5t-37 24.5q14 47 52.5 76t91.5 29q70 0 115 -51.5t45 -118.5q0 -72 -40 -134.5t-98.5 -116.5t-125 -96t-121.5 -69zM147 733q0 53 38 91t98 38q57 0 93 -38t36 -91t-36 -93t-93 -40 q-59 0 -97.5 40t-38.5 93z" />
<glyph unicode="&#x3c;" horiz-adv-x="970" d="M68 422v121l821 387v-162l-608 -276v-21l610 -274v-162z" />
<glyph unicode="=" horiz-adv-x="950" d="M70 221l10 146h794l11 -146h-815zM70 739h815l-11 -145h-794z" />
<glyph unicode="&#x3e;" horiz-adv-x="970" d="M59 35v162l611 274v21l-609 276v162l822 -387v-121z" />
<glyph unicode="?" horiz-adv-x="729" d="M104 102q0 53 38 91t98 38q57 0 93 -38t36 -91t-36 -93t-93 -40q-59 0 -97.5 40t-38.5 93zM172 594q0 55 21.5 93t55.5 64.5t78 44t91 31.5q41 12 77.5 24.5t65.5 29t45.5 40t16.5 58.5q0 51 -32 84t-77 52.5t-95 26.5t-89 7q-25 0 -49.5 -1t-47.5 -3l31 158q20 4 45 5 t47 1q74 0 144.5 -20.5t128 -59.5t92.5 -97.5t35 -134.5q0 -74 -24.5 -125t-63.5 -84.5t-87.5 -54t-93.5 -33.5q-43 -12 -78.5 -23t-61 -26.5t-39 -36t-13.5 -51.5q0 -43 27.5 -84t54.5 -73l-86 -19q-47 37 -83 90t-36 117z" />
<glyph unicode="@" horiz-adv-x="1695" d="M76 496q0 166 61.5 313t169 258t254 175.5t313.5 64.5q150 0 287 -47.5t240.5 -136.5t165 -214.5t61.5 -281.5q0 -129 -33.5 -229.5t-90 -169t-130.5 -103.5t-151 -35q-84 0 -145.5 39t-90.5 111q-53 -61 -115.5 -91t-126.5 -30q-66 0 -120 25.5t-93.5 71.5t-61 106.5 t-21.5 132.5q0 94 33.5 179t92 148.5t137.5 100.5t171 37q49 0 101 -14.5t93 -33.5l142 48l-99 -498q-20 -104 9.5 -161.5t115.5 -57.5q59 0 112.5 27.5t93.5 81t63.5 132t23.5 183.5q0 137 -56.5 247.5t-148.5 188.5t-212 121t-247 43q-147 0 -277 -59.5t-225.5 -159 t-150.5 -231.5t-55 -279q0 -139 48 -262t134 -214.5t205 -144.5t262 -53q66 0 128.5 11t123.5 30l23 -76q-72 -23 -137.5 -35t-141.5 -12q-160 0 -295 58.5t-233.5 159.5t-152.5 239.5t-54 296.5zM590 471q0 -106 57.5 -168.5t140.5 -62.5q53 0 94.5 20.5t82.5 54.5l82 410 q-31 33 -78 54.5t-103 21.5q-61 0 -112.5 -29t-88 -76t-56 -105.5t-19.5 -119.5z" />
<glyph unicode="A" horiz-adv-x="1191" d="M-98 0l768 1278h194l226 -1278h-179l-55 334h-567l-197 -334h-190zM383 492h448l-98 598z" />
<glyph unicode="B" horiz-adv-x="1124" d="M72 0l247 1280h402q98 0 170 -25.5t119 -69.5t69.5 -101.5t22.5 -120.5q0 -123 -77 -205t-212 -121q111 -37 164 -107.5t53 -162.5q0 -78 -29.5 -144.5t-92 -116t-159 -78t-229.5 -28.5h-448zM276 162h277q156 0 227.5 54.5t71.5 150.5q0 94 -73.5 145t-186.5 51h-238z M385 717h223q147 0 230.5 57.5t83.5 159.5q0 78 -58.5 131t-175.5 53h-227z" />
<glyph unicode="C" horiz-adv-x="1222" d="M102 547q0 166 54.5 305t153 240.5t234.5 159t300 57.5q190 0 401 -78l-33 -164q-102 45 -197 66.5t-181 21.5q-125 0 -226.5 -45t-174.5 -125t-111.5 -188.5t-38.5 -233.5q0 -102 31.5 -184t88 -138.5t137.5 -86t179 -29.5q86 0 173 24.5t161 61.5l39 -154 q-41 -20 -89.5 -36.5t-100.5 -27.5t-102 -17.5t-93 -6.5q-129 0 -240 40t-191.5 115t-127 181.5t-46.5 241.5z" />
<glyph unicode="D" horiz-adv-x="1312" d="M72 0l247 1280h308q125 0 237.5 -35t196.5 -103.5t133 -170t49 -236.5q0 -145 -45 -278t-140 -234.5t-241.5 -162t-349.5 -60.5h-395zM276 162h230q117 0 219 37t177 107.5t119 174t44 234.5q0 102 -33 177t-92 124t-144 73.5t-192 26.5l-143 2z" />
<glyph unicode="E" horiz-adv-x="1071" d="M72 0l247 1280h811l-30 -162h-639l-76 -395h533l-33 -162h-531l-78 -399h637l-30 -162h-811z" />
<glyph unicode="F" horiz-adv-x="1013" d="M72 0l247 1280h791l-31 -164h-618l-80 -416h512l-33 -161h-510l-104 -539h-174z" />
<glyph unicode="G" horiz-adv-x="1304" d="M102 547q0 166 53.5 305t152 240.5t234.5 159t302 57.5q190 0 401 -78l-33 -164q-102 45 -197 66.5t-181 21.5q-127 0 -228.5 -45t-173.5 -125t-110.5 -188.5t-38.5 -233.5q0 -102 31.5 -184t90 -138.5t140.5 -86t180 -29.5q57 0 114.5 10t112.5 29l68 330h-338l33 161 h508l-119 -604q-92 -41 -194.5 -61.5t-200.5 -20.5q-129 0 -241 40t-192.5 115t-127 181.5t-46.5 241.5z" />
<glyph unicode="H" horiz-adv-x="1353" d="M72 0l247 1280h175l-109 -557h684l107 557h174l-248 -1280h-174l110 565h-684l-108 -565h-174z" />
<glyph unicode="I" horiz-adv-x="505" d="M76 0l248 1280h172l-248 -1280h-172z" />
<glyph unicode="J" horiz-adv-x="831" d="M-57 80l57 158q59 -49 124.5 -81t143.5 -32q55 0 96.5 19.5t69 53t45 79t27.5 96.5l176 907h172l-182 -934q-16 -84 -48 -152.5t-82 -118.5t-120 -78t-158 -28q-84 0 -171 28t-150 83z" />
<glyph unicode="K" horiz-adv-x="1110" d="M72 0l247 1280h175l-119 -612h2l653 612h221l-706 -639l469 -641h-207l-440 608h-2l-119 -608h-174z" />
<glyph unicode="L" horiz-adv-x="1011" d="M72 0l247 1280h175l-215 -1112h618l-33 -168h-792z" />
<glyph unicode="M" horiz-adv-x="1576" d="M16 0l303 1280h230l192 -1047l600 1047h242l-209 -1280h-178l186 1053l-591 -1035h-181l-178 1020l-233 -1038h-183z" />
<glyph unicode="N" horiz-adv-x="1357" d="M72 0l241 1280h217l459 -1067l197 1067h168l-244 -1292h-209l-463 1081l-196 -1069h-170z" />
<glyph unicode="O" horiz-adv-x="1462" d="M106 569q0 147 54.5 282.5t150 237t227.5 162t289 60.5q129 0 239 -43t189.5 -121t124.5 -188.5t45 -245.5q0 -147 -54 -281.5t-150.5 -238t-228.5 -164t-287 -60.5q-129 0 -239 43t-189.5 122t-125 189.5t-45.5 245.5zM285 584q0 -102 31.5 -187.5t89 -146t139.5 -94 t180 -33.5q121 0 217 48t164 128t104.5 183t36.5 214q0 102 -31.5 186.5t-89 144.5t-138.5 94t-179 34q-121 0 -218 -48t-165 -127t-104.5 -182.5t-36.5 -213.5z" />
<glyph unicode="P" horiz-adv-x="1099" d="M72 0l247 1280h328q115 0 202 -33t145.5 -86t88 -119.5t29.5 -136.5q0 -102 -35 -189t-104.5 -151.5t-172 -101.5t-237.5 -37l-235 -2l-84 -424h-172zM356 588h228q92 0 157.5 24.5t108.5 64.5t62.5 92.5t19.5 107.5q0 106 -80 173.5t-234 67.5h-157z" />
<glyph unicode="Q" horiz-adv-x="1462" d="M106 567q0 147 54.5 282.5t150 237t227.5 162t289 60.5q129 0 239 -42t189.5 -121t124.5 -188.5t45 -244.5q0 -117 -34.5 -225.5t-98 -200.5t-150.5 -164t-194 -111l359 -233l-107 -144l-479 336q-4 -2 -16 -2q-129 0 -239 43t-189.5 122t-125 188.5t-45.5 244.5z M285 584q0 -102 31.5 -187.5t89 -146t139.5 -94t180 -33.5q121 0 217 48t164 128t104.5 183t36.5 214q0 102 -31.5 186.5t-89 144.5t-138.5 94t-179 34q-121 0 -218 -48t-165 -128t-104.5 -182.5t-36.5 -212.5z" />
<glyph unicode="R" horiz-adv-x="1134" d="M72 0l247 1280h334q111 0 194 -28.5t138 -77t84 -113t29 -135.5q0 -88 -30 -156t-79 -117t-115.5 -80.5t-140.5 -46.5l228 -526h-199l-205 506l-219 -14l-92 -492h-174zM365 645l182 4q80 2 148.5 17.5t117.5 47t78 79t29 112.5q0 104 -75 159.5t-210 55.5h-174z" />
<glyph unicode="S" horiz-adv-x="1038" d="M23 90l34 172q96 -57 209 -97t211 -40q63 0 116.5 15.5t92.5 43t60.5 67.5t21.5 89q0 39 -15.5 70.5t-49 60.5t-85 56.5t-122.5 56.5q-68 27 -125.5 58.5t-100.5 72.5t-67.5 93t-24.5 118q0 94 36 165.5t97.5 120t141 73t165.5 24.5q121 0 223.5 -29t180.5 -68l-35 -168 q-39 20 -86 40t-98 35.5t-102.5 24.5t-96.5 9q-53 0 -100 -13.5t-82 -40t-55.5 -64.5t-20.5 -89q0 -76 64.5 -124t205.5 -105q70 -29 128.5 -60.5t101.5 -74.5t66.5 -97.5t23.5 -126.5q0 -90 -36 -162.5t-98.5 -122.5t-147.5 -78t-183 -28q-129 0 -245.5 37t-202.5 86z" />
<glyph unicode="T" horiz-adv-x="1144" d="M164 1114l33 166h1069l-31 -166h-449l-217 -1114h-172l217 1114h-450z" />
<glyph unicode="U" horiz-adv-x="1265" d="M125 371q0 41 5 83t11 74l148 752h174l-146 -752q-6 -29 -11 -58.5t-5 -59.5q0 -145 85 -212t226 -67q74 0 131.5 23.5t100.5 66.5t70.5 102.5t41.5 129.5l162 827h172l-162 -842q-20 -106 -63 -193t-108.5 -148.5t-153.5 -94.5t-201 -33q-102 0 -189 24.5t-150.5 74 t-100.5 125t-37 178.5z" />
<glyph unicode="V" horiz-adv-x="1171" d="M166 1280h178l178 -1090l637 1090h191l-766 -1278h-193z" />
<glyph unicode="W" horiz-adv-x="1875" d="M240 1280h184l70 -1036l505 1036h201l105 -1036l469 1036h178l-611 -1280h-172l-108 1055l-533 -1055h-172z" />
<glyph unicode="X" horiz-adv-x="1175" d="M-66 0l592 649l-329 631h200l244 -508l436 508h217l-577 -633l344 -647h-201l-258 530l-455 -530h-213z" />
<glyph unicode="Y" horiz-adv-x="1105" d="M182 1280h189l225 -606l444 606h199l-594 -776l-98 -504h-166l100 516z" />
<glyph unicode="Z" horiz-adv-x="1067" d="M-43 0l27 131l905 985h-703l31 164h928l-25 -135l-901 -981h709l-31 -164h-940z" />
<glyph unicode="[" horiz-adv-x="749" d="M170 -455v1837h561v-133h-416v-1571h416v-133h-561z" />
<glyph unicode="\" horiz-adv-x="444" d="M162 1438h119l135 -1846h-119z" />
<glyph unicode="]" horiz-adv-x="749" d="M20 -322h416v1571h-416v133h562v-1837h-562v133z" />
<glyph unicode="^" horiz-adv-x="806" d="M203 1065l309 383h180l162 -383h-149l-119 260h-4l-217 -260h-162z" />
<glyph unicode="_" horiz-adv-x="944" d="M-121 0h993v-152h-993v152z" />
<glyph unicode="`" horiz-adv-x="806" d="M328 1436h211l145 -371h-129z" />
<glyph unicode="a" d="M27 240q0 72 33.5 134t109.5 107t196 69q95 19 223 18q33 0 68 -1l7 33q5 27 5 51q0 162 -223 162q-66 0 -142.5 -22.5t-139.5 -57.5l-14 156q59 33 147 55.5t176 22.5q205 -1 300 -99q66 -69 67 -189q0 -52 -13 -114l-67 -319q-8 -38 -8 -64q0 -20 5 -34q11 -30 72 -29 l-36 -142q-14 -1 -27 -1q-40 0 -70 10q-38 12 -62 32.5t-35 45t-13 45.5h-2q-59 -61 -133 -99.5t-150 -38.5q-61 0 -111.5 23.5t-87 61.5t-56 86t-19.5 98zM205 260q0 -66 44 -103.5t111 -37.5q74 0 130.5 26.5t97.5 59.5l49 252q-217 -8 -324.5 -59.5t-107.5 -137.5z" />
<glyph unicode="b" horiz-adv-x="1077" d="M55 0l264 1380l175 27l-101 -533q29 18 55.5 36t55 31t61.5 20.5t74 7.5q82 0 150.5 -32t117.5 -88t76 -133t27 -165q0 -119 -42 -224.5t-115 -185.5t-172 -126t-212 -46q-63 0 -126.5 17.5t-117.5 42.5zM262 213q41 -41 99.5 -68.5t127.5 -27.5q78 0 141.5 35.5 t108.5 94t70 133t25 150.5q0 66 -19.5 119t-53.5 91t-79 58.5t-96 20.5q-66 0 -118 -24.5t-101 -57.5z" />
<glyph unicode="c" horiz-adv-x="923" d="M74 420q0 104 36.5 203.5t104.5 176.5t162 123t211 46q98 0 178 -22.5t158 -67.5l-35 -162q-82 49 -154.5 74.5t-150.5 25.5q-84 0 -146.5 -37t-104.5 -93t-62.5 -124.5t-20.5 -132.5q0 -160 82 -232.5t209 -72.5q59 0 116.5 15.5t100.5 35.5l28 -151 q-25 -12 -56.5 -22.5t-67 -18t-71.5 -11.5t-67 -4q-92 0 -174 29t-143.5 85t-97 140t-35.5 197z" />
<glyph unicode="d" horiz-adv-x="1077" d="M70 387q0 119 42 224.5t114.5 185.5t171 126t212.5 46q63 0 127 -17.5t117 -42.5l88 471l172 27l-272 -1407h-168l12 63q-57 -39 -110.5 -66.5t-135.5 -27.5t-150.5 32t-117.5 88t-75.5 133t-26.5 165zM246 408q0 -66 19.5 -119t53 -91t78.5 -58.5t97 -20.5 q66 0 118 24.5t101 57.5l104 524q-41 41 -99.5 68.5t-127.5 27.5q-78 0 -141.5 -35.5t-108.5 -94t-69.5 -133.5t-24.5 -150z" />
<glyph unicode="e" horiz-adv-x="968" d="M74 420q0 100 34.5 199.5t99 176t158 125t207.5 48.5q150 0 243 -84t93 -232q0 -49 -10 -101t-31 -99l-620 -4v-19q0 -80 22.5 -137t61.5 -95t92 -55.5t117 -17.5q59 0 116.5 15.5t100.5 35.5l28 -151q-25 -12 -56.5 -22.5t-67 -18t-71.5 -11.5t-67 -4q-92 0 -174 30 t-143.5 86t-97 140t-35.5 195zM270 571l463 4q4 12 6 30t2 30q0 92 -51 139t-141 47q-102 0 -177 -68.5t-102 -181.5z" />
<glyph unicode="f" horiz-adv-x="647" d="M82 797l6 106l184 45l29 144q14 74 39 135t63.5 105t95 68.5t134.5 24.5q59 0 121.5 -19t105.5 -52q0 -2 -11 -23.5t-26 -50.5q-16 -33 -35 -72q-35 23 -78.5 40.5t-86.5 17.5q-39 0 -66 -15.5t-44 -41t-27.5 -57.5t-16.5 -65l-29 -149h265l-7 -152h-286l-154 -786h-168 l152 784z" />
<glyph unicode="g" horiz-adv-x="978" d="M-121 -231q0 86 65.5 159.5t190.5 106.5q-33 23 -53.5 50.5t-20.5 74.5q0 59 49 110t117 80q-53 43 -83.5 104.5t-30.5 145.5q0 74 28.5 139.5t78.5 116.5t121 82t155 31q74 0 124 -17.5t91 -46.5l299 33l4 -166l-195 16q16 -25 26.5 -64.5t10.5 -80.5 q0 -74 -27.5 -140.5t-78 -116.5t-120 -81t-153.5 -31q-55 0 -95 7.5t-79 23.5q-23 -10 -45 -34.5t-22 -53.5q0 -53 59 -76.5t178 -46.5l31 -6q152 -31 237.5 -95.5t85.5 -178.5q0 -72 -34.5 -131.5t-99 -101.5t-153.5 -65.5t-200 -23.5t-197 21.5t-144 59.5t-89 88t-31 108z M45 -195q0 -39 24.5 -70.5t66.5 -54t98.5 -35t121.5 -12.5q141 0 223.5 44t82.5 116q0 55 -56.5 90t-161.5 56q-78 16 -128 27.5t-89 21.5q-78 -16 -130 -68.5t-52 -114.5zM276 606q0 -86 51 -143t160 -57q86 0 147.5 61t61.5 170q0 84 -51 141.5t-162 57.5 q-41 0 -78.5 -16.5t-66.5 -46.5t-45.5 -72t-16.5 -95z" />
<glyph unicode="h" horiz-adv-x="1058" d="M55 0l269 1380l174 27l-113 -582q66 59 144.5 100.5t160.5 41.5q123 0 198 -69t75 -191q0 -39 -11 -91l-121 -616h-167l112 580q4 20 6 40.5t2 41.5q0 84 -47 117.5t-125 33.5q-70 0 -135 -30.5t-117 -75.5l-137 -707h-168z" />
<glyph unicode="i" horiz-adv-x="458" d="M55 0l181 924l172 26l-185 -950h-168zM274 1266q0 47 28 83.5t85 36.5t83 -36.5t26 -83.5t-27 -84t-84 -37t-84 37t-27 84z" />
<glyph unicode="j" horiz-adv-x="452" d="M-184 -391q47 20 84 48t64.5 66.5t47 94t33.5 131.5q-2 -6 5 32.5t20.5 106.5t31 156t35.5 180q43 217 99 500l172 26q-55 -285 -99 -506q-18 -94 -35.5 -184t-31 -158.5t-21.5 -107.5t-6 -33q-18 -100 -45 -174t-63.5 -129t-86 -95t-114.5 -73zM274 1266q0 47 28 83.5 t85 36.5t83 -36.5t26 -83.5t-27 -84t-84 -37t-84 37t-27 84z" />
<glyph unicode="k" horiz-adv-x="933" d="M55 0l269 1380l174 27l-174 -877h4l446 408h232l-504 -438l336 -500h-207l-312 485h-4l-92 -485h-168z" />
<glyph unicode="l" horiz-adv-x="458" d="M55 0l269 1380l174 27l-275 -1407h-168z" />
<glyph unicode="m" horiz-adv-x="1624" d="M55 0l183 942l174 27l-25 -123q63 53 136 88t147 35q94 0 161.5 -41t96.5 -119q70 63 153.5 111.5t175.5 48.5q123 0 197 -70t74 -180q0 -23 -5 -63t-10 -62l-116 -594h-168l108 557q4 20 10.5 54t6.5 63q0 68 -43 101.5t-121 33.5q-68 0 -130.5 -29.5t-111.5 -72.5 l-6 -31l-6 -31l-127 -645h-168l111 557q4 20 10 54t6 63q0 68 -43 101.5t-121 33.5q-35 0 -68.5 -9t-65.5 -23.5t-59.5 -32t-48.5 -35.5l-139 -709h-168z" />
<glyph unicode="n" horiz-adv-x="1058" d="M55 0l183 942l174 27l-27 -144q66 59 144.5 101.5t160.5 42.5q123 0 198 -70t75 -180q0 -23 -5.5 -63t-9.5 -62l-117 -594h-167l108 557q4 20 10 54t6 63q0 68 -43 101.5t-120 33.5q-68 0 -143.5 -37t-125.5 -88l-133 -684h-168z" />
<glyph unicode="o" horiz-adv-x="1081" d="M74 406q0 106 36.5 208.5t105.5 180t165 126t215 48.5q94 0 171 -35t131 -94.5t84 -139.5t30 -170q0 -109 -37 -210t-105.5 -179t-166 -124t-216.5 -46q-92 0 -168.5 33t-131 91.5t-84 138t-29.5 172.5zM242 416q0 -131 68.5 -214t197.5 -83q82 0 144.5 37t104.5 95 t63.5 129.5t21.5 141.5q0 129 -68.5 214t-195.5 85q-82 0 -144.5 -38t-105.5 -96t-64.5 -131t-21.5 -140z" />
<glyph unicode="p" horiz-adv-x="1077" d="M-37 -477l275 1419l174 27l-19 -95q29 18 55.5 36t55 31t61.5 20.5t74 7.5q82 0 150.5 -32t117.5 -88t76 -133t27 -165q0 -119 -42 -224.5t-115 -185.5t-172 -126t-212 -46q-63 0 -126.5 17.5t-117.5 42.5l-94 -506h-168zM262 213q41 -41 99.5 -68.5t127.5 -27.5 q78 0 141.5 35.5t108.5 94t70 133.5t25 150q0 66 -19.5 119t-53.5 91t-79 58.5t-96 20.5q-66 0 -118 -24.5t-101 -57.5z" />
<glyph unicode="q" horiz-adv-x="1077" d="M70 387q0 119 42 224.5t114.5 185.5t171 126t212.5 46q63 0 127 -17.5t117 -42.5l176 60l-278 -1446h-168l102 540q-57 -39 -110.5 -66.5t-135.5 -27.5t-150.5 32t-117.5 88t-75.5 133t-26.5 165zM246 408q0 -66 19.5 -119t53 -91t78.5 -58.5t97 -20.5q66 0 118 24.5 t101 57.5l104 524q-41 41 -99.5 68.5t-127.5 27.5q-78 0 -141.5 -35.5t-108.5 -94t-69.5 -133.5t-24.5 -150z" />
<glyph unicode="r" horiz-adv-x="780" d="M55 0l183 942l174 27l-29 -156q49 72 123 114t145 42q47 0 92 -11.5t76 -33.5l-47 -164q-45 27 -85 38t-83 11q-84 0 -145.5 -47t-108.5 -113l-127 -649h-168z" />
<glyph unicode="s" horiz-adv-x="804" d="M-12 59l47 162q180 -102 321 -102q35 0 68 8t58.5 24.5t41 42t15.5 60.5q0 29 -15.5 51.5t-42 42t-63.5 35.5t-78 33q-47 18 -89 40.5t-74 53.5t-50 71t-18 95q0 68 27.5 122t73.5 92t107.5 58.5t126.5 20.5q94 0 176 -21.5t173 -68.5l-48 -162q-90 51 -162.5 75.5 t-150.5 24.5q-66 0 -114 -29.5t-48 -89.5q0 -29 15.5 -50t42 -38.5t62.5 -34t77 -34.5q45 -20 88 -43t76 -53.5t52 -73t19 -99.5q0 -70 -28.5 -126t-77.5 -95t-114.5 -60.5t-139.5 -21.5q-100 0 -185 23.5t-169 66.5z" />
<glyph unicode="t" horiz-adv-x="704" d="M80 797l6 106l182 47l47 203h160l-47 -215h279l-7 -152h-307l-110 -507q-4 -12 -8.5 -29t-4.5 -35q0 -55 40 -75.5t87 -20.5q41 0 75 8t69 20l28 -147q-41 -14 -94 -22.5t-98 -8.5q-53 0 -102.5 13.5t-86 41t-58 70.5t-21.5 103q0 25 5 48t9 46l110 495z" />
<glyph unicode="u" horiz-adv-x="1058" d="M96 219q0 23 5 63t10 62l116 594h168l-108 -557q-4 -20 -10.5 -54t-6.5 -63q0 -68 43 -101.5t121 -33.5q68 0 143.5 37t124.5 88l134 684h168l-183 -942l-174 -27l27 144q-66 -59 -144.5 -101.5t-160.5 -42.5q-123 0 -198 70t-75 180z" />
<glyph unicode="v" horiz-adv-x="903" d="M96 938h172l125 -731l414 731h184l-559 -940h-156z" />
<glyph unicode="w" horiz-adv-x="1368" d="M111 938h178l53 -694l365 696h151l86 -698l311 696h193l-467 -942h-154l-90 698l-379 -698h-153z" />
<glyph unicode="x" horiz-adv-x="845" d="M-88 0l410 479l-205 459h178l143 -344l267 344h192l-377 -455l223 -483h-180l-157 375l-293 -375h-201z" />
<glyph unicode="y" horiz-adv-x="903" d="M-217 -446l82 143q27 -23 52.5 -34t59.5 -11q41 0 76 32.5t90 122.5l129 211l-176 920h172l125 -731l414 731h184l-571 -963l-131 -227q-43 -74 -81 -125t-75 -81.5t-77 -44t-85 -13.5q-59 0 -110 23.5t-78 46.5z" />
<glyph unicode="z" horiz-adv-x="827" d="M-53 0l22 117l639 665h-491l30 156h730l-23 -117l-639 -665h510l-31 -156h-747z" />
<glyph unicode="{" horiz-adv-x="694" d="M43 473l6 82q131 10 190.5 44t59.5 124q0 49 -15.5 96t-33 98.5t-32.5 106.5t-15 117q0 141 117.5 203.5t338.5 72.5v-117q-166 -12 -235.5 -47.5t-69.5 -101.5q0 -47 15.5 -93t34 -94.5t34 -100.5t15.5 -111q0 -117 -71 -188.5t-206 -80.5v-20q135 -10 206 -82t71 -188 q0 -59 -15.5 -110.5t-34 -98.5t-34 -92.5t-15.5 -90.5q0 -70 70 -107.5t235 -47.5v-115q-221 10 -338.5 71.5t-117.5 202.5q0 61 15 116.5t32.5 106t33 98.5t15.5 97q0 88 -59.5 123t-190.5 45z" />
<glyph unicode="|" horiz-adv-x="464" d="M164 -408v1846h137v-1846h-137z" />
<glyph unicode="}" horiz-adv-x="694" d="M35 -354q166 10 235.5 48t69.5 105q0 45 -15.5 90t-33 93.5t-32.5 99.5t-15 111q0 117 68.5 188.5t205.5 81.5v20q-137 8 -205.5 80t-68.5 189q0 59 15 111t32.5 100.5t33 94.5t15.5 93q0 66 -69.5 101.5t-235.5 47.5v117q223 -10 340 -72.5t117 -203.5 q0 -61 -15.5 -116.5t-34 -107t-34 -98.5t-15.5 -96q0 -90 60.5 -124t191.5 -44l6 -82l-6 -82q-131 -10 -191.5 -45t-60.5 -123q0 -49 15.5 -97t34 -98.5t34 -105.5t15.5 -117q0 -141 -117 -202.5t-340 -71.5v115z" />
<glyph unicode="~" horiz-adv-x="806" d="M39 383q14 49 32.5 96t45 82t63.5 56.5t88 21.5q59 0 104.5 -21.5t81 -47t66.5 -47t64 -21.5q18 0 33.5 13t27.5 31.5t19.5 39t11.5 35.5h125q-14 -49 -32.5 -96.5t-45.5 -82t-63.5 -56t-88.5 -21.5q-59 0 -104 21.5t-81 47t-66.5 47t-63.5 21.5q-18 0 -33.5 -13.5 t-28 -32t-19.5 -39t-11 -34.5h-125z" />
<glyph unicode="&#xa1;" horiz-adv-x="563" d="M76 -31l235 916l99 -11l-129 -925zM287 1176q0 53 35.5 93t95.5 40q59 0 96 -40t37 -93t-37 -91t-96 -38t-95 38t-36 91z" />
<glyph unicode="&#xa2;" horiz-adv-x="911" d="M74 420q0 100 38 198.5t106.5 176t164.5 125t215 47.5q16 0 34.5 -1t35.5 -3l32 94q14 41 33 96h105l-72 -209q102 -29 176 -88l-72 -145q-66 59 -153 84q-18 -51 -37 -105q-16 -47 -35.5 -106.5t-42.5 -122.5q-51 -147 -113 -334q12 -2 25.5 -3t26.5 -1q59 0 118.5 12 t112.5 39v-156q-59 -27 -121.5 -39t-126.5 -12q-43 0 -86 6l-76 -225h-104l84 250q-119 45 -193.5 150.5t-74.5 271.5zM250 430q0 -109 40 -176.5t105 -99.5l223 659q-8 2 -16 2h-18q-84 0 -146.5 -36t-104.5 -92t-62.5 -124.5t-20.5 -132.5z" />
<glyph unicode="&#xa3;" horiz-adv-x="1044" d="M-27 100q68 10 114 27.5t77 45.5t49 67t29 94q10 49 18 106.5t16 120.5h-182l-4 111h199q10 68 18 130t19 111q18 102 61 177t103.5 124.5t133 73t152.5 23.5q100 0 182 -33t146 -86l-72 -141q-49 43 -119.5 76.5t-152.5 33.5q-113 0 -177.5 -68.5t-86.5 -179.5 q-8 -45 -16.5 -107.5t-16.5 -133.5h391l-8 -111h-397q-8 -59 -16.5 -116.5t-18.5 -110.5q-6 -20 -11.5 -41t-9.5 -39q63 -61 137 -96t136 -35q72 0 124 43t93 153l123 -40q-41 -154 -134.5 -232t-207.5 -80q-92 -2 -177.5 48.5t-152.5 119.5q-47 -72 -131 -112.5t-217 -59.5 q-4 41 -6 72q-2 27 -4.5 48t-2.5 17z" />
<glyph unicode="&#xa4;" horiz-adv-x="1028" d="M53 416l6 112h164q4 53 13 109q4 31 11 60.5t15 58.5h-117l-6 112h158q35 88 83 164t111.5 132.5t142.5 89t175 32.5q92 0 185 -27.5t165 -82.5l-69 -144q-57 51 -138.5 78t-156.5 27q-111 0 -190 -77t-128 -192h467l-6 -112h-500q-16 -59 -24 -119q-14 -59 -17 -109h394 l6 -112h-400q6 -143 72 -223t219 -80q61 0 120.5 11t113.5 40v-152q-57 -27 -120 -38t-128 -11q-457 0 -457 453h-164z" />
<glyph unicode="&#xa5;" horiz-adv-x="1112" d="M72 268l28 111h357l30 160h-356l16 112h314l-279 629h191l231 -559l436 559h199l-510 -629h303l-26 -112h-357l-31 -160h355l-15 -111h-360l-51 -268h-166l51 268h-360z" />
<glyph unicode="&#xa7;" horiz-adv-x="964" d="M57 -14l74 149q55 -53 141 -86t162 -33q27 0 58.5 6.5t58.5 20.5t44 36.5t17 57.5t-20.5 63.5t-55 51t-78.5 43t-91 39.5q-53 20 -103.5 44.5t-91.5 55.5t-65.5 71t-24.5 93t24.5 97t64.5 78t88 56.5t97 32.5q-37 33 -62.5 74t-25.5 106q0 63 25.5 114.5t71 87.5 t105.5 55.5t128 19.5q98 0 192.5 -27.5t161.5 -72.5l-73 -150q-55 39 -137.5 67.5t-151.5 28.5q-25 0 -52.5 -5t-49 -16t-36 -31.5t-14.5 -51.5q0 -33 19.5 -58.5t53.5 -47t76 -40t89 -38.5q53 -23 105.5 -48.5t94.5 -59.5t67.5 -76t25.5 -99q0 -55 -21.5 -99t-57.5 -77 t-83 -56.5t-96 -35.5q33 -31 52 -69t19 -97q0 -70 -28.5 -125t-75.5 -93t-110.5 -58.5t-133.5 -20.5q-53 0 -106.5 9t-102.5 25.5t-93 39t-75 49.5zM246 641q0 -35 32.5 -64.5t76.5 -54t89 -42t72 -29.5q35 -16 67.5 -28.5t65.5 -33.5q27 12 53.5 28.5t49 38t37 48 t14.5 57.5q0 37 -30 66.5t-70.5 52t-85 40t-70.5 30.5q-33 16 -65.5 27t-65.5 30q-25 -12 -53.5 -27.5t-55 -36t-44 -46t-17.5 -56.5z" />
<glyph unicode="&#xa8;" horiz-adv-x="806" d="M219 1202q0 51 35 89t88 38q55 0 90 -38t35 -89q0 -53 -35 -91t-90 -38q-53 0 -88 38t-35 91zM639 1202q0 51 34 89t89 38t89 -38t34 -89q0 -53 -34 -91t-89 -38t-89 38t-34 91z" />
<glyph unicode="&#xa9;" horiz-adv-x="1490" d="M119 637q0 139 52 261t143.5 213t213 144.5t260.5 53.5t261 -53.5t213.5 -144.5t143.5 -213t52 -261t-52 -261t-143.5 -212t-213.5 -143.5t-261 -53.5t-260.5 53.5t-213 143.5t-143.5 212t-52 261zM180 637q0 -127 48 -237.5t130 -194.5t193 -132t237 -48q125 0 237 48 t193.5 132t130 194.5t48.5 237.5q0 125 -48.5 237.5t-130 195.5t-193.5 132t-237 49q-127 0 -237.5 -49t-192.5 -132t-130 -195.5t-48 -237.5zM449 635q0 86 27.5 156.5t76.5 121t117.5 77t150.5 26.5q61 0 124 -14.5t110 -43.5l-41 -110q-90 57 -193 57 q-113 0 -179.5 -70.5t-66.5 -193.5q0 -125 68 -198.5t180 -73.5q57 0 109.5 19.5t91.5 47.5l25 -121q-45 -29 -106.5 -43t-123.5 -14q-82 0 -150.5 25.5t-117.5 75t-75.5 119t-26.5 157.5z" />
<glyph unicode="&#xaa;" horiz-adv-x="720" d="M86 711q0 63 29.5 115.5t89 90t152 58t216.5 20.5l9 39q16 78 -20 116t-113 38q-55 0 -111.5 -19.5t-114.5 -52.5l-24 119q61 35 125.5 55.5t136.5 20.5q57 0 110.5 -12.5t91 -44t54 -87t0.5 -139.5l-55 -274q-14 -72 2 -124t38 -89l-147 -33q-16 23 -25.5 49.5 t-17.5 60.5h-6q-47 -45 -99.5 -76.5t-117.5 -31.5q-45 0 -82 16.5t-63.5 44t-42 64.5t-15.5 76zM225 727q0 -43 35 -69.5t80 -26.5q53 0 101 21.5t77 47.5l37 193q-100 -4 -163.5 -20.5t-100.5 -39t-51.5 -50t-14.5 -56.5z" />
<glyph unicode="&#xab;" horiz-adv-x="1187" d="M27 387l36 184l572 316l4 -123l-449 -299v-2l326 -283l-39 -108zM569 383l37 192l600 332v-131l-467 -311v-2l340 -295l-39 -117z" />
<glyph unicode="&#xac;" horiz-adv-x="1071" d="M70 387q0 119 42 224.5t114.5 185.5t171 126t212.5 46q63 0 127 -17.5t117 -42.5l176 60l-143 -723q-14 -68 -4 -97.5t71 -29.5l-36 -142q-59 -4 -96.5 6.5t-60 30t-32.5 43t-14 43.5h-2q-59 -55 -127 -93t-146 -38q-82 0 -150.5 32t-117.5 88t-75.5 133t-26.5 165z M246 408q0 -66 19.5 -119t53 -91t78.5 -58.5t97 -20.5q66 0 118 24.5t101 57.5l104 524q-41 41 -99.5 68.5t-127.5 27.5q-78 0 -141.5 -35.5t-108.5 -94t-69.5 -133.5t-24.5 -150z" />
<glyph unicode="&#xad;" horiz-adv-x="634" d="M74 418v157h504v-157h-504z" />
<glyph unicode="&#xae;" horiz-adv-x="1490" d="M119 637q0 139 52 261t143.5 213t213 144.5t260.5 53.5t261 -53.5t213.5 -144.5t143.5 -213t52 -261t-52 -261t-143.5 -212t-213.5 -143.5t-261 -53.5t-260.5 53.5t-213 143.5t-143.5 212t-52 261zM180 637q0 -127 48 -237.5t130 -194.5t193 -132t237 -48q125 0 237 48 t193.5 132t130 194.5t48.5 237.5q0 125 -48.5 237.5t-130 195.5t-193.5 132t-237 49q-127 0 -237.5 -49t-192.5 -132t-130 -195.5t-48 -237.5zM530 283v725h263q135 0 206.5 -59.5t71.5 -168.5q0 -78 -37 -131t-102 -80l178 -286h-145l-158 258l-150 -9v-249h-127zM655 639 l123 2q90 2 128 37t38 94q0 66 -41 94.5t-125 28.5h-123v-256z" />
<glyph unicode="&#xaf;" horiz-adv-x="806" d="M252 1102l29 108h544l-10 -108h-563z" />
<glyph unicode="&#xb0;" horiz-adv-x="772" d="M145 948q0 74 30 139.5t80 114.5t117.5 78t143.5 29q139 0 224 -83t85 -220q0 -76 -29.5 -141.5t-80.5 -115t-120 -77t-146 -27.5q-137 0 -220.5 84t-83.5 219zM254 952q0 -94 57.5 -149t153.5 -55q51 0 97 20t81 55t54.5 81t19.5 97q0 96 -59.5 150.5t-153.5 54.5 q-53 0 -98.5 -20.5t-79 -54t-53 -80.5t-19.5 -99z" />
<glyph unicode="&#xb1;" horiz-adv-x="1490" d="M119 637q0 139 52 261t143.5 213t213 144.5t260.5 53.5t261 -53.5t213.5 -144.5t143.5 -213t52 -261t-52 -261t-143.5 -213t-213.5 -143.5t-261 -52.5t-260.5 52.5t-213 143.5t-143.5 213t-52 261zM180 637q0 -127 48 -237.5t130 -194.5t193 -132t237 -48q125 0 237 48 t193.5 132t130 194.5t48.5 237.5q0 125 -48.5 237.5t-130 195.5t-193.5 132t-237 49q-127 0 -237.5 -49t-192.5 -132t-130 -195.5t-48 -237.5zM573 262v725h238q152 0 223.5 -67.5t71.5 -171.5q0 -129 -81 -192.5t-222 -63.5h-103v-230h-127zM698 602l113 2q166 2 166 139 q0 131 -174 131h-105v-272z" />
<glyph unicode="&#xb2;" horiz-adv-x="675" d="M18 559q-2 0 0 17.5t7 39.5q4 25 6 60q106 80 191 141.5t144.5 111.5t91 96t31.5 99q0 57 -41.5 86t-101.5 29q-51 0 -101 -18.5t-91 -46.5l-31 100q53 35 117.5 56.5t128.5 21.5q51 0 99 -13.5t85 -40t58.5 -66.5t21.5 -91q0 -68 -33 -122t-93.5 -107.5t-143 -111 t-183.5 -130.5h402l-13 -111h-551z" />
<glyph unicode="&#xb3;" horiz-adv-x="675" d="M18 610l39 107q49 -29 109.5 -47.5t120.5 -18.5q33 0 64.5 8.5t57 24.5t41 41t15.5 59q0 35 -18.5 57.5t-48 36t-65.5 18.5t-69 5q-23 0 -46 -1t-46 -3l14 96q31 4 82 12.5t100.5 26t85 45t35.5 70.5q0 53 -44 73.5t-93 20.5q-51 0 -104 -16.5t-94 -38.5l-29 104 q53 29 116.5 45.5t125.5 16.5q43 0 90 -9.5t85 -31t62.5 -55t24.5 -82.5t-21.5 -84t-57.5 -60.5t-79 -41t-86 -23.5q41 -4 80 -15.5t69.5 -33t49 -53.5t18.5 -75q0 -57 -26.5 -103t-70.5 -78t-102.5 -48t-119.5 -16q-63 0 -137 17.5t-128 49.5z" />
<glyph unicode="&#xb4;" horiz-adv-x="806" d="M362 1065l289 371h211l-370 -371h-130z" />
<glyph unicode="&#xb5;" horiz-adv-x="1071" d="M-16 -403l77 151q27 -20 63 -39.5t76 -35t82 -24.5t83 -9q131 0 200.5 79.5t100.5 237.5l20 106q-57 -39 -110.5 -66.5t-135.5 -27.5t-150.5 32t-117.5 88t-75.5 133t-26.5 165q0 119 42 224.5t114.5 185.5t171 126t212.5 46q63 0 127 -17.5t117 -42.5l176 60l-196 -1012 q-23 -111 -58 -198t-91 -148.5t-137 -94t-194 -32.5q-98 0 -198.5 32.5t-171.5 80.5zM246 408q0 -66 19.5 -119t53 -91t78.5 -58.5t97 -20.5q66 0 118 24.5t101 57.5l104 524q-41 41 -99.5 68.5t-127.5 27.5q-78 0 -141.5 -35.5t-108.5 -94t-69.5 -133.5t-24.5 -150z" />
<glyph unicode="&#xb6;" horiz-adv-x="1019" d="M168 858q0 92 34 169t98.5 132t154.5 87t204 32h340l-280 -1411h-146l134 659q-16 -4 -40 -4h-79q-66 0 -139.5 17.5t-136 57.5t-103.5 104.5t-41 156.5z" />
<glyph unicode="&#xb7;" horiz-adv-x="450" d="M96 467q0 53 38 91t97 38q57 0 93 -38t36 -91t-35.5 -93t-93.5 -40q-59 0 -97 40t-38 93z" />
<glyph unicode="&#xb8;" horiz-adv-x="806" d="M139 -524l8 108q123 -4 182.5 25t59.5 78q0 41 -56.5 64.5t-178.5 15.5v88l282 225h137l-272 -217q111 -10 167 -56.5t56 -111.5q0 -92 -93 -152.5t-292 -66.5z" />
<glyph unicode="&#xb9;" horiz-adv-x="675" d="M197 1153l18 113l338 75l-168 -782h-131l135 635z" />
<glyph unicode="&#xba;" horiz-adv-x="862" d="M150 860q0 86 29.5 167t83.5 144.5t131 101.5t173 38q74 0 135.5 -28t105.5 -76t67.5 -111t23.5 -135q0 -88 -29.5 -169t-85 -142.5t-133.5 -98.5t-172 -37q-74 0 -135 26.5t-104 72.5t-66.5 109.5t-23.5 137.5zM283 868q0 -104 55 -170.5t158 -66.5q66 0 116 29.5 t83.5 76.5t51 104.5t17.5 112.5q0 104 -55.5 172t-157.5 68q-66 0 -116 -30.5t-84 -78t-51 -104.5t-17 -113z" />
<glyph unicode="&#xbb;" horiz-adv-x="1200" d="M-2 182l469 312v2l-340 295l39 116l475 -332l-39 -194l-602 -330zM565 195l451 299v2l-324 282l37 109l453 -316l-37 -184l-574 -315z" />
<glyph unicode="&#xbc;" horiz-adv-x="1464" d="M-12 -238l1382 1518h129l-1382 -1518h-129zM238 1153l18 113l338 75l-168 -782h-131l135 635zM770 -100l2 86l461 499h156l-103 -483h119l-19 -102h-120l-41 -193h-123l39 193h-371zM909 2h256l74 356z" />
<glyph unicode="&#xbd;" horiz-adv-x="1464" d="M-12 -238l1382 1518h129l-1382 -1518h-129zM238 1153l18 113l338 75l-168 -782h-131l135 635zM766 -275.5q2 17.5 6 39.5q4 25 6 60q106 80 191.5 141.5t145 111.5t91 96t31.5 99q0 57 -42 86t-101 29q-51 0 -101.5 -18.5t-91.5 -46.5l-31 100q53 35 118 56.5t128 21.5 q51 0 99.5 -13.5t85 -40t58 -66.5t21.5 -91q0 -68 -32.5 -122t-93 -107.5t-143.5 -111t-183 -130.5h401l-12 -111h-551q-2 0 0 17.5z" />
<glyph unicode="&#xbe;" horiz-adv-x="1464" d="M-12 -238l1382 1518h129l-1382 -1518h-129zM59 610l39 107q49 -29 109.5 -47.5t120.5 -18.5q33 0 64.5 8.5t57 24.5t41 41t15.5 59q0 35 -18.5 57.5t-48 36t-65.5 18.5t-69 5q-23 0 -46 -1t-46 -3l14 96q31 4 82 12.5t100.5 26t85 45t35.5 70.5q0 53 -44 73.5t-93 20.5 q-51 0 -104 -16.5t-94 -38.5l-29 104q53 29 116.5 45.5t125.5 16.5q43 0 90 -9.5t85 -31t62.5 -55t24.5 -82.5t-21.5 -84t-57.5 -60.5t-79 -41t-86 -23.5q41 -4 80 -15.5t69.5 -33t49 -53.5t18.5 -75q0 -57 -26.5 -103t-70.5 -78t-102.5 -48t-119.5 -16q-63 0 -137 17.5 t-128 49.5zM770 -100l2 86l461 499h156l-103 -483h119l-19 -102h-120l-41 -193h-123l39 193h-371zM909 2h256l74 356z" />
<glyph unicode="&#xbf;" horiz-adv-x="729" d="M41 281q0 76 24.5 126t63.5 83.5t87 54t93 35.5q43 12 79 23t60.5 25.5t38 35t13.5 51.5q0 43 -28 84t-54 73l86 19q49 -37 84 -90t35 -117q0 -55 -20.5 -93t-55.5 -64.5t-79 -44t-89 -31.5q-41 -12 -78 -24.5t-65.5 -29t-45 -40t-16.5 -58.5q0 -51 32 -84t77 -52.5 t95 -26.5t89 -7q23 0 47.5 1t46.5 3l-29 -158q-23 -4 -46 -5t-46 -1q-74 0 -145.5 20.5t-127.5 59.5t-91 97.5t-35 134.5zM426 1176q0 53 36 93t95 40t96 -40t37 -93t-37 -91t-96 -38t-95 38t-36 91z" />
<glyph unicode="&#xc0;" horiz-adv-x="1191" d="M-98 0l768 1278h194l226 -1278h-179l-55 334h-567l-197 -334h-190zM383 492h448l-98 598zM545 1778h211l145 -371h-129z" />
<glyph unicode="&#xc1;" horiz-adv-x="1191" d="M-98 0l768 1278h194l226 -1278h-179l-55 334h-567l-197 -334h-190zM383 492h448l-98 598zM709 1407l288 371h211l-370 -371h-129z" />
<glyph unicode="&#xc2;" horiz-adv-x="1191" d="M-98 0l768 1278h194l226 -1278h-179l-55 334h-567l-197 -334h-190zM383 492h448l-98 598zM444 1407l310 383h180l162 -383h-150l-119 260h-4l-217 -260h-162z" />
<glyph unicode="&#xc3;" horiz-adv-x="1191" d="M-98 0l768 1278h194l226 -1278h-179l-55 334h-567l-197 -334h-190zM383 492h448l-98 598zM399 1432q14 49 33 96t45.5 82t63.5 56.5t88 21.5q59 0 104 -21.5t81 -47.5t66.5 -47.5t63.5 -21.5q18 0 33.5 13.5t28 32t19.5 39t11 34.5h125q-14 -49 -32.5 -96t-45 -82 t-63.5 -56.5t-88 -21.5q-59 0 -104.5 21.5t-81 47t-66.5 47t-64 21.5q-18 0 -33.5 -13t-27.5 -31.5t-19.5 -39t-11.5 -34.5h-125z" />
<glyph unicode="&#xc4;" horiz-adv-x="1191" d="M-98 0l768 1278h194l226 -1278h-179l-55 334h-567l-197 -334h-190zM383 492h448l-98 598zM465 1544q0 51 35 89t88 38q55 0 90 -38t35 -89q0 -53 -35 -91t-90 -38q-53 0 -88 38t-35 91zM885 1544q0 51 33.5 89t89.5 38q55 0 88.5 -38t33.5 -89q0 -53 -33.5 -91t-88.5 -38 t-89 38t-34 91z" />
<glyph unicode="&#xc5;" horiz-adv-x="1191" d="M-92 0l727 1208q-51 23 -82 67t-31 107q0 55 22.5 99.5t59.5 75t85 47t102 16.5q47 0 91 -13.5t77.5 -40t54 -65.5t20.5 -90q0 -78 -43 -131t-108 -80l213 -1200h-178l-56 334h-567l-197 -334h-190zM389 492h449l-99 598zM631 1389q0 -59 41 -91t96 -32q66 0 113 39.5 t47 105.5q0 59 -42 91t-98 32q-66 0 -111.5 -40t-45.5 -105z" />
<glyph unicode="&#xc6;" horiz-adv-x="1710" d="M-109 0l981 1280h904l-31 -162h-639l-76 -395h531l-31 -162h-531l-77 -399h637l-31 -162h-811l63 334h-438l-254 -334h-197zM465 496h348l123 624z" />
<glyph unicode="&#xc7;" horiz-adv-x="1222" d="M102 547q0 166 54.5 305t153 240.5t234.5 159t300 57.5q190 0 401 -78l-33 -164q-102 45 -197 66.5t-181 21.5q-125 0 -226.5 -45t-174.5 -125t-111.5 -188.5t-38.5 -233.5q0 -102 31.5 -184t88 -138.5t137.5 -86t179 -29.5q86 0 173 24.5t161 61.5l39 -154 q-37 -18 -80 -32.5t-89 -25.5t-92.5 -18.5t-87.5 -9.5q0 -2 -21.5 -18t-45.5 -37q-31 -23 -68 -53q111 -10 167 -56.5t56 -111.5q0 -92 -93 -152.5t-292 -66.5l9 108q123 -4 182 25t59 78q0 41 -56 64.5t-179 15.5v88l151 120q-111 14 -205 59.5t-161.5 118t-105.5 172 t-38 222.5z" />
<glyph unicode="&#xc8;" horiz-adv-x="1071" d="M72 0l247 1280h811l-30 -162h-639l-76 -395h533l-33 -162h-531l-78 -399h637l-30 -162h-811zM432 1778h211l145 -371h-129z" />
<glyph unicode="&#xc9;" horiz-adv-x="1071" d="M72 0l247 1280h811l-30 -162h-639l-76 -395h533l-33 -162h-531l-78 -399h637l-30 -162h-811zM629 1407l289 371h210l-370 -371h-129z" />
<glyph unicode="&#xca;" horiz-adv-x="1071" d="M72 0l247 1280h811l-30 -162h-639l-76 -395h533l-33 -162h-531l-78 -399h637l-30 -162h-811zM408 1407l309 383h180l162 -383h-150l-118 260h-5l-217 -260h-161z" />
<glyph unicode="&#xcb;" horiz-adv-x="1071" d="M72 0l247 1280h811l-30 -162h-639l-76 -395h533l-33 -162h-531l-78 -399h637l-30 -162h-811zM414 1544q0 51 34.5 89t88.5 38q55 0 90 -38t35 -89q0 -53 -35 -91t-90 -38q-53 0 -88 38t-35 91zM834 1544q0 51 33.5 89t88.5 38t89 -38t34 -89q0 -53 -33.5 -91t-89.5 -38 q-55 0 -88.5 38t-33.5 91z" />
<glyph unicode="&#xcc;" horiz-adv-x="505" d="M76 0l248 1280h172l-248 -1280h-172zM150 1778h210l146 -371h-129z" />
<glyph unicode="&#xcd;" horiz-adv-x="505" d="M76 0l248 1280h172l-248 -1280h-172zM350 1407l289 371h211l-371 -371h-129z" />
<glyph unicode="&#xce;" horiz-adv-x="505" d="M76 0l248 1280h172l-248 -1280h-172zM86 1407l309 383h180l162 -383h-149l-119 260h-4l-217 -260h-162z" />
<glyph unicode="&#xcf;" horiz-adv-x="505" d="M76 0l248 1280h172l-248 -1280h-172zM104 1544q0 51 35 89t88 38q55 0 90 -38t35 -89q0 -53 -34.5 -91t-90.5 -38q-53 0 -88 38t-35 91zM524 1544q0 51 34 89t89 38t89 -38t34 -89q0 -53 -34 -91t-89 -38t-89 38t-34 91z" />
<glyph unicode="&#xd0;" horiz-adv-x="1316" d="M68 573v150h147l109 557h305q127 0 239.5 -35t196.5 -102.5t133 -170t49 -237.5q0 -145 -45 -278t-140 -234.5t-241.5 -162t-349.5 -60.5h-395l110 573h-118zM281 162h227q117 0 219 37t178 107.5t119 174t43 234.5q0 102 -33 177t-92 124t-144 73.5t-192 26.5l-141 2 l-76 -395h348v-150h-377z" />
<glyph unicode="&#xd1;" horiz-adv-x="1357" d="M72 0l241 1280h217l459 -1067l197 1067h168l-244 -1292h-209l-463 1081l-196 -1069h-170zM483 1432q14 49 33 96t45.5 82t63.5 56.5t88 21.5q59 0 104 -21.5t81 -47.5t66.5 -47.5t63.5 -21.5q18 0 33.5 13.5t28 32t19.5 39t11 34.5h125q-14 -49 -32.5 -96t-45 -82 t-63.5 -56.5t-88 -21.5q-59 0 -104.5 21.5t-81 47t-66.5 47t-64 21.5q-18 0 -33.5 -13t-27.5 -31.5t-19.5 -39t-11.5 -34.5h-125z" />
<glyph unicode="&#xd2;" horiz-adv-x="1462" d="M106 569q0 147 54.5 282.5t150 237t227.5 162t289 60.5q129 0 239 -43t189.5 -121t124.5 -188.5t45 -245.5q0 -147 -54 -281.5t-150.5 -238t-228.5 -164t-287 -60.5q-129 0 -239 43t-189.5 122t-125 189.5t-45.5 245.5zM285 584q0 -102 31.5 -187.5t89 -146t139.5 -94 t180 -33.5q121 0 217 48t164 128t104.5 183t36.5 214q0 102 -31.5 186.5t-89 144.5t-138.5 94t-179 34q-121 0 -218 -48t-165 -127t-104.5 -182.5t-36.5 -213.5zM565 1778h211l146 -371h-129z" />
<glyph unicode="&#xd3;" horiz-adv-x="1462" d="M106 569q0 147 54.5 282.5t150 237t227.5 162t289 60.5q129 0 239 -43t189.5 -121t124.5 -188.5t45 -245.5q0 -147 -54 -281.5t-150.5 -238t-228.5 -164t-287 -60.5q-129 0 -239 43t-189.5 122t-125 189.5t-45.5 245.5zM285 584q0 -102 31.5 -187.5t89 -146t139.5 -94 t180 -33.5q121 0 217 48t164 128t104.5 183t36.5 214q0 102 -31.5 186.5t-89 144.5t-138.5 94t-179 34q-121 0 -218 -48t-165 -127t-104.5 -182.5t-36.5 -213.5zM803 1407l289 371h211l-371 -371h-129z" />
<glyph unicode="&#xd4;" horiz-adv-x="1462" d="M106 569q0 147 54.5 282.5t150 237t227.5 162t289 60.5q129 0 239 -43t189.5 -121t124.5 -188.5t45 -245.5q0 -147 -54 -281.5t-150.5 -238t-228.5 -164t-287 -60.5q-129 0 -239 43t-189.5 122t-125 189.5t-45.5 245.5zM285 584q0 -102 31.5 -187.5t89 -146t139.5 -94 t180 -33.5q121 0 217 48t164 128t104.5 183t36.5 214q0 102 -31.5 186.5t-89 144.5t-138.5 94t-179 34q-121 0 -218 -48t-165 -127t-104.5 -182.5t-36.5 -213.5zM561 1407l309 383h181l161 -383h-149l-119 260h-4l-217 -260h-162z" />
<glyph unicode="&#xd5;" horiz-adv-x="1462" d="M106 569q0 147 54.5 282.5t150 237t227.5 162t289 60.5q129 0 239 -43t189.5 -121t124.5 -188.5t45 -245.5q0 -147 -54 -281.5t-150.5 -238t-228.5 -164t-287 -60.5q-129 0 -239 43t-189.5 122t-125 189.5t-45.5 245.5zM285 584q0 -102 31.5 -187.5t89 -146t139.5 -94 t180 -33.5q121 0 217 48t164 128t104.5 183t36.5 214q0 102 -31.5 186.5t-89 144.5t-138.5 94t-179 34q-121 0 -218 -48t-165 -127t-104.5 -182.5t-36.5 -213.5zM532 1432q14 49 33 96t45.5 82t63.5 56.5t88 21.5q59 0 104 -21.5t81 -47.5t66.5 -47.5t63.5 -21.5 q18 0 33.5 13.5t28 32t19.5 39t11 34.5h125q-14 -49 -32.5 -96t-45 -82t-63.5 -56.5t-88 -21.5q-59 0 -104.5 21.5t-81 47t-66.5 47t-63 21.5q-18 0 -34 -13t-28 -31.5t-19 -39t-12 -34.5h-125z" />
<glyph unicode="&#xd6;" horiz-adv-x="1462" d="M106 569q0 147 54.5 282.5t150 237t227.5 162t289 60.5q129 0 239 -43t189.5 -121t124.5 -188.5t45 -245.5q0 -147 -54 -281.5t-150.5 -238t-228.5 -164t-287 -60.5q-129 0 -239 43t-189.5 122t-125 189.5t-45.5 245.5zM285 584q0 -102 31.5 -187.5t89 -146t139.5 -94 t180 -33.5q121 0 217 48t164 128t104.5 183t36.5 214q0 102 -31.5 186.5t-89 144.5t-138.5 94t-179 34q-121 0 -218 -48t-165 -127t-104.5 -182.5t-36.5 -213.5zM582 1544q0 51 34.5 89t88.5 38q55 0 89.5 -38t34.5 -89q0 -53 -34.5 -91t-89.5 -38q-53 0 -88 38t-35 91z M1001 1544q0 51 34 89t89 38t89 -38t34 -89q0 -53 -33.5 -91t-89.5 -38q-55 0 -89 38t-34 91z" />
<glyph unicode="&#xd7;" horiz-adv-x="991" d="M82 158l326 321l-326 322l98 98l322 -326l321 326l99 -98l-326 -322l326 -321l-99 -99l-321 326l-322 -326z" />
<glyph unicode="&#xd8;" horiz-adv-x="1462" d="M66 -137l221 268q-82 78 -129 189.5t-47 248.5q0 147 54 281.5t150.5 237t228.5 163t287 60.5q205 0 349 -101l172 207h141l-227 -274q78 -78 122 -186.5t44 -241.5q0 -147 -54.5 -282.5t-151 -239t-228.5 -164t-287 -60.5q-98 0 -183.5 24.5t-156.5 69.5l-166 -200h-139 zM289 584q0 -98 28.5 -178t79.5 -140l676 813q-111 76 -258 76q-121 0 -218 -48t-166 -127t-105.5 -182.5t-36.5 -213.5zM479 195q106 -72 250 -72q121 0 218 48t165 128t104.5 183.5t36.5 213.5q0 92 -26.5 171t-73.5 139z" />
<glyph unicode="&#xd9;" horiz-adv-x="1265" d="M125 371q0 41 5 83t11 74l148 752h174l-146 -752q-6 -29 -11 -58.5t-5 -59.5q0 -145 85 -212t226 -67q74 0 131.5 23.5t100.5 66.5t70.5 102.5t41.5 129.5l162 827h172l-162 -842q-20 -106 -63 -193t-108.5 -148.5t-153.5 -94.5t-201 -33q-102 0 -189 24.5t-150.5 74 t-100.5 125t-37 178.5zM508 1778h211l145 -371h-129z" />
<glyph unicode="&#xda;" horiz-adv-x="1265" d="M125 371q0 41 5 83t11 74l148 752h174l-146 -752q-6 -29 -11 -58.5t-5 -59.5q0 -145 85 -212t226 -67q74 0 131.5 23.5t100.5 66.5t70.5 102.5t41.5 129.5l162 827h172l-162 -842q-20 -106 -63 -193t-108.5 -148.5t-153.5 -94.5t-201 -33q-102 0 -189 24.5t-150.5 74 t-100.5 125t-37 178.5zM725 1407l289 371h211l-371 -371h-129z" />
<glyph unicode="&#xdb;" horiz-adv-x="1265" d="M125 371q0 41 5 83t11 74l148 752h174l-146 -752q-6 -29 -11 -58.5t-5 -59.5q0 -145 85 -212t226 -67q74 0 131.5 23.5t100.5 66.5t70.5 102.5t41.5 129.5l162 827h172l-162 -842q-20 -106 -63 -193t-108.5 -148.5t-153.5 -94.5t-201 -33q-102 0 -189 24.5t-150.5 74 t-100.5 125t-37 178.5zM481 1407l310 383h180l162 -383h-150l-119 260h-4l-217 -260h-162z" />
<glyph unicode="&#xdc;" horiz-adv-x="1265" d="M125 371q0 41 5 83t11 74l148 752h174l-146 -752q-6 -29 -11 -58.5t-5 -59.5q0 -145 85 -212t226 -67q74 0 131.5 23.5t100.5 66.5t70.5 102.5t41.5 129.5l162 827h172l-162 -842q-20 -106 -63 -193t-108.5 -148.5t-153.5 -94.5t-201 -33q-102 0 -189 24.5t-150.5 74 t-100.5 125t-37 178.5zM481 1544q0 51 35 89t88 38q55 0 90 -38t35 -89q0 -53 -35 -91t-90 -38q-53 0 -88 38t-35 91zM901 1544q0 51 34 89t89 38t89 -38t34 -89q0 -53 -34 -91t-89 -38t-89 38t-34 91z" />
<glyph unicode="&#xdd;" horiz-adv-x="1105" d="M182 1280h189l225 -606l444 606h199l-594 -776l-98 -504h-166l100 516zM625 1407l288 371h211l-370 -371h-129z" />
<glyph unicode="&#xde;" horiz-adv-x="1099" d="M72 0l247 1280h175l-41 -209h153q117 0 204 -32.5t145.5 -86t88 -120t29.5 -136.5q0 -102 -34.5 -189t-104.5 -151.5t-172.5 -101.5t-237.5 -37l-235 -2l-45 -215h-172zM317 379h228q92 0 157.5 24.5t108.5 64.5t62.5 92.5t19.5 107.5q0 109 -80 175t-233 66h-160z" />
<glyph unicode="&#xdf;" horiz-adv-x="1167" d="M82 797l6 106l184 45q4 37 11 66q4 25 7 45t7 24q18 94 57 160t92.5 106t117 57t128.5 17q74 0 136.5 -21.5t107.5 -59t69.5 -92t24.5 -120.5q0 -90 -39 -142t-87 -90t-87 -71.5t-39 -85.5q0 -37 23.5 -65.5t58.5 -56t76 -57.5t76 -67.5t58.5 -88t23.5 -115.5 q0 -61 -26 -119.5t-73 -103.5t-112.5 -72t-145.5 -27q-90 0 -165.5 21.5t-163.5 68.5l47 162q100 -57 165.5 -81.5t135.5 -24.5q39 0 69.5 14t52 36.5t32 51.5t10.5 57q0 47 -23 82t-57.5 67t-74.5 61.5t-75 64.5t-57.5 78t-22.5 102q0 72 37 114t82 77.5t82 77.5t37 116 q0 70 -40 116t-126 46q-84 0 -139.5 -50t-73.5 -145l-211 -1081h-168l152 784z" />
<glyph unicode="&#xe0;" d="M27 240q0 72 33.5 134t109.5 107t195.5 68.5t291.5 17.5l7 33q37 213 -218 213q-66 0 -142.5 -22.5t-139.5 -57.5l-14 156q59 33 147 55.5t176 22.5q205 0 300 -98.5t54 -303.5l-67 -319q-14 -68 -3 -97.5t72 -29.5l-36 -142q-59 -4 -97.5 8.5t-62 33t-34.5 45t-13 45.5 h-2q-59 -61 -133 -99.5t-150 -38.5q-61 0 -111.5 23.5t-87 61.5t-56 86t-19.5 98zM205 260q0 -66 44 -103.5t111 -37.5q74 0 130.5 26.5t97.5 59.5l49 252q-217 -8 -324.5 -59.5t-107.5 -137.5zM285 1436h211l145 -371h-129z" />
<glyph unicode="&#xe1;" d="M27 240q0 72 33.5 134t109.5 107t195.5 68.5t291.5 17.5l7 33q37 213 -218 213q-66 0 -142.5 -22.5t-139.5 -57.5l-14 156q59 33 147 55.5t176 22.5q205 0 300 -98.5t54 -303.5l-67 -319q-14 -68 -3 -97.5t72 -29.5l-36 -142q-59 -4 -97.5 8.5t-62 33t-34.5 45t-13 45.5 h-2q-59 -61 -133 -99.5t-150 -38.5q-61 0 -111.5 23.5t-87 61.5t-56 86t-19.5 98zM205 260q0 -66 44 -103.5t111 -37.5q74 0 130.5 26.5t97.5 59.5l49 252q-217 -8 -324.5 -59.5t-107.5 -137.5zM442 1065l289 371h211l-371 -371h-129z" />
<glyph unicode="&#xe2;" d="M27 240q0 72 33.5 134t109.5 107t195.5 68.5t291.5 17.5l7 33q37 213 -218 213q-66 0 -142.5 -22.5t-139.5 -57.5l-14 156q59 33 147 55.5t176 22.5q205 0 300 -98.5t54 -303.5l-67 -319q-14 -68 -3 -97.5t72 -29.5l-36 -142q-59 -4 -97.5 8.5t-62 33t-34.5 45t-13 45.5 h-2q-59 -61 -133 -99.5t-150 -38.5q-61 0 -111.5 23.5t-87 61.5t-56 86t-19.5 98zM205 260q0 -66 44 -103.5t111 -37.5q74 0 130.5 26.5t97.5 59.5l49 252q-217 -8 -324.5 -59.5t-107.5 -137.5zM219 1065l309 383h181l161 -383h-149l-119 260h-4l-217 -260h-162z" />
<glyph unicode="&#xe3;" d="M27 240q0 72 33.5 134t109.5 107t195.5 68.5t291.5 17.5l7 33q37 213 -218 213q-66 0 -142.5 -22.5t-139.5 -57.5l-14 156q59 33 147 55.5t176 22.5q205 0 300 -98.5t54 -303.5l-67 -319q-14 -68 -3 -97.5t72 -29.5l-36 -142q-59 -4 -97.5 8.5t-62 33t-34.5 45t-13 45.5 h-2q-59 -61 -133 -99.5t-150 -38.5q-61 0 -111.5 23.5t-87 61.5t-56 86t-19.5 98zM190 1090q14 49 33 96t45.5 82t63.5 56.5t88 21.5q59 0 104 -21.5t81 -47.5t66.5 -47.5t63.5 -21.5q18 0 33.5 13.5t28 32t19.5 39t11 34.5h125q-14 -49 -32.5 -96t-45 -82t-63.5 -56.5 t-88 -21.5q-59 0 -104.5 21.5t-81 47t-66.5 47t-63 21.5q-18 0 -34 -13t-28 -31.5t-19.5 -39t-11.5 -34.5h-125zM205 260q0 -66 44 -103.5t111 -37.5q74 0 130.5 26.5t97.5 59.5l49 252q-217 -8 -324.5 -59.5t-107.5 -137.5z" />
<glyph unicode="&#xe4;" d="M27 240q0 72 33.5 134t109.5 107t195.5 68.5t291.5 17.5l7 33q37 213 -218 213q-66 0 -142.5 -22.5t-139.5 -57.5l-14 156q59 33 147 55.5t176 22.5q205 0 300 -98.5t54 -303.5l-67 -319q-14 -68 -3 -97.5t72 -29.5l-36 -142q-59 -4 -97.5 8.5t-62 33t-34.5 45t-13 45.5 h-2q-59 -61 -133 -99.5t-150 -38.5q-61 0 -111.5 23.5t-87 61.5t-56 86t-19.5 98zM205 260q0 -66 44 -103.5t111 -37.5q74 0 130.5 26.5t97.5 59.5l49 252q-217 -8 -324.5 -59.5t-107.5 -137.5zM238 1202q0 51 34.5 89t87.5 38q55 0 90 -38t35 -89q0 -53 -34.5 -91 t-90.5 -38q-53 0 -87.5 38t-34.5 91zM657 1202q0 51 34 89t89 38t89 -38t34 -89q0 -53 -33.5 -91t-89.5 -38q-55 0 -89 38t-34 91z" />
<glyph unicode="&#xe5;" d="M27 240q0 72 33.5 134t109.5 107t195.5 68.5t291.5 17.5l7 33q37 213 -218 213q-66 0 -142.5 -22.5t-139.5 -57.5l-14 156q59 33 147 55.5t176 22.5q205 0 300 -98.5t54 -303.5l-67 -319q-14 -68 -3 -97.5t72 -29.5l-36 -142q-59 -4 -97.5 8.5t-62 33t-34.5 45t-13 45.5 h-2q-59 -61 -133 -99.5t-150 -38.5q-61 0 -111.5 23.5t-87 61.5t-56 86t-19.5 98zM205 260q0 -66 44 -103.5t111 -37.5q74 0 130.5 26.5t97.5 59.5l49 252q-217 -8 -324.5 -59.5t-107.5 -137.5zM334 1274q0 55 22.5 100t61.5 77t87 48.5t101 16.5q47 0 91 -13.5t78 -40 t54.5 -65.5t20.5 -90q0 -55 -22.5 -99.5t-60.5 -75t-87 -46t-100 -15.5q-47 0 -91.5 12.5t-78 38t-55 63.5t-21.5 89zM444 1282q0 -59 41 -91t97 -32q63 0 111 41t48 107q0 59 -42 89.5t-97 30.5q-63 0 -110.5 -39.5t-47.5 -105.5z" />
<glyph unicode="&#xe6;" horiz-adv-x="1540" d="M27 240q0 72 33.5 134t109.5 107t195.5 68.5t291.5 17.5l7 33q37 213 -218 213q-66 0 -142.5 -22.5t-139.5 -57.5l-14 156q59 33 148 56.5t177 23.5q244 -1 324 -144q63 66 148 105t190 39q150 0 243 -84t93 -232q0 -49 -10.5 -101t-30.5 -99l-621 -4v-19 q0 -80 22.5 -137t61.5 -95t92 -55.5t117 -17.5q59 0 116.5 15.5t100.5 35.5l29 -151q-25 -12 -56.5 -22.5t-67.5 -18t-72 -11.5t-67 -4q-127 0 -226 53.5t-156 157.5q-96 -113 -191.5 -162t-202.5 -49q-66 0 -118 23.5t-88.5 61.5t-57 87t-20.5 99zM205 260q0 -70 44 -105.5 t111 -35.5q74 0 152 35.5t156 115.5q-12 37 -17.5 84.5t-5.5 102.5q-231 -10 -335.5 -60.5t-104.5 -136.5zM834 571l462 4q4 12 6.5 30t2.5 30q0 92 -51.5 139t-141.5 47q-102 0 -177 -68.5t-101 -181.5z" />
<glyph unicode="&#xe7;" horiz-adv-x="923" d="M74 420q0 104 36.5 203.5t104.5 176.5t162 123t211 46q98 0 178 -22.5t158 -67.5l-35 -162q-82 49 -154.5 74.5t-150.5 25.5q-84 0 -146.5 -37t-104.5 -93t-62.5 -124.5t-20.5 -132.5q0 -160 82 -232.5t209 -72.5q59 0 116.5 15.5t100.5 35.5l28 -151 q-25 -12 -56.5 -22.5t-66 -18t-70.5 -11.5t-67 -4l-133 -106q111 -10 167 -56.5t56 -111.5q0 -92 -93 -152.5t-292 -66.5l9 108q123 -4 182 25t59 78q0 41 -56 64.5t-179 15.5v88l160 127q-72 14 -132.5 50t-105.5 91t-69.5 129t-24.5 168z" />
<glyph unicode="&#xe8;" horiz-adv-x="968" d="M74 420q0 100 34.5 199.5t99 176t158 125t207.5 48.5q150 0 243 -84t93 -232q0 -49 -10 -101t-31 -99l-620 -4v-19q0 -80 22.5 -137t61.5 -95t92 -55.5t117 -17.5q59 0 116.5 15.5t100.5 35.5l28 -151q-25 -12 -56.5 -22.5t-67 -18t-71.5 -11.5t-67 -4q-92 0 -174 30 t-143.5 86t-97 140t-35.5 195zM270 571l463 4q4 12 6 30t2 30q0 92 -51 139t-141 47q-102 0 -177 -68.5t-102 -181.5zM303 1436h211l145 -371h-129z" />
<glyph unicode="&#xe9;" horiz-adv-x="968" d="M74 420q0 100 34.5 199.5t99 176t158 125t207.5 48.5q150 0 243 -84t93 -232q0 -49 -10 -101t-31 -99l-620 -4v-19q0 -80 22.5 -137t61.5 -95t92 -55.5t117 -17.5q59 0 116.5 15.5t100.5 35.5l28 -151q-25 -12 -56.5 -22.5t-67 -18t-71.5 -11.5t-67 -4q-92 0 -174 30 t-143.5 86t-97 140t-35.5 195zM270 571l463 4q4 12 6 30t2 30q0 92 -51 139t-141 47q-102 0 -177 -68.5t-102 -181.5zM481 1065l289 371h211l-371 -371h-129z" />
<glyph unicode="&#xea;" horiz-adv-x="968" d="M74 420q0 100 34.5 199.5t99 176t158 125t207.5 48.5q150 0 243 -84t93 -232q0 -49 -10 -101t-31 -99l-620 -4v-19q0 -80 22.5 -137t61.5 -95t92 -55.5t117 -17.5q59 0 116.5 15.5t100.5 35.5l28 -151q-25 -12 -56.5 -22.5t-67 -18t-71.5 -11.5t-67 -4q-92 0 -174 30 t-143.5 86t-97 140t-35.5 195zM258 1065l309 383h181l161 -383h-149l-119 260h-4l-217 -260h-162zM270 571l463 4q4 12 6 30t2 30q0 92 -51 139t-141 47q-102 0 -177 -68.5t-102 -181.5z" />
<glyph unicode="&#xeb;" horiz-adv-x="968" d="M74 420q0 100 34.5 199.5t99 176t158 125t207.5 48.5q150 0 243 -84t93 -232q0 -49 -10 -101t-31 -99l-620 -4v-19q0 -80 22.5 -137t61.5 -95t92 -55.5t117 -17.5q59 0 116.5 15.5t100.5 35.5l28 -151q-25 -12 -56.5 -22.5t-67 -18t-71.5 -11.5t-67 -4q-92 0 -174 30 t-143.5 86t-97 140t-35.5 195zM270 571l463 4q4 12 6 30t2 30q0 92 -51 139t-141 47q-102 0 -177 -68.5t-102 -181.5zM287 1202q0 51 34.5 89t88.5 38q55 0 90 -38t35 -89q0 -53 -35 -91t-90 -38q-53 0 -88 38t-35 91zM707 1202q0 51 33.5 89t88.5 38t89 -38t34 -89 q0 -53 -33.5 -91t-89.5 -38q-55 0 -88.5 38t-33.5 91z" />
<glyph unicode="&#xec;" horiz-adv-x="458" d="M61 0l181 924l172 26l-185 -950h-168zM72 1436h211l145 -371h-129z" />
<glyph unicode="&#xed;" horiz-adv-x="458" d="M61 0l181 924l172 26l-185 -950h-168zM268 1065l289 371h211l-371 -371h-129z" />
<glyph unicode="&#xee;" horiz-adv-x="458" d="M27 1065l309 383h180l162 -383h-150l-118 260h-4l-218 -260h-161zM61 0l181 924l172 26l-185 -950h-168z" />
<glyph unicode="&#xef;" horiz-adv-x="458" d="M35 1202q0 51 34.5 89t88.5 38q55 0 90 -38t35 -89q0 -53 -35 -91t-90 -38q-53 0 -88 38t-35 91zM61 0l181 924l172 26l-185 -950h-168zM455 1202q0 51 33.5 89t89.5 38q55 0 88.5 -38t33.5 -89q0 -53 -33.5 -91t-88.5 -38t-89 38t-34 91z" />
<glyph unicode="&#xf0;" horiz-adv-x="1083" d="M74 371q0 109 38 203t101 162.5t145 108.5t170 40q117 0 191 -49.5t115 -118.5l4 2q-4 27 -24.5 72t-53.5 101t-74 120.5t-88 130.5q-16 -2 -35 -8q-16 -4 -35.5 -10.5t-42.5 -10.5q-51 -12 -112 -29l-8 113l161 41q-35 47 -70.5 87t-70.5 75l201 26q29 -31 59.5 -65.5 t61.5 -75.5l223 57l8 -112l-160 -41q94 -139 164 -302t72 -331q0 -121 -37 -227.5t-105.5 -186.5t-164 -127t-211.5 -47q-98 0 -177 32t-133.5 86t-83 127t-28.5 157zM256 383q0 -125 69.5 -195.5t190.5 -70.5q74 0 133.5 34.5t101.5 92t64.5 131t22.5 153.5q0 23 -2 41.5 t-5 34.5q-12 25 -40.5 48.5t-67.5 42t-85 29.5t-93 11q-59 0 -111.5 -27.5t-91.5 -75.5t-62.5 -111.5t-23.5 -137.5z" />
<glyph unicode="&#xf1;" horiz-adv-x="1058" d="M55 0l183 942l174 27l-27 -144q66 59 144.5 101.5t160.5 42.5q123 0 198 -70t75 -180q0 -23 -5.5 -63t-9.5 -62l-117 -594h-167l108 557q4 20 10 54t6 63q0 68 -43 101.5t-120 33.5q-68 0 -143.5 -37t-125.5 -88l-133 -684h-168zM297 1090q14 49 32.5 96t45 82t63.5 56.5 t88 21.5q59 0 104.5 -21.5t81.5 -47.5t66.5 -47.5t63.5 -21.5q18 0 33.5 13.5t27.5 32t19.5 39t11.5 34.5h125q-14 -49 -32.5 -96t-45.5 -82t-63.5 -56.5t-88.5 -21.5q-59 0 -104 21.5t-81 47t-66.5 47t-63.5 21.5q-18 0 -33.5 -13t-28 -31.5t-19.5 -39t-11 -34.5h-125z" />
<glyph unicode="&#xf2;" horiz-adv-x="1081" d="M74 406q0 106 36.5 208.5t105.5 180t165 126t215 48.5q94 0 171 -35t131 -94.5t84 -139.5t30 -170q0 -109 -37 -210t-105.5 -179t-166 -124t-216.5 -46q-92 0 -168.5 33t-131 91.5t-84 138t-29.5 172.5zM242 416q0 -131 68.5 -214t197.5 -83q82 0 144.5 37t104.5 95 t63.5 129.5t21.5 141.5q0 129 -68.5 214t-195.5 85q-82 0 -144.5 -38t-105.5 -96t-64.5 -131t-21.5 -140zM342 1436h211l145 -371h-129z" />
<glyph unicode="&#xf3;" horiz-adv-x="1081" d="M74 406q0 106 36.5 208.5t105.5 180t165 126t215 48.5q94 0 171 -35t131 -94.5t84 -139.5t30 -170q0 -109 -37 -210t-105.5 -179t-166 -124t-216.5 -46q-92 0 -168.5 33t-131 91.5t-84 138t-29.5 172.5zM242 416q0 -131 68.5 -214t197.5 -83q82 0 144.5 37t104.5 95 t63.5 129.5t21.5 141.5q0 129 -68.5 214t-195.5 85q-82 0 -144.5 -38t-105.5 -96t-64.5 -131t-21.5 -140zM541 1065l288 371h211l-370 -371h-129z" />
<glyph unicode="&#xf4;" horiz-adv-x="1081" d="M74 406q0 106 36.5 208.5t105.5 180t165 126t215 48.5q94 0 171 -35t131 -94.5t84 -139.5t30 -170q0 -109 -37 -210t-105.5 -179t-166 -124t-216.5 -46q-92 0 -168.5 33t-131 91.5t-84 138t-29.5 172.5zM242 416q0 -131 68.5 -214t197.5 -83q82 0 144.5 37t104.5 95 t63.5 129.5t21.5 141.5q0 129 -68.5 214t-195.5 85q-82 0 -144.5 -38t-105.5 -96t-64.5 -131t-21.5 -140zM338 1065l309 383h180l162 -383h-149l-119 260h-4l-217 -260h-162z" />
<glyph unicode="&#xf5;" horiz-adv-x="1081" d="M74 406q0 106 36.5 208.5t105.5 180t165 126t215 48.5q94 0 171 -35t131 -94.5t84 -139.5t30 -170q0 -109 -37 -210t-105.5 -179t-166 -124t-216.5 -46q-92 0 -168.5 33t-131 91.5t-84 138t-29.5 172.5zM242 416q0 -131 68.5 -214t197.5 -83q82 0 144.5 37t104.5 95 t63.5 129.5t21.5 141.5q0 129 -68.5 214t-195.5 85q-82 0 -144.5 -38t-105.5 -96t-64.5 -131t-21.5 -140zM309 1090q14 49 32.5 96t45.5 82t63.5 56.5t88.5 21.5q59 0 104 -21.5t81 -47.5t66.5 -47.5t63.5 -21.5q18 0 33.5 13.5t28 32t19.5 39t11 34.5h125 q-14 -49 -32.5 -96t-45 -82t-63.5 -56.5t-88 -21.5q-59 0 -104.5 21.5t-81 47t-66.5 47t-64 21.5q-18 0 -33.5 -13t-27.5 -31.5t-19.5 -39t-11.5 -34.5h-125z" />
<glyph unicode="&#xf6;" horiz-adv-x="1081" d="M74 406q0 106 36.5 208.5t105.5 180t165 126t215 48.5q94 0 171 -35t131 -94.5t84 -139.5t30 -170q0 -109 -37 -210t-105.5 -179t-166 -124t-216.5 -46q-92 0 -168.5 33t-131 91.5t-84 138t-29.5 172.5zM242 416q0 -131 68.5 -214t197.5 -83q82 0 144.5 37t104.5 95 t63.5 129.5t21.5 141.5q0 129 -68.5 214t-195.5 85q-82 0 -144.5 -38t-105.5 -96t-64.5 -131t-21.5 -140zM336 1202q0 51 35 89t88 38q55 0 90 -38t35 -89q0 -53 -35 -91t-90 -38q-53 0 -88 38t-35 91zM756 1202q0 51 33.5 89t89.5 38q55 0 88.5 -38t33.5 -89 q0 -53 -33.5 -91t-88.5 -38t-89 38t-34 91z" />
<glyph unicode="&#xf7;" horiz-adv-x="991" d="M82 408l6 145h819l6 -145h-831zM362 168q0 53 40 93t100 40q59 0 97 -40t38 -93t-38 -95t-97 -42t-99.5 42t-40.5 95zM362 793q0 53 38 95t98 42q59 0 99 -42t40 -95t-40 -93.5t-99 -40.5t-97.5 40t-38.5 94z" />
<glyph unicode="&#xf8;" horiz-adv-x="1081" d="M-23 -137l203 248q-47 59 -73.5 133.5t-26.5 161.5q0 106 37 208.5t105.5 180t164.5 126t215 48.5q127 0 225 -64l142 172h147q-33 -41 -67 -84q-29 -37 -65 -80t-71 -84q49 -59 77 -136t28 -163q0 -109 -37 -210t-105.5 -179t-166 -124t-215.5 -46q-129 0 -228 64 l-141 -172h-148zM248 416q0 -100 41 -172l438 538q-61 39 -143 39t-144.5 -38t-105.5 -96t-64.5 -131t-21.5 -140zM367 160q63 -41 147 -41q82 0 144.5 37t104.5 95t63.5 129.5t21.5 141.5q0 102 -41 174q-33 -41 -70 -84q-31 -39 -70.5 -86t-80.5 -98q-98 -119 -219 -268z " />
<glyph unicode="&#xf9;" horiz-adv-x="1058" d="M96 219q0 23 5 63t10 62l116 594h168l-108 -557q-4 -20 -10.5 -54t-6.5 -63q0 -68 43 -101.5t121 -33.5q68 0 143.5 37t124.5 88l134 684h168l-183 -942l-174 -27l27 144q-66 -59 -144.5 -101.5t-160.5 -42.5q-123 0 -198 70t-75 180zM350 1436h211l146 -371h-129z" />
<glyph unicode="&#xfa;" horiz-adv-x="1058" d="M96 219q0 23 5 63t10 62l116 594h168l-108 -557q-4 -20 -10.5 -54t-6.5 -63q0 -68 43 -101.5t121 -33.5q68 0 143.5 37t124.5 88l134 684h168l-183 -942l-174 -27l27 144q-66 -59 -144.5 -101.5t-160.5 -42.5q-123 0 -198 70t-75 180zM569 1065l289 371h211l-371 -371 h-129z" />
<glyph unicode="&#xfb;" horiz-adv-x="1058" d="M96 219q0 23 5 63t10 62l116 594h168l-108 -557q-4 -20 -10.5 -54t-6.5 -63q0 -68 43 -101.5t121 -33.5q68 0 143.5 37t124.5 88l134 684h168l-183 -942l-174 -27l27 144q-66 -59 -144.5 -101.5t-160.5 -42.5q-123 0 -198 70t-75 180zM305 1065l309 383h181l161 -383 h-149l-119 260h-4l-217 -260h-162z" />
<glyph unicode="&#xfc;" horiz-adv-x="1058" d="M96 219q0 23 5 63t10 62l116 594h168l-108 -557q-4 -20 -10.5 -54t-6.5 -63q0 -68 43 -101.5t121 -33.5q68 0 143.5 37t124.5 88l134 684h168l-183 -942l-174 -27l27 144q-66 -59 -144.5 -101.5t-160.5 -42.5q-123 0 -198 70t-75 180zM324 1202q0 51 34.5 89t87.5 38 q55 0 90 -38t35 -89q0 -53 -34.5 -91t-90.5 -38q-53 0 -87.5 38t-34.5 91zM743 1202q0 51 34 89t89 38t89 -38t34 -89q0 -53 -33.5 -91t-89.5 -38q-55 0 -89 38t-34 91z" />
<glyph unicode="&#xfd;" horiz-adv-x="903" d="M-217 -446l82 143q27 -23 52.5 -34t59.5 -11q41 0 76 32.5t90 122.5l129 211l-176 920h172l125 -731l414 731h184l-571 -963l-131 -227q-43 -74 -81 -125t-75 -81.5t-77 -44t-85 -13.5q-59 0 -110 23.5t-78 46.5zM471 1065l289 371h211l-371 -371h-129z" />
<glyph unicode="&#xfe;" horiz-adv-x="1077" d="M-37 -477l361 1857l174 27l-105 -533q29 18 55.5 36t55 31t61.5 20.5t74 7.5q82 0 150.5 -32t117.5 -88t76 -133t27 -165q0 -119 -42 -224.5t-115 -185.5t-172 -126t-212 -46q-63 0 -126.5 17.5t-117.5 42.5l-94 -506h-168zM262 213q41 -41 99.5 -68.5t127.5 -27.5 q78 0 141.5 35.5t108.5 94t70 133.5t25 150q0 66 -19.5 119t-53.5 91t-79 58.5t-96 20.5q-66 0 -118 -24.5t-101 -57.5z" />
<glyph unicode="&#xff;" horiz-adv-x="903" d="M-217 -446l82 143q27 -23 52.5 -34t59.5 -11q41 0 76 32.5t90 122.5l129 211l-176 920h172l125 -731l414 731h184l-571 -963l-131 -227q-43 -74 -81 -125t-75 -81.5t-77 -44t-85 -13.5q-59 0 -110 23.5t-78 46.5zM246 1202q0 51 34.5 89t88.5 38q55 0 90 -38t35 -89 q0 -53 -35 -91t-90 -38q-53 0 -88 38t-35 91zM666 1202q0 51 33.5 89t88.5 38t89 -38t34 -89q0 -53 -33.5 -91t-89.5 -38q-55 0 -88.5 38t-33.5 91z" />
<glyph unicode="&#x152;" horiz-adv-x="1820" d="M113 545q0 145 45 278t140 234.5t241.5 162t349.5 60.5h993l-31 -162h-598l-77 -395h493l-31 -162h-493l-78 -399h600l-33 -162h-905q-127 0 -238.5 35t-195.5 103.5t-133 170t-49 236.5zM291 565q0 -102 31.5 -178t92 -125t145.5 -72.5t192 -25.5l141 -2l186 956h-229 q-117 0 -219.5 -37t-178 -107.5t-118.5 -174t-43 -234.5z" />
<glyph unicode="&#x153;" horiz-adv-x="1716" d="M74 406q0 106 36.5 208.5t105.5 180t165 126t215 48.5q123 0 210 -57.5t134 -151.5q61 92 156.5 150.5t224.5 58.5q150 0 243 -84t93 -232q0 -49 -10.5 -101t-30.5 -99l-621 -4v-19q0 -80 22.5 -137t61.5 -95t92.5 -55.5t116.5 -17.5q59 0 116.5 15.5t100.5 35.5l29 -151 q-25 -12 -56.5 -22.5t-67.5 -18t-71.5 -11.5t-66.5 -4q-133 0 -230.5 54t-150.5 163q-66 -98 -167 -156.5t-237 -58.5q-92 0 -168.5 33t-131 91.5t-84 138t-29.5 172.5zM242 416q0 -131 68.5 -214t197.5 -83q82 0 144.5 37t104.5 95t63.5 130t21.5 141q0 129 -68.5 214 t-195.5 85q-82 0 -144.5 -38t-105.5 -96t-64.5 -130.5t-21.5 -140.5zM1018 571l463 4q4 12 6 30t2 30q0 92 -51.5 139t-141.5 47q-102 0 -177 -68.5t-101 -181.5z" />
<glyph unicode="&#x178;" horiz-adv-x="1105" d="M182 1280h189l225 -606l444 606h199l-594 -776l-98 -504h-166l100 516zM399 1544q0 51 35 89t88 38q55 0 90 -38t35 -89q0 -53 -34.5 -91t-90.5 -38q-53 0 -88 38t-35 91zM819 1544q0 51 34 89t89 38t89 -38t34 -89q0 -53 -34 -91t-89 -38t-89 38t-34 91z" />
<glyph unicode="&#x2c6;" horiz-adv-x="806" d="M201 1065l309 383h180l162 -383h-150l-118 260h-4l-218 -260h-161z" />
<glyph unicode="&#x2dc;" horiz-adv-x="806" d="M172 1090q14 49 32.5 96t45 82t63.5 56.5t88 21.5q59 0 104.5 -21.5t81.5 -47.5t66.5 -47.5t63.5 -21.5q18 0 33.5 13.5t28 32t19.5 39t11 34.5h125q-14 -49 -32.5 -96t-45.5 -82t-63.5 -56.5t-87.5 -21.5q-59 0 -104.5 21.5t-81.5 47t-66.5 47t-63.5 21.5 q-18 0 -33.5 -13t-28 -31.5t-19.5 -39t-11 -34.5h-125z" />
<glyph unicode="&#x2000;" horiz-adv-x="895" />
<glyph unicode="&#x2001;" horiz-adv-x="1790" />
<glyph unicode="&#x2002;" horiz-adv-x="895" />
<glyph unicode="&#x2003;" horiz-adv-x="1790" />
<glyph unicode="&#x2004;" horiz-adv-x="596" />
<glyph unicode="&#x2005;" horiz-adv-x="447" />
<glyph unicode="&#x2006;" horiz-adv-x="298" />
<glyph unicode="&#x2007;" horiz-adv-x="298" />
<glyph unicode="&#x2008;" horiz-adv-x="223" />
<glyph unicode="&#x2009;" horiz-adv-x="358" />
<glyph unicode="&#x200a;" horiz-adv-x="99" />
<glyph unicode="&#x2010;" horiz-adv-x="634" d="M74 418v157h504v-157h-504z" />
<glyph unicode="&#x2011;" horiz-adv-x="634" d="M74 418v157h504v-157h-504z" />
<glyph unicode="&#x2012;" horiz-adv-x="634" d="M74 418v157h504v-157h-504z" />
<glyph unicode="&#x2013;" horiz-adv-x="944" d="M66 424l6 121h813l6 -121h-825z" />
<glyph unicode="&#x2014;" horiz-adv-x="1906" d="M66 424l6 121h1775l6 -121h-1787z" />
<glyph unicode="&#x2018;" horiz-adv-x="450" d="M154 944q0 72 38.5 135.5t97 117.5t126 95t123.5 70l57 -76q-31 -16 -75 -47t-86 -67.5t-70.5 -77.5t-28.5 -80q0 -23 13 -42.5t31.5 -35.5t39.5 -30.5t37 -24.5q-14 -49 -53 -77t-91 -28q-35 0 -63.5 14.5t-50 37t-33.5 53t-12 63.5z" />
<glyph unicode="&#x2019;" horiz-adv-x="450" d="M90 856q31 16 75 47t86 68t70.5 78t28.5 79q0 20 -13 41t-31.5 37.5t-40.5 31t-38 24.5q16 49 54 76.5t92 27.5q68 0 112.5 -51t44.5 -119q0 -72 -38.5 -134.5t-97 -116.5t-126 -96t-123.5 -69z" />
<glyph unicode="&#x201a;" horiz-adv-x="450" d="M-123 -242q31 16 75 47t86 68t70.5 78t28.5 80q0 20 -13 40.5t-31.5 37t-40.5 31t-38 24.5q16 49 54 76.5t92 27.5q68 0 112.5 -51t44.5 -119q0 -72 -38.5 -134t-97 -116.5t-126 -96.5t-123.5 -68z" />
<glyph unicode="&#x201c;" horiz-adv-x="860" d="M154 944q0 72 38.5 135.5t97 117.5t126 95t123.5 70l57 -76q-31 -16 -75 -47t-86 -67.5t-70.5 -77.5t-28.5 -80q0 -23 13 -42.5t31.5 -35.5t39.5 -30.5t37 -24.5q-14 -49 -53 -77t-91 -28q-35 0 -63.5 14.5t-50 37t-33.5 53t-12 63.5zM592 944q0 72 39 135.5t97 117.5 t126 95t123 70l57 -76q-31 -16 -75 -47t-86 -67.5t-70.5 -77.5t-28.5 -80q0 -23 13.5 -42.5t32 -35.5t39 -30.5t36.5 -24.5q-14 -49 -52 -77t-91 -28q-35 0 -64 14.5t-50.5 37t-33.5 53t-12 63.5z" />
<glyph unicode="&#x201d;" horiz-adv-x="860" d="M90 856q31 16 75 47t86 68t70.5 78t28.5 79q0 20 -13 41t-31.5 37.5t-40.5 31t-38 24.5q16 49 54 76.5t92 27.5q68 0 112.5 -51t44.5 -119q0 -72 -38.5 -134.5t-97 -116.5t-126 -96t-123.5 -69zM528 856q31 16 75 47t86 68t70.5 78t28.5 79q0 20 -13 41t-31.5 37.5 t-40 31t-37.5 24.5q16 49 54 76.5t91 27.5q68 0 114 -51t46 -119q0 -72 -40 -134.5t-98.5 -116.5t-126 -96t-122.5 -69z" />
<glyph unicode="&#x201e;" horiz-adv-x="860" d="M-123 -242q31 16 75 47t86 68t70.5 78t28.5 80q0 20 -13 40.5t-31.5 37t-40.5 31t-38 24.5q16 49 54 76.5t92 27.5q68 0 112.5 -51t44.5 -119q0 -72 -38.5 -134t-97 -116.5t-126 -96.5t-123.5 -68zM315 -242q31 16 75 47t86 68t70.5 78t28.5 80q0 20 -13 40.5t-31.5 37 t-40 31t-37.5 24.5q16 49 54 76.5t91 27.5q68 0 114 -51t46 -119q0 -72 -40 -134t-98.5 -116.5t-126 -96.5t-122.5 -68z" />
<glyph unicode="&#x2022;" horiz-adv-x="919" d="M66 475q0 23 12 63t30.5 83t38 79.5t35.5 53.5q14 14 52 34.5t81 38t83 29.5t63 12t62.5 -12t82.5 -29.5t80 -38t53 -34.5q14 -16 35 -53t38 -80t29.5 -83t12.5 -63t-12.5 -63.5t-29.5 -83.5t-36.5 -80t-36.5 -53q-16 -16 -53 -36t-80 -37.5t-84 -29.5t-63 -12 q-23 0 -63 12t-83 29.5t-79.5 37t-51.5 36.5q-16 16 -35.5 53t-38 80t-30.5 84t-12 63z" />
<glyph unicode="&#x2026;" horiz-adv-x="1376" d="M25 102q0 53 37.5 91t97.5 38q57 0 93 -38t36 -91t-36 -93t-93 -40q-59 0 -97 40t-38 93zM487 102q0 53 38 91t96 38q59 0 95 -38t36 -91t-36 -93t-95 -40q-57 0 -95.5 40t-38.5 93zM950 102q0 53 37 91t96 38t95 -38t36 -91t-35.5 -93t-95.5 -40q-59 0 -96 40t-37 93z " />
<glyph unicode="&#x202f;" horiz-adv-x="358" />
<glyph unicode="&#x2039;" horiz-adv-x="700" d="M47 383l37 192l600 332l-2 -129l-479 -311v-2l352 -297l-37 -117z" />
<glyph unicode="&#x203a;" horiz-adv-x="700" d="M23 51l2 127l477 311v3l-350 296l36 119l474 -332l-37 -194z" />
<glyph unicode="&#x205f;" horiz-adv-x="447" />
<glyph unicode="&#x20ac;" horiz-adv-x="1028" d="M53 416l6 112h164q4 53 13 109q4 31 11 60.5t15 58.5h-117l-6 112h158q35 88 83 164t111.5 132.5t142.5 89t175 32.5q92 0 185 -27.5t165 -82.5l-69 -144q-57 51 -138.5 78t-156.5 27q-111 0 -190 -77t-128 -192h467l-6 -112h-500q-16 -59 -24 -119q-14 -59 -17 -109h394 l6 -112h-400q6 -143 72 -223t219 -80q61 0 120.5 11t113.5 40v-152q-57 -27 -120 -38t-128 -11q-457 0 -457 453h-164z" />
<glyph unicode="&#x2122;" horiz-adv-x="1943" d="M182 1157v125h721v-125h-309v-641h-127v641h-285zM1006 516l14 766h233l164 -592h25l188 592h221l9 -766h-131l2 625h-23l-217 -602h-143l-191 600h-22l-11 -623h-118z" />
<glyph unicode="&#x25fc;" horiz-adv-x="942" d="M0 0v942h942v-942h-942z" />
<glyph unicode="&#xfb01;" horiz-adv-x="1099" d="M82 797l6 106l184 45l29 144q14 74 39 135t63.5 105t95 68.5t134.5 24.5q59 0 121.5 -19.5t105.5 -51.5q0 -2 -11 -23.5t-26 -50.5q-16 -33 -35 -72q-35 23 -78.5 40.5t-86.5 17.5q-39 0 -66 -15.5t-44 -41t-27.5 -57.5t-16.5 -65l-29 -149h455l160 12l-185 -950h-168 l154 786h-444l-154 -786h-168l152 784z" />
<glyph unicode="&#xfb02;" horiz-adv-x="1105" d="M82 797l6 106l184 45l29 144q14 74 39 135t63.5 105t95 68.5t134.5 24.5q59 0 121.5 -19t105.5 -52q0 -2 -11 -23.5t-26 -50.5q-16 -33 -35 -72q-35 23 -78.5 40.5t-86.5 17.5q-39 0 -66 -15.5t-44 -41t-27.5 -57.5t-16.5 -65l-29 -149h265l-7 -152h-286l-154 -786h-168 l152 784zM702 0l269 1380l174 27l-275 -1407h-168z" />
<glyph unicode="&#xfb03;" horiz-adv-x="1746" d="M82 797l6 106l184 45l25 123q14 74 38.5 135.5t63.5 105.5t95.5 68.5t134.5 24.5q59 0 121.5 -19.5t105.5 -52.5q0 -2 -11 -23.5t-26 -49.5q-16 -33 -35 -72q-35 23 -78.5 40t-87.5 17q-39 0 -65.5 -15.5t-43.5 -41t-27.5 -57t-16.5 -64.5l-25 -129h478l30 154 q14 74 39 135t64 105t95 68.5t134 24.5q59 0 121.5 -19.5t105.5 -51.5q0 -2 -11 -23.5t-26 -50.5q-16 -33 -34 -72q-35 23 -79 40.5t-87 17.5q-39 0 -65.5 -15.5t-44 -41t-28 -57.5t-16.5 -65l-29 -149h455l160 12l-184 -950h-168l153 786h-444l-154 -786h-168l152 786h-477 l-154 -786h-168l152 784z" />
<glyph unicode="&#xfb04;" horiz-adv-x="1753" d="M82 797l6 106l184 45l25 123q14 74 38.5 135.5t63.5 105.5t95.5 68.5t134.5 24.5q59 0 121.5 -19.5t105.5 -52.5q0 -2 -11 -23.5t-26 -49.5q-16 -33 -35 -72q-35 23 -78.5 40t-87.5 17q-39 0 -65.5 -15.5t-43.5 -41t-27.5 -57t-16.5 -64.5l-25 -129h478l30 154 q14 74 39 135t64 105t95 68.5t134 24.5q59 0 121.5 -19.5t105.5 -51.5q0 -2 -11 -23.5t-26 -50.5q-16 -33 -34 -72q-35 23 -79 40.5t-87 17.5q-39 0 -65.5 -15.5t-44 -41t-28 -57.5t-16.5 -65l-29 -149h263l-7 -152h-284l-154 -786h-168l152 786h-477l-154 -786h-168 l152 784zM1350 0l268 1380l174 27l-274 -1407h-168z" />
</font>
</defs>
</svg>
